%TF.GenerationSoftware,KiCad,Pcbnew,9.0.7*%
%TF.CreationDate,2026-03-03T00:35:34+03:00*%
%TF.ProjectId,kareems rp2040,6b617265-656d-4732-9072-70323034302e,rev?*%
%TF.SameCoordinates,Original*%
%TF.FileFunction,Soldermask,Top*%
%TF.FilePolarity,Negative*%
%FSLAX46Y46*%
G04 Gerber Fmt 4.6, Leading zero omitted, Abs format (unit mm)*
G04 Created by KiCad (PCBNEW 9.0.7) date 2026-03-03 00:35:34*
%MOMM*%
%LPD*%
G01*
G04 APERTURE LIST*
G04 Aperture macros list*
%AMRoundRect*
0 Rectangle with rounded corners*
0 $1 Rounding radius*
0 $2 $3 $4 $5 $6 $7 $8 $9 X,Y pos of 4 corners*
0 Add a 4 corners polygon primitive as box body*
4,1,4,$2,$3,$4,$5,$6,$7,$8,$9,$2,$3,0*
0 Add four circle primitives for the rounded corners*
1,1,$1+$1,$2,$3*
1,1,$1+$1,$4,$5*
1,1,$1+$1,$6,$7*
1,1,$1+$1,$8,$9*
0 Add four rect primitives between the rounded corners*
20,1,$1+$1,$2,$3,$4,$5,0*
20,1,$1+$1,$4,$5,$6,$7,0*
20,1,$1+$1,$6,$7,$8,$9,0*
20,1,$1+$1,$8,$9,$2,$3,0*%
G04 Aperture macros list end*
%ADD10C,1.700000*%
%ADD11R,1.700000X1.700000*%
%ADD12RoundRect,0.135000X-0.135000X-0.185000X0.135000X-0.185000X0.135000X0.185000X-0.135000X0.185000X0*%
%ADD13RoundRect,0.140000X0.219203X0.021213X0.021213X0.219203X-0.219203X-0.021213X-0.021213X-0.219203X0*%
%ADD14RoundRect,0.162500X-0.650000X-0.162500X0.650000X-0.162500X0.650000X0.162500X-0.650000X0.162500X0*%
%ADD15RoundRect,0.140000X-0.219203X-0.021213X-0.021213X-0.219203X0.219203X0.021213X0.021213X0.219203X0*%
%ADD16RoundRect,0.050000X-0.387500X-0.050000X0.387500X-0.050000X0.387500X0.050000X-0.387500X0.050000X0*%
%ADD17RoundRect,0.050000X-0.050000X-0.387500X0.050000X-0.387500X0.050000X0.387500X-0.050000X0.387500X0*%
%ADD18R,3.200000X3.200000*%
%ADD19RoundRect,0.135000X0.135000X0.185000X-0.135000X0.185000X-0.135000X-0.185000X0.135000X-0.185000X0*%
%ADD20RoundRect,0.140000X0.140000X0.170000X-0.140000X0.170000X-0.140000X-0.170000X0.140000X-0.170000X0*%
%ADD21RoundRect,0.225000X0.225000X0.250000X-0.225000X0.250000X-0.225000X-0.250000X0.225000X-0.250000X0*%
%ADD22C,0.650000*%
%ADD23R,0.600000X1.450000*%
%ADD24R,0.300000X1.450000*%
%ADD25O,1.000000X2.100000*%
%ADD26O,1.000000X1.600000*%
%ADD27RoundRect,0.250000X-0.450000X-0.350000X0.450000X-0.350000X0.450000X0.350000X-0.450000X0.350000X0*%
%ADD28RoundRect,0.225000X-0.225000X-0.250000X0.225000X-0.250000X0.225000X0.250000X-0.225000X0.250000X0*%
%ADD29RoundRect,0.140000X-0.170000X0.140000X-0.170000X-0.140000X0.170000X-0.140000X0.170000X0.140000X0*%
%ADD30RoundRect,0.140000X0.021213X-0.219203X0.219203X-0.021213X-0.021213X0.219203X-0.219203X0.021213X0*%
%ADD31RoundRect,0.135000X-0.185000X0.135000X-0.185000X-0.135000X0.185000X-0.135000X0.185000X0.135000X0*%
%ADD32RoundRect,0.150000X0.150000X-0.587500X0.150000X0.587500X-0.150000X0.587500X-0.150000X-0.587500X0*%
%ADD33RoundRect,0.200000X-0.800000X0.200000X-0.800000X-0.200000X0.800000X-0.200000X0.800000X0.200000X0*%
G04 APERTURE END LIST*
D10*
%TO.C,J3*%
X225630000Y-115510000D03*
X225630000Y-112970000D03*
X225630000Y-110430000D03*
X225630000Y-107890000D03*
X225630000Y-105350000D03*
X225630000Y-102810000D03*
X225630000Y-100270000D03*
X225630000Y-97730000D03*
X225630000Y-95190000D03*
X225630000Y-92650000D03*
X225630000Y-90110000D03*
X225630000Y-87570000D03*
X225630000Y-85030000D03*
X225630000Y-82490000D03*
X225630000Y-79950000D03*
X225630000Y-77410000D03*
X225630000Y-74870000D03*
X225630000Y-72330000D03*
X225630000Y-69790000D03*
D11*
X225630000Y-67250000D03*
%TD*%
D12*
%TO.C,R6*%
X211790000Y-89500000D03*
X212810000Y-89500000D03*
%TD*%
D13*
%TO.C,C10*%
X207023116Y-112023116D03*
X206344294Y-111344294D03*
%TD*%
D14*
%TO.C,U2*%
X210112500Y-91595000D03*
X210112500Y-92865000D03*
X210112500Y-94135000D03*
X210112500Y-95405000D03*
X217287500Y-95405000D03*
X217287500Y-94135000D03*
X217287500Y-92865000D03*
X217287500Y-91595000D03*
%TD*%
D15*
%TO.C,C11*%
X207631229Y-112631229D03*
X208310051Y-113310051D03*
%TD*%
D12*
%TO.C,R1*%
X216190000Y-75800000D03*
X217210000Y-75800000D03*
%TD*%
D16*
%TO.C,U1*%
X209825000Y-100700000D03*
X209825000Y-101100000D03*
X209825000Y-101500000D03*
X209825000Y-101900000D03*
X209825000Y-102300000D03*
X209825000Y-102700000D03*
X209825000Y-103100000D03*
X209825000Y-103500000D03*
X209825000Y-103900000D03*
X209825000Y-104300000D03*
X209825000Y-104700000D03*
X209825000Y-105100000D03*
X209825000Y-105500000D03*
X209825000Y-105900000D03*
D17*
X210662500Y-106737500D03*
X211062500Y-106737500D03*
X211462500Y-106737500D03*
X211862500Y-106737500D03*
X212262500Y-106737500D03*
X212662500Y-106737500D03*
X213062500Y-106737500D03*
X213462500Y-106737500D03*
X213862500Y-106737500D03*
X214262500Y-106737500D03*
X214662500Y-106737500D03*
X215062500Y-106737500D03*
X215462500Y-106737500D03*
X215862500Y-106737500D03*
D16*
X216700000Y-105900000D03*
X216700000Y-105500000D03*
X216700000Y-105100000D03*
X216700000Y-104700000D03*
X216700000Y-104300000D03*
X216700000Y-103900000D03*
X216700000Y-103500000D03*
X216700000Y-103100000D03*
X216700000Y-102700000D03*
X216700000Y-102300000D03*
X216700000Y-101900000D03*
X216700000Y-101500000D03*
X216700000Y-101100000D03*
X216700000Y-100700000D03*
D17*
X215862500Y-99862500D03*
X215462500Y-99862500D03*
X215062500Y-99862500D03*
X214662500Y-99862500D03*
X214262500Y-99862500D03*
X213862500Y-99862500D03*
X213462500Y-99862500D03*
X213062500Y-99862500D03*
X212662500Y-99862500D03*
X212262500Y-99862500D03*
X211862500Y-99862500D03*
X211462500Y-99862500D03*
X211062500Y-99862500D03*
X210662500Y-99862500D03*
D18*
X213262500Y-103300000D03*
%TD*%
D19*
%TO.C,R5*%
X213510000Y-109300000D03*
X212490000Y-109300000D03*
%TD*%
D20*
%TO.C,C8*%
X209160000Y-98800000D03*
X208200000Y-98800000D03*
%TD*%
D21*
%TO.C,C14*%
X215775000Y-78500000D03*
X214225000Y-78500000D03*
%TD*%
D22*
%TO.C,J1*%
X216140000Y-72600000D03*
X210360000Y-72600000D03*
D23*
X216500000Y-74045000D03*
X215700000Y-74045000D03*
D24*
X214500000Y-74045000D03*
X213500000Y-74045000D03*
X213000000Y-74045000D03*
X212000000Y-74045000D03*
D23*
X210800000Y-74045000D03*
X210000000Y-74045000D03*
X210000000Y-74045000D03*
X210800000Y-74045000D03*
D24*
X211500000Y-74045000D03*
X212500000Y-74045000D03*
X214000000Y-74045000D03*
X215000000Y-74045000D03*
D23*
X215700000Y-74045000D03*
X216500000Y-74045000D03*
D25*
X217570000Y-73130000D03*
D26*
X217570000Y-68950000D03*
D25*
X208930000Y-73130000D03*
D26*
X208930000Y-68950000D03*
%TD*%
D27*
%TO.C,Y1*%
X211400000Y-112550000D03*
X213600000Y-112550000D03*
X213600000Y-110850000D03*
X211400000Y-110850000D03*
%TD*%
D11*
%TO.C,J4*%
X210760000Y-120100000D03*
D10*
X213300000Y-120100000D03*
X215840000Y-120100000D03*
%TD*%
D28*
%TO.C,C13*%
X210425000Y-81000000D03*
X211975000Y-81000000D03*
%TD*%
D29*
%TO.C,C15*%
X209700000Y-110540000D03*
X209700000Y-111500000D03*
%TD*%
D30*
%TO.C,C7*%
X211560589Y-83039411D03*
X212239411Y-82360589D03*
%TD*%
%TO.C,C17*%
X213560589Y-85139411D03*
X214239411Y-84460589D03*
%TD*%
D31*
%TO.C,R2*%
X211600000Y-76200000D03*
X211600000Y-77220000D03*
%TD*%
D19*
%TO.C,R7*%
X215210000Y-89500000D03*
X214190000Y-89500000D03*
%TD*%
D31*
%TO.C,R4*%
X212800000Y-76290000D03*
X212800000Y-77310000D03*
%TD*%
D20*
%TO.C,C9*%
X209000000Y-99800000D03*
X208040000Y-99800000D03*
%TD*%
D32*
%TO.C,U4*%
X216450000Y-81237500D03*
X218350000Y-81237500D03*
X217400000Y-79362500D03*
%TD*%
D30*
%TO.C,C4*%
X212960589Y-84339411D03*
X213639411Y-83660589D03*
%TD*%
D29*
%TO.C,C16*%
X215400000Y-111220000D03*
X215400000Y-112180000D03*
%TD*%
D33*
%TO.C,SW1*%
X209600000Y-84700000D03*
X209600000Y-88900000D03*
%TD*%
D13*
%TO.C,C12*%
X209639411Y-114639411D03*
X208960589Y-113960589D03*
%TD*%
D30*
%TO.C,C1*%
X212260589Y-83739411D03*
X212939411Y-83060589D03*
%TD*%
%TO.C,C2*%
X219560589Y-98939411D03*
X220239411Y-98260589D03*
%TD*%
%TO.C,C6*%
X214960589Y-86539411D03*
X215639411Y-85860589D03*
%TD*%
D31*
%TO.C,R3*%
X214300000Y-75690000D03*
X214300000Y-76710000D03*
%TD*%
D11*
%TO.C,J2*%
X200870000Y-67250000D03*
D10*
X200870000Y-69790000D03*
X200870000Y-72330000D03*
X200870000Y-74870000D03*
X200870000Y-77410000D03*
X200870000Y-79950000D03*
X200870000Y-82490000D03*
X200870000Y-85030000D03*
X200870000Y-87570000D03*
X200870000Y-90110000D03*
X200870000Y-92650000D03*
X200870000Y-95190000D03*
X200870000Y-97730000D03*
X200870000Y-100270000D03*
X200870000Y-102810000D03*
X200870000Y-105350000D03*
X200870000Y-107890000D03*
X200870000Y-110430000D03*
X200870000Y-112970000D03*
X200870000Y-115510000D03*
%TD*%
D30*
%TO.C,C3*%
X217746375Y-99825197D03*
X218425197Y-99146375D03*
%TD*%
%TO.C,C5*%
X214253482Y-85832304D03*
X214932304Y-85153482D03*
%TD*%
M02*
