M48
; DRILL file {KiCad 9.0.7} date 2026-03-03T00:35:53+0300
; FORMAT={-:-/ absolute / metric / decimal}
; #@! TF.CreationDate,2026-03-03T00:35:53+03:00
; #@! TF.GenerationSoftware,Kicad,Pcbnew,9.0.7
; #@! TF.FileFunction,Plated,1,2,PTH
FMAT,2
METRIC
; #@! TA.AperFunction,Plated,PTH,ViaDrill
T1C0.300
; #@! TA.AperFunction,Plated,PTH,ComponentDrill
T2C0.600
; #@! TA.AperFunction,Plated,PTH,ComponentDrill
T3C1.000
%
G90
G05
T1
X207.7Y-97.4
X207.8Y-92.0
X212.4Y-92.1
X220.6Y-85.2
X221.2Y-96.4
X221.3Y-107.2
X223.9Y-85.2
X226.4Y-96.5
T3
X200.87Y-67.25
X200.87Y-69.79
X200.87Y-72.33
X200.87Y-74.87
X200.87Y-77.41
X200.87Y-79.95
X200.87Y-82.49
X200.87Y-85.03
X200.87Y-87.57
X200.87Y-90.11
X200.87Y-92.65
X200.87Y-95.19
X200.87Y-97.73
X200.87Y-100.27
X200.87Y-102.81
X200.87Y-105.35
X200.87Y-107.89
X200.87Y-110.43
X200.87Y-112.97
X200.87Y-115.51
X210.76Y-120.1
X213.3Y-120.1
X215.84Y-120.1
X225.63Y-67.25
X225.63Y-69.79
X225.63Y-72.33
X225.63Y-74.87
X225.63Y-77.41
X225.63Y-79.95
X225.63Y-82.49
X225.63Y-85.03
X225.63Y-87.57
X225.63Y-90.11
X225.63Y-92.65
X225.63Y-95.19
X225.63Y-97.73
X225.63Y-100.27
X225.63Y-102.81
X225.63Y-105.35
X225.63Y-107.89
X225.63Y-110.43
X225.63Y-112.97
X225.63Y-115.51
T2
G00X208.93Y-69.25
M15
G01X208.93Y-68.65
M16
G05
G00X208.93Y-73.68
M15
G01X208.93Y-72.58
M16
G05
G00X217.57Y-69.25
M15
G01X217.57Y-68.65
M16
G05
G00X217.57Y-73.68
M15
G01X217.57Y-72.58
M16
G05
M30
