%TF.GenerationSoftware,KiCad,Pcbnew,9.0.7*%
%TF.CreationDate,2026-03-03T00:35:34+03:00*%
%TF.ProjectId,kareems rp2040,6b617265-656d-4732-9072-70323034302e,rev?*%
%TF.SameCoordinates,Original*%
%TF.FileFunction,Copper,L2,Bot*%
%TF.FilePolarity,Positive*%
%FSLAX46Y46*%
G04 Gerber Fmt 4.6, Leading zero omitted, Abs format (unit mm)*
G04 Created by KiCad (PCBNEW 9.0.7) date 2026-03-03 00:35:34*
%MOMM*%
%LPD*%
G01*
G04 APERTURE LIST*
%TA.AperFunction,ComponentPad*%
%ADD10C,1.700000*%
%TD*%
%TA.AperFunction,ComponentPad*%
%ADD11R,1.700000X1.700000*%
%TD*%
%TA.AperFunction,HeatsinkPad*%
%ADD12O,1.000000X2.100000*%
%TD*%
%TA.AperFunction,HeatsinkPad*%
%ADD13O,1.000000X1.600000*%
%TD*%
%TA.AperFunction,ViaPad*%
%ADD14C,0.600000*%
%TD*%
%TA.AperFunction,Conductor*%
%ADD15C,0.152400*%
%TD*%
G04 APERTURE END LIST*
D10*
%TO.P,J3,20,Pin_20*%
%TO.N,GPIO16*%
X225630000Y-115510000D03*
%TO.P,J3,19,Pin_19*%
%TO.N,GPIO17*%
X225630000Y-112970000D03*
%TO.P,J3,18,Pin_18*%
%TO.N,GND*%
X225630000Y-110430000D03*
%TO.P,J3,17,Pin_17*%
%TO.N,GPIO18*%
X225630000Y-107890000D03*
%TO.P,J3,16,Pin_16*%
%TO.N,GPIO19*%
X225630000Y-105350000D03*
%TO.P,J3,15,Pin_15*%
%TO.N,GPIO20*%
X225630000Y-102810000D03*
%TO.P,J3,14,Pin_14*%
%TO.N,GPIO21*%
X225630000Y-100270000D03*
%TO.P,J3,13,Pin_13*%
%TO.N,GND*%
X225630000Y-97730000D03*
%TO.P,J3,12,Pin_12*%
%TO.N,GPIO22*%
X225630000Y-95190000D03*
%TO.P,J3,11,Pin_11*%
%TO.N,RUN*%
X225630000Y-92650000D03*
%TO.P,J3,10,Pin_10*%
%TO.N,GPIO23*%
X225630000Y-90110000D03*
%TO.P,J3,9,Pin_9*%
%TO.N,GPIO24*%
X225630000Y-87570000D03*
%TO.P,J3,8,Pin_8*%
%TO.N,GND*%
X225630000Y-85030000D03*
%TO.P,J3,7,Pin_7*%
%TO.N,GPIO26_ACD0*%
X225630000Y-82490000D03*
%TO.P,J3,6,Pin_6*%
%TO.N,GPIO27_ACD1*%
X225630000Y-79950000D03*
%TO.P,J3,5,Pin_5*%
%TO.N,+3.3V*%
X225630000Y-77410000D03*
%TO.P,J3,4,Pin_4*%
%TO.N,GPIO28_ACD2*%
X225630000Y-74870000D03*
%TO.P,J3,3,Pin_3*%
%TO.N,GND*%
X225630000Y-72330000D03*
%TO.P,J3,2,Pin_2*%
%TO.N,GPIO29_ACD3*%
X225630000Y-69790000D03*
D11*
%TO.P,J3,1,Pin_1*%
%TO.N,VBUS*%
X225630000Y-67250000D03*
%TD*%
D12*
%TO.P,J1,S1,SHIELD*%
%TO.N,GND*%
X217570000Y-73130000D03*
D13*
X217570000Y-68950000D03*
D12*
X208930000Y-73130000D03*
D13*
X208930000Y-68950000D03*
%TD*%
D11*
%TO.P,J4,1,Pin_1*%
%TO.N,SWCLK*%
X210760000Y-120100000D03*
D10*
%TO.P,J4,2,Pin_2*%
%TO.N,GND*%
X213300000Y-120100000D03*
%TO.P,J4,3,Pin_3*%
%TO.N,SWD*%
X215840000Y-120100000D03*
%TD*%
D11*
%TO.P,J2,1,Pin_1*%
%TO.N,GPIO0*%
X200870000Y-67250000D03*
D10*
%TO.P,J2,2,Pin_2*%
%TO.N,GPIO1*%
X200870000Y-69790000D03*
%TO.P,J2,3,Pin_3*%
%TO.N,GND*%
X200870000Y-72330000D03*
%TO.P,J2,4,Pin_4*%
%TO.N,GPIO2*%
X200870000Y-74870000D03*
%TO.P,J2,5,Pin_5*%
%TO.N,GPIO3*%
X200870000Y-77410000D03*
%TO.P,J2,6,Pin_6*%
%TO.N,GPIO4*%
X200870000Y-79950000D03*
%TO.P,J2,7,Pin_7*%
%TO.N,GPIO5*%
X200870000Y-82490000D03*
%TO.P,J2,8,Pin_8*%
%TO.N,GND*%
X200870000Y-85030000D03*
%TO.P,J2,9,Pin_9*%
%TO.N,GPIO6*%
X200870000Y-87570000D03*
%TO.P,J2,10,Pin_10*%
%TO.N,GPIO7*%
X200870000Y-90110000D03*
%TO.P,J2,11,Pin_11*%
%TO.N,GPIO8*%
X200870000Y-92650000D03*
%TO.P,J2,12,Pin_12*%
%TO.N,GPIO9*%
X200870000Y-95190000D03*
%TO.P,J2,13,Pin_13*%
%TO.N,GND*%
X200870000Y-97730000D03*
%TO.P,J2,14,Pin_14*%
%TO.N,GPIO10*%
X200870000Y-100270000D03*
%TO.P,J2,15,Pin_15*%
%TO.N,GPIO11*%
X200870000Y-102810000D03*
%TO.P,J2,16,Pin_16*%
%TO.N,GPIO12*%
X200870000Y-105350000D03*
%TO.P,J2,17,Pin_17*%
%TO.N,GPIO13*%
X200870000Y-107890000D03*
%TO.P,J2,18,Pin_18*%
%TO.N,GND*%
X200870000Y-110430000D03*
%TO.P,J2,19,Pin_19*%
%TO.N,GPIO14*%
X200870000Y-112970000D03*
%TO.P,J2,20,Pin_20*%
%TO.N,GPIO15*%
X200870000Y-115510000D03*
%TD*%
D14*
%TO.N,GND*%
X220600000Y-85200000D03*
X207700000Y-97400000D03*
X223900000Y-85200000D03*
X207800000Y-92000000D03*
X212400000Y-92100000D03*
X221200000Y-96400000D03*
X226400000Y-96500000D03*
X221300000Y-107200000D03*
%TD*%
D15*
%TO.N,GND*%
X225630000Y-85030000D02*
X224479000Y-83879000D01*
X224479000Y-98881000D02*
X225630000Y-97730000D01*
X221300000Y-107200000D02*
X223300000Y-109200000D01*
X217570000Y-68950000D02*
X208930000Y-68950000D01*
X217570000Y-68950000D02*
X217570000Y-73130000D01*
X202021000Y-83879000D02*
X200870000Y-85030000D01*
X224400000Y-109200000D02*
X225630000Y-110430000D01*
X200870000Y-110430000D02*
X203630000Y-110430000D01*
X224479000Y-73481000D02*
X225630000Y-72330000D01*
X224479000Y-109279000D02*
X224479000Y-98881000D01*
X226300000Y-96400000D02*
X226400000Y-96500000D01*
X225630000Y-72330000D02*
X222250000Y-68950000D01*
X222970000Y-110430000D02*
X225630000Y-110430000D01*
X224479000Y-96579000D02*
X224479000Y-86181000D01*
X223900000Y-85200000D02*
X220600000Y-85200000D01*
X222250000Y-68950000D02*
X217570000Y-68950000D01*
X223300000Y-109200000D02*
X224400000Y-109200000D01*
X200870000Y-72330000D02*
X208130000Y-72330000D01*
X208930000Y-68950000D02*
X208930000Y-73130000D01*
X221300000Y-96500000D02*
X221200000Y-96400000D01*
X202021000Y-98881000D02*
X202021000Y-109279000D01*
X224479000Y-86181000D02*
X225630000Y-85030000D01*
X207800000Y-97300000D02*
X207700000Y-97400000D01*
X212300000Y-92000000D02*
X212400000Y-92100000D01*
X202021000Y-96579000D02*
X200870000Y-97730000D01*
X225630000Y-97730000D02*
X224479000Y-96579000D01*
X207800000Y-92000000D02*
X207800000Y-97300000D01*
X202021000Y-86181000D02*
X202021000Y-96579000D01*
X225630000Y-110430000D02*
X224479000Y-109279000D01*
X221300000Y-107200000D02*
X221300000Y-96500000D01*
X213300000Y-120100000D02*
X222970000Y-110430000D01*
X224479000Y-83879000D02*
X224479000Y-73481000D01*
X200870000Y-85030000D02*
X202021000Y-86181000D01*
X208130000Y-72330000D02*
X208930000Y-73130000D01*
X207800000Y-92000000D02*
X212300000Y-92000000D01*
X200870000Y-72330000D02*
X202021000Y-73481000D01*
X203630000Y-110430000D02*
X213300000Y-120100000D01*
X200870000Y-97730000D02*
X202021000Y-98881000D01*
X202021000Y-73481000D02*
X202021000Y-83879000D01*
X202021000Y-109279000D02*
X200870000Y-110430000D01*
X221200000Y-96400000D02*
X226300000Y-96400000D01*
%TD*%
M02*
