%TF.GenerationSoftware,KiCad,Pcbnew,9.0.7*%
%TF.CreationDate,2026-03-03T00:35:53+03:00*%
%TF.ProjectId,kareems rp2040,6b617265-656d-4732-9072-70323034302e,rev?*%
%TF.SameCoordinates,Original*%
%TF.FileFunction,Drillmap*%
%TF.FilePolarity,Positive*%
%FSLAX45Y45*%
G04 Gerber Fmt 4.5, Leading zero omitted, Abs format (unit mm)*
G04 Created by KiCad (PCBNEW 9.0.7) date 2026-03-03 00:35:53*
%MOMM*%
%LPD*%
G01*
G04 APERTURE LIST*
%ADD10C,0.050000*%
%ADD11C,0.200000*%
%ADD12C,0.100000*%
G04 APERTURE END LIST*
D10*
X19875000Y-6525000D02*
X22775000Y-6525000D01*
X22775000Y-12225000D01*
X19875000Y-12225000D01*
X19875000Y-6525000D01*
D11*
D12*
X21003500Y-7227500D02*
X21068500Y-7292500D01*
X21068500Y-7227500D02*
X21003500Y-7292500D01*
X21581500Y-7227500D02*
X21646500Y-7292500D01*
X21646500Y-7227500D02*
X21581500Y-7292500D01*
D11*
X20133277Y-12538984D02*
X20133277Y-12338984D01*
X20133277Y-12338984D02*
X20180896Y-12338984D01*
X20180896Y-12338984D02*
X20209467Y-12348508D01*
X20209467Y-12348508D02*
X20228515Y-12367555D01*
X20228515Y-12367555D02*
X20238039Y-12386603D01*
X20238039Y-12386603D02*
X20247563Y-12424698D01*
X20247563Y-12424698D02*
X20247563Y-12453269D01*
X20247563Y-12453269D02*
X20238039Y-12491365D01*
X20238039Y-12491365D02*
X20228515Y-12510412D01*
X20228515Y-12510412D02*
X20209467Y-12529460D01*
X20209467Y-12529460D02*
X20180896Y-12538984D01*
X20180896Y-12538984D02*
X20133277Y-12538984D01*
X20333277Y-12538984D02*
X20333277Y-12405650D01*
X20333277Y-12443746D02*
X20342801Y-12424698D01*
X20342801Y-12424698D02*
X20352324Y-12415174D01*
X20352324Y-12415174D02*
X20371372Y-12405650D01*
X20371372Y-12405650D02*
X20390420Y-12405650D01*
X20457086Y-12538984D02*
X20457086Y-12405650D01*
X20457086Y-12338984D02*
X20447563Y-12348508D01*
X20447563Y-12348508D02*
X20457086Y-12358031D01*
X20457086Y-12358031D02*
X20466610Y-12348508D01*
X20466610Y-12348508D02*
X20457086Y-12338984D01*
X20457086Y-12338984D02*
X20457086Y-12358031D01*
X20580896Y-12538984D02*
X20561848Y-12529460D01*
X20561848Y-12529460D02*
X20552324Y-12510412D01*
X20552324Y-12510412D02*
X20552324Y-12338984D01*
X20685658Y-12538984D02*
X20666610Y-12529460D01*
X20666610Y-12529460D02*
X20657086Y-12510412D01*
X20657086Y-12510412D02*
X20657086Y-12338984D01*
X20914229Y-12538984D02*
X20914229Y-12338984D01*
X20914229Y-12338984D02*
X20980896Y-12481841D01*
X20980896Y-12481841D02*
X21047563Y-12338984D01*
X21047563Y-12338984D02*
X21047563Y-12538984D01*
X21228515Y-12538984D02*
X21228515Y-12434222D01*
X21228515Y-12434222D02*
X21218991Y-12415174D01*
X21218991Y-12415174D02*
X21199944Y-12405650D01*
X21199944Y-12405650D02*
X21161848Y-12405650D01*
X21161848Y-12405650D02*
X21142801Y-12415174D01*
X21228515Y-12529460D02*
X21209467Y-12538984D01*
X21209467Y-12538984D02*
X21161848Y-12538984D01*
X21161848Y-12538984D02*
X21142801Y-12529460D01*
X21142801Y-12529460D02*
X21133277Y-12510412D01*
X21133277Y-12510412D02*
X21133277Y-12491365D01*
X21133277Y-12491365D02*
X21142801Y-12472317D01*
X21142801Y-12472317D02*
X21161848Y-12462793D01*
X21161848Y-12462793D02*
X21209467Y-12462793D01*
X21209467Y-12462793D02*
X21228515Y-12453269D01*
X21323753Y-12405650D02*
X21323753Y-12605650D01*
X21323753Y-12415174D02*
X21342801Y-12405650D01*
X21342801Y-12405650D02*
X21380896Y-12405650D01*
X21380896Y-12405650D02*
X21399944Y-12415174D01*
X21399944Y-12415174D02*
X21409467Y-12424698D01*
X21409467Y-12424698D02*
X21418991Y-12443746D01*
X21418991Y-12443746D02*
X21418991Y-12500888D01*
X21418991Y-12500888D02*
X21409467Y-12519936D01*
X21409467Y-12519936D02*
X21399944Y-12529460D01*
X21399944Y-12529460D02*
X21380896Y-12538984D01*
X21380896Y-12538984D02*
X21342801Y-12538984D01*
X21342801Y-12538984D02*
X21323753Y-12529460D01*
X21504705Y-12519936D02*
X21514229Y-12529460D01*
X21514229Y-12529460D02*
X21504705Y-12538984D01*
X21504705Y-12538984D02*
X21495182Y-12529460D01*
X21495182Y-12529460D02*
X21504705Y-12519936D01*
X21504705Y-12519936D02*
X21504705Y-12538984D01*
X21504705Y-12415174D02*
X21514229Y-12424698D01*
X21514229Y-12424698D02*
X21504705Y-12434222D01*
X21504705Y-12434222D02*
X21495182Y-12424698D01*
X21495182Y-12424698D02*
X21504705Y-12415174D01*
X21504705Y-12415174D02*
X21504705Y-12434222D01*
D12*
X19807500Y-12835000D02*
X19872500Y-12900000D01*
X19872500Y-12835000D02*
X19807500Y-12900000D01*
D11*
X20171372Y-12758984D02*
X20190420Y-12758984D01*
X20190420Y-12758984D02*
X20209467Y-12768508D01*
X20209467Y-12768508D02*
X20218991Y-12778031D01*
X20218991Y-12778031D02*
X20228515Y-12797079D01*
X20228515Y-12797079D02*
X20238039Y-12835174D01*
X20238039Y-12835174D02*
X20238039Y-12882793D01*
X20238039Y-12882793D02*
X20228515Y-12920888D01*
X20228515Y-12920888D02*
X20218991Y-12939936D01*
X20218991Y-12939936D02*
X20209467Y-12949460D01*
X20209467Y-12949460D02*
X20190420Y-12958984D01*
X20190420Y-12958984D02*
X20171372Y-12958984D01*
X20171372Y-12958984D02*
X20152324Y-12949460D01*
X20152324Y-12949460D02*
X20142801Y-12939936D01*
X20142801Y-12939936D02*
X20133277Y-12920888D01*
X20133277Y-12920888D02*
X20123753Y-12882793D01*
X20123753Y-12882793D02*
X20123753Y-12835174D01*
X20123753Y-12835174D02*
X20133277Y-12797079D01*
X20133277Y-12797079D02*
X20142801Y-12778031D01*
X20142801Y-12778031D02*
X20152324Y-12768508D01*
X20152324Y-12768508D02*
X20171372Y-12758984D01*
X20323753Y-12939936D02*
X20333277Y-12949460D01*
X20333277Y-12949460D02*
X20323753Y-12958984D01*
X20323753Y-12958984D02*
X20314229Y-12949460D01*
X20314229Y-12949460D02*
X20323753Y-12939936D01*
X20323753Y-12939936D02*
X20323753Y-12958984D01*
X20504705Y-12758984D02*
X20466610Y-12758984D01*
X20466610Y-12758984D02*
X20447563Y-12768508D01*
X20447563Y-12768508D02*
X20438039Y-12778031D01*
X20438039Y-12778031D02*
X20418991Y-12806603D01*
X20418991Y-12806603D02*
X20409467Y-12844698D01*
X20409467Y-12844698D02*
X20409467Y-12920888D01*
X20409467Y-12920888D02*
X20418991Y-12939936D01*
X20418991Y-12939936D02*
X20428515Y-12949460D01*
X20428515Y-12949460D02*
X20447563Y-12958984D01*
X20447563Y-12958984D02*
X20485658Y-12958984D01*
X20485658Y-12958984D02*
X20504705Y-12949460D01*
X20504705Y-12949460D02*
X20514229Y-12939936D01*
X20514229Y-12939936D02*
X20523753Y-12920888D01*
X20523753Y-12920888D02*
X20523753Y-12873269D01*
X20523753Y-12873269D02*
X20514229Y-12854222D01*
X20514229Y-12854222D02*
X20504705Y-12844698D01*
X20504705Y-12844698D02*
X20485658Y-12835174D01*
X20485658Y-12835174D02*
X20447563Y-12835174D01*
X20447563Y-12835174D02*
X20428515Y-12844698D01*
X20428515Y-12844698D02*
X20418991Y-12854222D01*
X20418991Y-12854222D02*
X20409467Y-12873269D01*
X20704705Y-12758984D02*
X20609467Y-12758984D01*
X20609467Y-12758984D02*
X20599944Y-12854222D01*
X20599944Y-12854222D02*
X20609467Y-12844698D01*
X20609467Y-12844698D02*
X20628515Y-12835174D01*
X20628515Y-12835174D02*
X20676134Y-12835174D01*
X20676134Y-12835174D02*
X20695182Y-12844698D01*
X20695182Y-12844698D02*
X20704705Y-12854222D01*
X20704705Y-12854222D02*
X20714229Y-12873269D01*
X20714229Y-12873269D02*
X20714229Y-12920888D01*
X20714229Y-12920888D02*
X20704705Y-12939936D01*
X20704705Y-12939936D02*
X20695182Y-12949460D01*
X20695182Y-12949460D02*
X20676134Y-12958984D01*
X20676134Y-12958984D02*
X20628515Y-12958984D01*
X20628515Y-12958984D02*
X20609467Y-12949460D01*
X20609467Y-12949460D02*
X20599944Y-12939936D01*
X20838039Y-12758984D02*
X20857086Y-12758984D01*
X20857086Y-12758984D02*
X20876134Y-12768508D01*
X20876134Y-12768508D02*
X20885658Y-12778031D01*
X20885658Y-12778031D02*
X20895182Y-12797079D01*
X20895182Y-12797079D02*
X20904705Y-12835174D01*
X20904705Y-12835174D02*
X20904705Y-12882793D01*
X20904705Y-12882793D02*
X20895182Y-12920888D01*
X20895182Y-12920888D02*
X20885658Y-12939936D01*
X20885658Y-12939936D02*
X20876134Y-12949460D01*
X20876134Y-12949460D02*
X20857086Y-12958984D01*
X20857086Y-12958984D02*
X20838039Y-12958984D01*
X20838039Y-12958984D02*
X20818991Y-12949460D01*
X20818991Y-12949460D02*
X20809467Y-12939936D01*
X20809467Y-12939936D02*
X20799944Y-12920888D01*
X20799944Y-12920888D02*
X20790420Y-12882793D01*
X20790420Y-12882793D02*
X20790420Y-12835174D01*
X20790420Y-12835174D02*
X20799944Y-12797079D01*
X20799944Y-12797079D02*
X20809467Y-12778031D01*
X20809467Y-12778031D02*
X20818991Y-12768508D01*
X20818991Y-12768508D02*
X20838039Y-12758984D01*
X20990420Y-12958984D02*
X20990420Y-12825650D01*
X20990420Y-12844698D02*
X20999944Y-12835174D01*
X20999944Y-12835174D02*
X21018991Y-12825650D01*
X21018991Y-12825650D02*
X21047563Y-12825650D01*
X21047563Y-12825650D02*
X21066610Y-12835174D01*
X21066610Y-12835174D02*
X21076134Y-12854222D01*
X21076134Y-12854222D02*
X21076134Y-12958984D01*
X21076134Y-12854222D02*
X21085658Y-12835174D01*
X21085658Y-12835174D02*
X21104705Y-12825650D01*
X21104705Y-12825650D02*
X21133277Y-12825650D01*
X21133277Y-12825650D02*
X21152325Y-12835174D01*
X21152325Y-12835174D02*
X21161848Y-12854222D01*
X21161848Y-12854222D02*
X21161848Y-12958984D01*
X21257086Y-12958984D02*
X21257086Y-12825650D01*
X21257086Y-12844698D02*
X21266610Y-12835174D01*
X21266610Y-12835174D02*
X21285658Y-12825650D01*
X21285658Y-12825650D02*
X21314229Y-12825650D01*
X21314229Y-12825650D02*
X21333277Y-12835174D01*
X21333277Y-12835174D02*
X21342801Y-12854222D01*
X21342801Y-12854222D02*
X21342801Y-12958984D01*
X21342801Y-12854222D02*
X21352325Y-12835174D01*
X21352325Y-12835174D02*
X21371372Y-12825650D01*
X21371372Y-12825650D02*
X21399944Y-12825650D01*
X21399944Y-12825650D02*
X21418991Y-12835174D01*
X21418991Y-12835174D02*
X21428515Y-12854222D01*
X21428515Y-12854222D02*
X21428515Y-12958984D01*
X21818991Y-12749460D02*
X21647563Y-13006603D01*
X22076134Y-12758984D02*
X22095182Y-12758984D01*
X22095182Y-12758984D02*
X22114229Y-12768508D01*
X22114229Y-12768508D02*
X22123753Y-12778031D01*
X22123753Y-12778031D02*
X22133277Y-12797079D01*
X22133277Y-12797079D02*
X22142801Y-12835174D01*
X22142801Y-12835174D02*
X22142801Y-12882793D01*
X22142801Y-12882793D02*
X22133277Y-12920888D01*
X22133277Y-12920888D02*
X22123753Y-12939936D01*
X22123753Y-12939936D02*
X22114229Y-12949460D01*
X22114229Y-12949460D02*
X22095182Y-12958984D01*
X22095182Y-12958984D02*
X22076134Y-12958984D01*
X22076134Y-12958984D02*
X22057087Y-12949460D01*
X22057087Y-12949460D02*
X22047563Y-12939936D01*
X22047563Y-12939936D02*
X22038039Y-12920888D01*
X22038039Y-12920888D02*
X22028515Y-12882793D01*
X22028515Y-12882793D02*
X22028515Y-12835174D01*
X22028515Y-12835174D02*
X22038039Y-12797079D01*
X22038039Y-12797079D02*
X22047563Y-12778031D01*
X22047563Y-12778031D02*
X22057087Y-12768508D01*
X22057087Y-12768508D02*
X22076134Y-12758984D01*
X22228515Y-12939936D02*
X22238039Y-12949460D01*
X22238039Y-12949460D02*
X22228515Y-12958984D01*
X22228515Y-12958984D02*
X22218991Y-12949460D01*
X22218991Y-12949460D02*
X22228515Y-12939936D01*
X22228515Y-12939936D02*
X22228515Y-12958984D01*
X22361848Y-12758984D02*
X22380896Y-12758984D01*
X22380896Y-12758984D02*
X22399944Y-12768508D01*
X22399944Y-12768508D02*
X22409467Y-12778031D01*
X22409467Y-12778031D02*
X22418991Y-12797079D01*
X22418991Y-12797079D02*
X22428515Y-12835174D01*
X22428515Y-12835174D02*
X22428515Y-12882793D01*
X22428515Y-12882793D02*
X22418991Y-12920888D01*
X22418991Y-12920888D02*
X22409467Y-12939936D01*
X22409467Y-12939936D02*
X22399944Y-12949460D01*
X22399944Y-12949460D02*
X22380896Y-12958984D01*
X22380896Y-12958984D02*
X22361848Y-12958984D01*
X22361848Y-12958984D02*
X22342801Y-12949460D01*
X22342801Y-12949460D02*
X22333277Y-12939936D01*
X22333277Y-12939936D02*
X22323753Y-12920888D01*
X22323753Y-12920888D02*
X22314229Y-12882793D01*
X22314229Y-12882793D02*
X22314229Y-12835174D01*
X22314229Y-12835174D02*
X22323753Y-12797079D01*
X22323753Y-12797079D02*
X22333277Y-12778031D01*
X22333277Y-12778031D02*
X22342801Y-12768508D01*
X22342801Y-12768508D02*
X22361848Y-12758984D01*
X22504706Y-12778031D02*
X22514229Y-12768508D01*
X22514229Y-12768508D02*
X22533277Y-12758984D01*
X22533277Y-12758984D02*
X22580896Y-12758984D01*
X22580896Y-12758984D02*
X22599944Y-12768508D01*
X22599944Y-12768508D02*
X22609467Y-12778031D01*
X22609467Y-12778031D02*
X22618991Y-12797079D01*
X22618991Y-12797079D02*
X22618991Y-12816127D01*
X22618991Y-12816127D02*
X22609467Y-12844698D01*
X22609467Y-12844698D02*
X22495182Y-12958984D01*
X22495182Y-12958984D02*
X22618991Y-12958984D01*
X22799944Y-12758984D02*
X22704706Y-12758984D01*
X22704706Y-12758984D02*
X22695182Y-12854222D01*
X22695182Y-12854222D02*
X22704706Y-12844698D01*
X22704706Y-12844698D02*
X22723753Y-12835174D01*
X22723753Y-12835174D02*
X22771372Y-12835174D01*
X22771372Y-12835174D02*
X22790420Y-12844698D01*
X22790420Y-12844698D02*
X22799944Y-12854222D01*
X22799944Y-12854222D02*
X22809467Y-12873269D01*
X22809467Y-12873269D02*
X22809467Y-12920888D01*
X22809467Y-12920888D02*
X22799944Y-12939936D01*
X22799944Y-12939936D02*
X22790420Y-12949460D01*
X22790420Y-12949460D02*
X22771372Y-12958984D01*
X22771372Y-12958984D02*
X22723753Y-12958984D01*
X22723753Y-12958984D02*
X22704706Y-12949460D01*
X22704706Y-12949460D02*
X22695182Y-12939936D01*
X22980896Y-12758984D02*
X22942801Y-12758984D01*
X22942801Y-12758984D02*
X22923753Y-12768508D01*
X22923753Y-12768508D02*
X22914229Y-12778031D01*
X22914229Y-12778031D02*
X22895182Y-12806603D01*
X22895182Y-12806603D02*
X22885658Y-12844698D01*
X22885658Y-12844698D02*
X22885658Y-12920888D01*
X22885658Y-12920888D02*
X22895182Y-12939936D01*
X22895182Y-12939936D02*
X22904706Y-12949460D01*
X22904706Y-12949460D02*
X22923753Y-12958984D01*
X22923753Y-12958984D02*
X22961848Y-12958984D01*
X22961848Y-12958984D02*
X22980896Y-12949460D01*
X22980896Y-12949460D02*
X22990420Y-12939936D01*
X22990420Y-12939936D02*
X22999944Y-12920888D01*
X22999944Y-12920888D02*
X22999944Y-12873269D01*
X22999944Y-12873269D02*
X22990420Y-12854222D01*
X22990420Y-12854222D02*
X22980896Y-12844698D01*
X22980896Y-12844698D02*
X22961848Y-12835174D01*
X22961848Y-12835174D02*
X22923753Y-12835174D01*
X22923753Y-12835174D02*
X22904706Y-12844698D01*
X22904706Y-12844698D02*
X22895182Y-12854222D01*
X22895182Y-12854222D02*
X22885658Y-12873269D01*
X23076134Y-12758984D02*
X23076134Y-12797079D01*
X23152325Y-12758984D02*
X23152325Y-12797079D01*
X23447563Y-13035174D02*
X23438039Y-13025650D01*
X23438039Y-13025650D02*
X23418991Y-12997079D01*
X23418991Y-12997079D02*
X23409468Y-12978031D01*
X23409468Y-12978031D02*
X23399944Y-12949460D01*
X23399944Y-12949460D02*
X23390420Y-12901841D01*
X23390420Y-12901841D02*
X23390420Y-12863746D01*
X23390420Y-12863746D02*
X23399944Y-12816127D01*
X23399944Y-12816127D02*
X23409468Y-12787555D01*
X23409468Y-12787555D02*
X23418991Y-12768508D01*
X23418991Y-12768508D02*
X23438039Y-12739936D01*
X23438039Y-12739936D02*
X23447563Y-12730412D01*
X23514229Y-12778031D02*
X23523753Y-12768508D01*
X23523753Y-12768508D02*
X23542801Y-12758984D01*
X23542801Y-12758984D02*
X23590420Y-12758984D01*
X23590420Y-12758984D02*
X23609468Y-12768508D01*
X23609468Y-12768508D02*
X23618991Y-12778031D01*
X23618991Y-12778031D02*
X23628515Y-12797079D01*
X23628515Y-12797079D02*
X23628515Y-12816127D01*
X23628515Y-12816127D02*
X23618991Y-12844698D01*
X23618991Y-12844698D02*
X23504706Y-12958984D01*
X23504706Y-12958984D02*
X23628515Y-12958984D01*
X23866610Y-12958984D02*
X23866610Y-12758984D01*
X23952325Y-12958984D02*
X23952325Y-12854222D01*
X23952325Y-12854222D02*
X23942801Y-12835174D01*
X23942801Y-12835174D02*
X23923753Y-12825650D01*
X23923753Y-12825650D02*
X23895182Y-12825650D01*
X23895182Y-12825650D02*
X23876134Y-12835174D01*
X23876134Y-12835174D02*
X23866610Y-12844698D01*
X24076134Y-12958984D02*
X24057087Y-12949460D01*
X24057087Y-12949460D02*
X24047563Y-12939936D01*
X24047563Y-12939936D02*
X24038039Y-12920888D01*
X24038039Y-12920888D02*
X24038039Y-12863746D01*
X24038039Y-12863746D02*
X24047563Y-12844698D01*
X24047563Y-12844698D02*
X24057087Y-12835174D01*
X24057087Y-12835174D02*
X24076134Y-12825650D01*
X24076134Y-12825650D02*
X24104706Y-12825650D01*
X24104706Y-12825650D02*
X24123753Y-12835174D01*
X24123753Y-12835174D02*
X24133277Y-12844698D01*
X24133277Y-12844698D02*
X24142801Y-12863746D01*
X24142801Y-12863746D02*
X24142801Y-12920888D01*
X24142801Y-12920888D02*
X24133277Y-12939936D01*
X24133277Y-12939936D02*
X24123753Y-12949460D01*
X24123753Y-12949460D02*
X24104706Y-12958984D01*
X24104706Y-12958984D02*
X24076134Y-12958984D01*
X24257087Y-12958984D02*
X24238039Y-12949460D01*
X24238039Y-12949460D02*
X24228515Y-12930412D01*
X24228515Y-12930412D02*
X24228515Y-12758984D01*
X24409468Y-12949460D02*
X24390420Y-12958984D01*
X24390420Y-12958984D02*
X24352325Y-12958984D01*
X24352325Y-12958984D02*
X24333277Y-12949460D01*
X24333277Y-12949460D02*
X24323753Y-12930412D01*
X24323753Y-12930412D02*
X24323753Y-12854222D01*
X24323753Y-12854222D02*
X24333277Y-12835174D01*
X24333277Y-12835174D02*
X24352325Y-12825650D01*
X24352325Y-12825650D02*
X24390420Y-12825650D01*
X24390420Y-12825650D02*
X24409468Y-12835174D01*
X24409468Y-12835174D02*
X24418991Y-12854222D01*
X24418991Y-12854222D02*
X24418991Y-12873269D01*
X24418991Y-12873269D02*
X24323753Y-12892317D01*
X24495182Y-12949460D02*
X24514230Y-12958984D01*
X24514230Y-12958984D02*
X24552325Y-12958984D01*
X24552325Y-12958984D02*
X24571372Y-12949460D01*
X24571372Y-12949460D02*
X24580896Y-12930412D01*
X24580896Y-12930412D02*
X24580896Y-12920888D01*
X24580896Y-12920888D02*
X24571372Y-12901841D01*
X24571372Y-12901841D02*
X24552325Y-12892317D01*
X24552325Y-12892317D02*
X24523753Y-12892317D01*
X24523753Y-12892317D02*
X24504706Y-12882793D01*
X24504706Y-12882793D02*
X24495182Y-12863746D01*
X24495182Y-12863746D02*
X24495182Y-12854222D01*
X24495182Y-12854222D02*
X24504706Y-12835174D01*
X24504706Y-12835174D02*
X24523753Y-12825650D01*
X24523753Y-12825650D02*
X24552325Y-12825650D01*
X24552325Y-12825650D02*
X24571372Y-12835174D01*
X24647563Y-13035174D02*
X24657087Y-13025650D01*
X24657087Y-13025650D02*
X24676134Y-12997079D01*
X24676134Y-12997079D02*
X24685658Y-12978031D01*
X24685658Y-12978031D02*
X24695182Y-12949460D01*
X24695182Y-12949460D02*
X24704706Y-12901841D01*
X24704706Y-12901841D02*
X24704706Y-12863746D01*
X24704706Y-12863746D02*
X24695182Y-12816127D01*
X24695182Y-12816127D02*
X24685658Y-12787555D01*
X24685658Y-12787555D02*
X24676134Y-12768508D01*
X24676134Y-12768508D02*
X24657087Y-12739936D01*
X24657087Y-12739936D02*
X24647563Y-12730412D01*
X25009468Y-13035174D02*
X24999944Y-13025650D01*
X24999944Y-13025650D02*
X24980896Y-12997079D01*
X24980896Y-12997079D02*
X24971372Y-12978031D01*
X24971372Y-12978031D02*
X24961849Y-12949460D01*
X24961849Y-12949460D02*
X24952325Y-12901841D01*
X24952325Y-12901841D02*
X24952325Y-12863746D01*
X24952325Y-12863746D02*
X24961849Y-12816127D01*
X24961849Y-12816127D02*
X24971372Y-12787555D01*
X24971372Y-12787555D02*
X24980896Y-12768508D01*
X24980896Y-12768508D02*
X24999944Y-12739936D01*
X24999944Y-12739936D02*
X25009468Y-12730412D01*
X25085658Y-12825650D02*
X25085658Y-12958984D01*
X25085658Y-12844698D02*
X25095182Y-12835174D01*
X25095182Y-12835174D02*
X25114230Y-12825650D01*
X25114230Y-12825650D02*
X25142801Y-12825650D01*
X25142801Y-12825650D02*
X25161849Y-12835174D01*
X25161849Y-12835174D02*
X25171372Y-12854222D01*
X25171372Y-12854222D02*
X25171372Y-12958984D01*
X25295182Y-12958984D02*
X25276134Y-12949460D01*
X25276134Y-12949460D02*
X25266611Y-12939936D01*
X25266611Y-12939936D02*
X25257087Y-12920888D01*
X25257087Y-12920888D02*
X25257087Y-12863746D01*
X25257087Y-12863746D02*
X25266611Y-12844698D01*
X25266611Y-12844698D02*
X25276134Y-12835174D01*
X25276134Y-12835174D02*
X25295182Y-12825650D01*
X25295182Y-12825650D02*
X25323753Y-12825650D01*
X25323753Y-12825650D02*
X25342801Y-12835174D01*
X25342801Y-12835174D02*
X25352325Y-12844698D01*
X25352325Y-12844698D02*
X25361849Y-12863746D01*
X25361849Y-12863746D02*
X25361849Y-12920888D01*
X25361849Y-12920888D02*
X25352325Y-12939936D01*
X25352325Y-12939936D02*
X25342801Y-12949460D01*
X25342801Y-12949460D02*
X25323753Y-12958984D01*
X25323753Y-12958984D02*
X25295182Y-12958984D01*
X25418992Y-12825650D02*
X25495182Y-12825650D01*
X25447563Y-12758984D02*
X25447563Y-12930412D01*
X25447563Y-12930412D02*
X25457087Y-12949460D01*
X25457087Y-12949460D02*
X25476134Y-12958984D01*
X25476134Y-12958984D02*
X25495182Y-12958984D01*
X25714230Y-12825650D02*
X25714230Y-13025650D01*
X25714230Y-12835174D02*
X25733277Y-12825650D01*
X25733277Y-12825650D02*
X25771373Y-12825650D01*
X25771373Y-12825650D02*
X25790420Y-12835174D01*
X25790420Y-12835174D02*
X25799944Y-12844698D01*
X25799944Y-12844698D02*
X25809468Y-12863746D01*
X25809468Y-12863746D02*
X25809468Y-12920888D01*
X25809468Y-12920888D02*
X25799944Y-12939936D01*
X25799944Y-12939936D02*
X25790420Y-12949460D01*
X25790420Y-12949460D02*
X25771373Y-12958984D01*
X25771373Y-12958984D02*
X25733277Y-12958984D01*
X25733277Y-12958984D02*
X25714230Y-12949460D01*
X25923753Y-12958984D02*
X25904706Y-12949460D01*
X25904706Y-12949460D02*
X25895182Y-12930412D01*
X25895182Y-12930412D02*
X25895182Y-12758984D01*
X26085658Y-12958984D02*
X26085658Y-12854222D01*
X26085658Y-12854222D02*
X26076134Y-12835174D01*
X26076134Y-12835174D02*
X26057087Y-12825650D01*
X26057087Y-12825650D02*
X26018992Y-12825650D01*
X26018992Y-12825650D02*
X25999944Y-12835174D01*
X26085658Y-12949460D02*
X26066611Y-12958984D01*
X26066611Y-12958984D02*
X26018992Y-12958984D01*
X26018992Y-12958984D02*
X25999944Y-12949460D01*
X25999944Y-12949460D02*
X25990420Y-12930412D01*
X25990420Y-12930412D02*
X25990420Y-12911365D01*
X25990420Y-12911365D02*
X25999944Y-12892317D01*
X25999944Y-12892317D02*
X26018992Y-12882793D01*
X26018992Y-12882793D02*
X26066611Y-12882793D01*
X26066611Y-12882793D02*
X26085658Y-12873269D01*
X26152325Y-12825650D02*
X26228515Y-12825650D01*
X26180896Y-12758984D02*
X26180896Y-12930412D01*
X26180896Y-12930412D02*
X26190420Y-12949460D01*
X26190420Y-12949460D02*
X26209468Y-12958984D01*
X26209468Y-12958984D02*
X26228515Y-12958984D01*
X26371373Y-12949460D02*
X26352325Y-12958984D01*
X26352325Y-12958984D02*
X26314230Y-12958984D01*
X26314230Y-12958984D02*
X26295182Y-12949460D01*
X26295182Y-12949460D02*
X26285658Y-12930412D01*
X26285658Y-12930412D02*
X26285658Y-12854222D01*
X26285658Y-12854222D02*
X26295182Y-12835174D01*
X26295182Y-12835174D02*
X26314230Y-12825650D01*
X26314230Y-12825650D02*
X26352325Y-12825650D01*
X26352325Y-12825650D02*
X26371373Y-12835174D01*
X26371373Y-12835174D02*
X26380896Y-12854222D01*
X26380896Y-12854222D02*
X26380896Y-12873269D01*
X26380896Y-12873269D02*
X26285658Y-12892317D01*
X26552325Y-12958984D02*
X26552325Y-12758984D01*
X26552325Y-12949460D02*
X26533277Y-12958984D01*
X26533277Y-12958984D02*
X26495182Y-12958984D01*
X26495182Y-12958984D02*
X26476134Y-12949460D01*
X26476134Y-12949460D02*
X26466611Y-12939936D01*
X26466611Y-12939936D02*
X26457087Y-12920888D01*
X26457087Y-12920888D02*
X26457087Y-12863746D01*
X26457087Y-12863746D02*
X26466611Y-12844698D01*
X26466611Y-12844698D02*
X26476134Y-12835174D01*
X26476134Y-12835174D02*
X26495182Y-12825650D01*
X26495182Y-12825650D02*
X26533277Y-12825650D01*
X26533277Y-12825650D02*
X26552325Y-12835174D01*
X26628515Y-13035174D02*
X26638039Y-13025650D01*
X26638039Y-13025650D02*
X26657087Y-12997079D01*
X26657087Y-12997079D02*
X26666611Y-12978031D01*
X26666611Y-12978031D02*
X26676134Y-12949460D01*
X26676134Y-12949460D02*
X26685658Y-12901841D01*
X26685658Y-12901841D02*
X26685658Y-12863746D01*
X26685658Y-12863746D02*
X26676134Y-12816127D01*
X26676134Y-12816127D02*
X26666611Y-12787555D01*
X26666611Y-12787555D02*
X26657087Y-12768508D01*
X26657087Y-12768508D02*
X26638039Y-12739936D01*
X26638039Y-12739936D02*
X26628515Y-12730412D01*
M02*
