%TF.GenerationSoftware,KiCad,Pcbnew,9.0.7*%
%TF.CreationDate,2026-03-03T00:35:34+03:00*%
%TF.ProjectId,kareems rp2040,6b617265-656d-4732-9072-70323034302e,rev?*%
%TF.SameCoordinates,Original*%
%TF.FileFunction,Copper,L1,Top*%
%TF.FilePolarity,Positive*%
%FSLAX46Y46*%
G04 Gerber Fmt 4.6, Leading zero omitted, Abs format (unit mm)*
G04 Created by KiCad (PCBNEW 9.0.7) date 2026-03-03 00:35:34*
%MOMM*%
%LPD*%
G01*
G04 APERTURE LIST*
G04 Aperture macros list*
%AMRoundRect*
0 Rectangle with rounded corners*
0 $1 Rounding radius*
0 $2 $3 $4 $5 $6 $7 $8 $9 X,Y pos of 4 corners*
0 Add a 4 corners polygon primitive as box body*
4,1,4,$2,$3,$4,$5,$6,$7,$8,$9,$2,$3,0*
0 Add four circle primitives for the rounded corners*
1,1,$1+$1,$2,$3*
1,1,$1+$1,$4,$5*
1,1,$1+$1,$6,$7*
1,1,$1+$1,$8,$9*
0 Add four rect primitives between the rounded corners*
20,1,$1+$1,$2,$3,$4,$5,0*
20,1,$1+$1,$4,$5,$6,$7,0*
20,1,$1+$1,$6,$7,$8,$9,0*
20,1,$1+$1,$8,$9,$2,$3,0*%
G04 Aperture macros list end*
%TA.AperFunction,ComponentPad*%
%ADD10C,1.700000*%
%TD*%
%TA.AperFunction,ComponentPad*%
%ADD11R,1.700000X1.700000*%
%TD*%
%TA.AperFunction,SMDPad,CuDef*%
%ADD12RoundRect,0.135000X-0.135000X-0.185000X0.135000X-0.185000X0.135000X0.185000X-0.135000X0.185000X0*%
%TD*%
%TA.AperFunction,SMDPad,CuDef*%
%ADD13RoundRect,0.140000X0.219203X0.021213X0.021213X0.219203X-0.219203X-0.021213X-0.021213X-0.219203X0*%
%TD*%
%TA.AperFunction,SMDPad,CuDef*%
%ADD14RoundRect,0.162500X-0.650000X-0.162500X0.650000X-0.162500X0.650000X0.162500X-0.650000X0.162500X0*%
%TD*%
%TA.AperFunction,SMDPad,CuDef*%
%ADD15RoundRect,0.140000X-0.219203X-0.021213X-0.021213X-0.219203X0.219203X0.021213X0.021213X0.219203X0*%
%TD*%
%TA.AperFunction,SMDPad,CuDef*%
%ADD16RoundRect,0.050000X-0.387500X-0.050000X0.387500X-0.050000X0.387500X0.050000X-0.387500X0.050000X0*%
%TD*%
%TA.AperFunction,SMDPad,CuDef*%
%ADD17RoundRect,0.050000X-0.050000X-0.387500X0.050000X-0.387500X0.050000X0.387500X-0.050000X0.387500X0*%
%TD*%
%TA.AperFunction,HeatsinkPad*%
%ADD18R,3.200000X3.200000*%
%TD*%
%TA.AperFunction,SMDPad,CuDef*%
%ADD19RoundRect,0.135000X0.135000X0.185000X-0.135000X0.185000X-0.135000X-0.185000X0.135000X-0.185000X0*%
%TD*%
%TA.AperFunction,SMDPad,CuDef*%
%ADD20RoundRect,0.140000X0.140000X0.170000X-0.140000X0.170000X-0.140000X-0.170000X0.140000X-0.170000X0*%
%TD*%
%TA.AperFunction,SMDPad,CuDef*%
%ADD21RoundRect,0.225000X0.225000X0.250000X-0.225000X0.250000X-0.225000X-0.250000X0.225000X-0.250000X0*%
%TD*%
%TA.AperFunction,SMDPad,CuDef*%
%ADD22R,0.600000X1.450000*%
%TD*%
%TA.AperFunction,SMDPad,CuDef*%
%ADD23R,0.300000X1.450000*%
%TD*%
%TA.AperFunction,HeatsinkPad*%
%ADD24O,1.000000X2.100000*%
%TD*%
%TA.AperFunction,HeatsinkPad*%
%ADD25O,1.000000X1.600000*%
%TD*%
%TA.AperFunction,SMDPad,CuDef*%
%ADD26RoundRect,0.250000X-0.450000X-0.350000X0.450000X-0.350000X0.450000X0.350000X-0.450000X0.350000X0*%
%TD*%
%TA.AperFunction,SMDPad,CuDef*%
%ADD27RoundRect,0.225000X-0.225000X-0.250000X0.225000X-0.250000X0.225000X0.250000X-0.225000X0.250000X0*%
%TD*%
%TA.AperFunction,SMDPad,CuDef*%
%ADD28RoundRect,0.140000X-0.170000X0.140000X-0.170000X-0.140000X0.170000X-0.140000X0.170000X0.140000X0*%
%TD*%
%TA.AperFunction,SMDPad,CuDef*%
%ADD29RoundRect,0.140000X0.021213X-0.219203X0.219203X-0.021213X-0.021213X0.219203X-0.219203X0.021213X0*%
%TD*%
%TA.AperFunction,SMDPad,CuDef*%
%ADD30RoundRect,0.135000X-0.185000X0.135000X-0.185000X-0.135000X0.185000X-0.135000X0.185000X0.135000X0*%
%TD*%
%TA.AperFunction,SMDPad,CuDef*%
%ADD31RoundRect,0.150000X0.150000X-0.587500X0.150000X0.587500X-0.150000X0.587500X-0.150000X-0.587500X0*%
%TD*%
%TA.AperFunction,SMDPad,CuDef*%
%ADD32RoundRect,0.200000X-0.800000X0.200000X-0.800000X-0.200000X0.800000X-0.200000X0.800000X0.200000X0*%
%TD*%
%TA.AperFunction,ViaPad*%
%ADD33C,0.600000*%
%TD*%
%TA.AperFunction,Conductor*%
%ADD34C,0.152400*%
%TD*%
G04 APERTURE END LIST*
D10*
%TO.P,J3,20,Pin_20*%
%TO.N,GPIO16*%
X225630000Y-115510000D03*
%TO.P,J3,19,Pin_19*%
%TO.N,GPIO17*%
X225630000Y-112970000D03*
%TO.P,J3,18,Pin_18*%
%TO.N,GND*%
X225630000Y-110430000D03*
%TO.P,J3,17,Pin_17*%
%TO.N,GPIO18*%
X225630000Y-107890000D03*
%TO.P,J3,16,Pin_16*%
%TO.N,GPIO19*%
X225630000Y-105350000D03*
%TO.P,J3,15,Pin_15*%
%TO.N,GPIO20*%
X225630000Y-102810000D03*
%TO.P,J3,14,Pin_14*%
%TO.N,GPIO21*%
X225630000Y-100270000D03*
%TO.P,J3,13,Pin_13*%
%TO.N,GND*%
X225630000Y-97730000D03*
%TO.P,J3,12,Pin_12*%
%TO.N,GPIO22*%
X225630000Y-95190000D03*
%TO.P,J3,11,Pin_11*%
%TO.N,RUN*%
X225630000Y-92650000D03*
%TO.P,J3,10,Pin_10*%
%TO.N,GPIO23*%
X225630000Y-90110000D03*
%TO.P,J3,9,Pin_9*%
%TO.N,GPIO24*%
X225630000Y-87570000D03*
%TO.P,J3,8,Pin_8*%
%TO.N,GND*%
X225630000Y-85030000D03*
%TO.P,J3,7,Pin_7*%
%TO.N,GPIO26_ACD0*%
X225630000Y-82490000D03*
%TO.P,J3,6,Pin_6*%
%TO.N,GPIO27_ACD1*%
X225630000Y-79950000D03*
%TO.P,J3,5,Pin_5*%
%TO.N,+3.3V*%
X225630000Y-77410000D03*
%TO.P,J3,4,Pin_4*%
%TO.N,GPIO28_ACD2*%
X225630000Y-74870000D03*
%TO.P,J3,3,Pin_3*%
%TO.N,GND*%
X225630000Y-72330000D03*
%TO.P,J3,2,Pin_2*%
%TO.N,GPIO29_ACD3*%
X225630000Y-69790000D03*
D11*
%TO.P,J3,1,Pin_1*%
%TO.N,VBUS*%
X225630000Y-67250000D03*
%TD*%
D12*
%TO.P,R6,1*%
%TO.N,Net-(R6-Pad1)*%
X211790000Y-89500000D03*
%TO.P,R6,2*%
%TO.N,QSPI_SS*%
X212810000Y-89500000D03*
%TD*%
D13*
%TO.P,C10,1*%
%TO.N,+1V1*%
X207023116Y-112023116D03*
%TO.P,C10,2*%
%TO.N,GND*%
X206344294Y-111344294D03*
%TD*%
D14*
%TO.P,U2,1,~{CS}*%
%TO.N,QSPI_SS*%
X210112500Y-91595000D03*
%TO.P,U2,2,DO/IO_{1}*%
%TO.N,QSPI_SD1*%
X210112500Y-92865000D03*
%TO.P,U2,3,~{WP}/IO_{2}*%
%TO.N,QSPI_SD2*%
X210112500Y-94135000D03*
%TO.P,U2,4,GND*%
%TO.N,GND*%
X210112500Y-95405000D03*
%TO.P,U2,5,DI/IO_{0}*%
%TO.N,QSPI_SD0*%
X217287500Y-95405000D03*
%TO.P,U2,6,CLK*%
%TO.N,QSPI_SCLK*%
X217287500Y-94135000D03*
%TO.P,U2,7,~{HOLD}/~{RESET}/IO_{3}*%
%TO.N,QSPI_SD3*%
X217287500Y-92865000D03*
%TO.P,U2,8,VCC*%
%TO.N,+3.3V*%
X217287500Y-91595000D03*
%TD*%
D15*
%TO.P,C11,1*%
%TO.N,+1V1*%
X207631229Y-112631229D03*
%TO.P,C11,2*%
%TO.N,GND*%
X208310051Y-113310051D03*
%TD*%
D12*
%TO.P,R1,1*%
%TO.N,Net-(J1-CC1)*%
X216190000Y-75800000D03*
%TO.P,R1,2*%
%TO.N,GND*%
X217210000Y-75800000D03*
%TD*%
D16*
%TO.P,U1,1,IOVDD*%
%TO.N,+3.3V*%
X209825000Y-100700000D03*
%TO.P,U1,2,GPIO0*%
%TO.N,GPIO0*%
X209825000Y-101100000D03*
%TO.P,U1,3,GPIO1*%
%TO.N,GPIO1*%
X209825000Y-101500000D03*
%TO.P,U1,4,GPIO2*%
%TO.N,GPIO2*%
X209825000Y-101900000D03*
%TO.P,U1,5,GPIO3*%
%TO.N,GPIO3*%
X209825000Y-102300000D03*
%TO.P,U1,6,GPIO4*%
%TO.N,GPIO4*%
X209825000Y-102700000D03*
%TO.P,U1,7,GPIO5*%
%TO.N,GPIO5*%
X209825000Y-103100000D03*
%TO.P,U1,8,GPIO6*%
%TO.N,GPIO6*%
X209825000Y-103500000D03*
%TO.P,U1,9,GPIO7*%
%TO.N,GPIO7*%
X209825000Y-103900000D03*
%TO.P,U1,10,IOVDD*%
%TO.N,+3.3V*%
X209825000Y-104300000D03*
%TO.P,U1,11,GPIO8*%
%TO.N,GPIO8*%
X209825000Y-104700000D03*
%TO.P,U1,12,GPIO9*%
%TO.N,GPIO9*%
X209825000Y-105100000D03*
%TO.P,U1,13,GPIO10*%
%TO.N,GPIO10*%
X209825000Y-105500000D03*
%TO.P,U1,14,GPIO11*%
%TO.N,GPIO11*%
X209825000Y-105900000D03*
D17*
%TO.P,U1,15,GPIO12*%
%TO.N,GPIO12*%
X210662500Y-106737500D03*
%TO.P,U1,16,GPIO13*%
%TO.N,GPIO13*%
X211062500Y-106737500D03*
%TO.P,U1,17,GPIO14*%
%TO.N,GPIO14*%
X211462500Y-106737500D03*
%TO.P,U1,18,GPIO15*%
%TO.N,GPIO15*%
X211862500Y-106737500D03*
%TO.P,U1,19,TESTEN*%
%TO.N,GND*%
X212262500Y-106737500D03*
%TO.P,U1,20,XIN*%
%TO.N,XIN*%
X212662500Y-106737500D03*
%TO.P,U1,21,XOUT*%
%TO.N,XOUT*%
X213062500Y-106737500D03*
%TO.P,U1,22,IOVDD*%
%TO.N,+3.3V*%
X213462500Y-106737500D03*
%TO.P,U1,23,DVDD*%
%TO.N,+1V1*%
X213862500Y-106737500D03*
%TO.P,U1,24,SWCLK*%
%TO.N,SWCLK*%
X214262500Y-106737500D03*
%TO.P,U1,25,SWDIO*%
%TO.N,SWD*%
X214662500Y-106737500D03*
%TO.P,U1,26,RUN*%
%TO.N,RUN*%
X215062500Y-106737500D03*
%TO.P,U1,27,GPIO16*%
%TO.N,GPIO16*%
X215462500Y-106737500D03*
%TO.P,U1,28,GPIO17*%
%TO.N,GPIO17*%
X215862500Y-106737500D03*
D16*
%TO.P,U1,29,GPIO18*%
%TO.N,GPIO18*%
X216700000Y-105900000D03*
%TO.P,U1,30,GPIO19*%
%TO.N,GPIO19*%
X216700000Y-105500000D03*
%TO.P,U1,31,GPIO20*%
%TO.N,GPIO20*%
X216700000Y-105100000D03*
%TO.P,U1,32,GPIO21*%
%TO.N,GPIO21*%
X216700000Y-104700000D03*
%TO.P,U1,33,IOVDD*%
%TO.N,+3.3V*%
X216700000Y-104300000D03*
%TO.P,U1,34,GPIO22*%
%TO.N,GPIO22*%
X216700000Y-103900000D03*
%TO.P,U1,35,GPIO23*%
%TO.N,GPIO23*%
X216700000Y-103500000D03*
%TO.P,U1,36,GPIO24*%
%TO.N,GPIO24*%
X216700000Y-103100000D03*
%TO.P,U1,37,GPIO25*%
%TO.N,GPIO25*%
X216700000Y-102700000D03*
%TO.P,U1,38,GPIO26/ADC0*%
%TO.N,GPIO26_ACD0*%
X216700000Y-102300000D03*
%TO.P,U1,39,GPIO27/ADC1*%
%TO.N,GPIO27_ACD1*%
X216700000Y-101900000D03*
%TO.P,U1,40,GPIO28/ADC2*%
%TO.N,GPIO28_ACD2*%
X216700000Y-101500000D03*
%TO.P,U1,41,GPIO29/ADC3*%
%TO.N,GPIO29_ACD3*%
X216700000Y-101100000D03*
%TO.P,U1,42,IOVDD*%
%TO.N,+3.3V*%
X216700000Y-100700000D03*
D17*
%TO.P,U1,43,ADC_AVDD*%
X215862500Y-99862500D03*
%TO.P,U1,44,VREG_VIN*%
X215462500Y-99862500D03*
%TO.P,U1,45,VREG_VOUT*%
%TO.N,+1V1*%
X215062500Y-99862500D03*
%TO.P,U1,46,USB_DM*%
%TO.N,Net-(U1-USB_DM)*%
X214662500Y-99862500D03*
%TO.P,U1,47,USB_DP*%
%TO.N,Net-(U1-USB_DP)*%
X214262500Y-99862500D03*
%TO.P,U1,48,USB_VDD*%
%TO.N,+3.3V*%
X213862500Y-99862500D03*
%TO.P,U1,49,IOVDD*%
X213462500Y-99862500D03*
%TO.P,U1,50,DVDD*%
%TO.N,+1V1*%
X213062500Y-99862500D03*
%TO.P,U1,51,QSPI_SD3*%
%TO.N,QSPI_SD3*%
X212662500Y-99862500D03*
%TO.P,U1,52,QSPI_SCLK*%
%TO.N,QSPI_SCLK*%
X212262500Y-99862500D03*
%TO.P,U1,53,QSPI_SD0*%
%TO.N,QSPI_SD0*%
X211862500Y-99862500D03*
%TO.P,U1,54,QSPI_SD2*%
%TO.N,QSPI_SD2*%
X211462500Y-99862500D03*
%TO.P,U1,55,QSPI_SD1*%
%TO.N,QSPI_SD1*%
X211062500Y-99862500D03*
%TO.P,U1,56,~{QSPI_SS}*%
%TO.N,QSPI_SS*%
X210662500Y-99862500D03*
D18*
%TO.P,U1,57,GND*%
%TO.N,GND*%
X213262500Y-103300000D03*
%TD*%
D19*
%TO.P,R5,1*%
%TO.N,Net-(C16-Pad1)*%
X213510000Y-109300000D03*
%TO.P,R5,2*%
%TO.N,XOUT*%
X212490000Y-109300000D03*
%TD*%
D20*
%TO.P,C8,1*%
%TO.N,+3.3V*%
X209160000Y-98800000D03*
%TO.P,C8,2*%
%TO.N,GND*%
X208200000Y-98800000D03*
%TD*%
D21*
%TO.P,C14,1*%
%TO.N,VBUS*%
X215775000Y-78500000D03*
%TO.P,C14,2*%
%TO.N,GND*%
X214225000Y-78500000D03*
%TD*%
D22*
%TO.P,J1,A1,GND*%
%TO.N,GND*%
X216500000Y-74045000D03*
%TO.P,J1,A4,VBUS*%
%TO.N,VBUS*%
X215700000Y-74045000D03*
D23*
%TO.P,J1,A5,CC1*%
%TO.N,Net-(J1-CC1)*%
X214500000Y-74045000D03*
%TO.P,J1,A6,D+*%
%TO.N,USBD+*%
X213500000Y-74045000D03*
%TO.P,J1,A7,D-*%
%TO.N,USBD-*%
X213000000Y-74045000D03*
%TO.P,J1,A8*%
%TO.N,N/C*%
X212000000Y-74045000D03*
D22*
%TO.P,J1,A9,VBUS*%
%TO.N,VBUS*%
X210800000Y-74045000D03*
%TO.P,J1,A12,GND*%
%TO.N,GND*%
X210000000Y-74045000D03*
%TO.P,J1,B1,GND*%
X210000000Y-74045000D03*
%TO.P,J1,B4,VBUS*%
%TO.N,VBUS*%
X210800000Y-74045000D03*
D23*
%TO.P,J1,B5,CC2*%
%TO.N,Net-(J1-CC2)*%
X211500000Y-74045000D03*
%TO.P,J1,B6,D+*%
%TO.N,USBD+*%
X212500000Y-74045000D03*
%TO.P,J1,B7,D-*%
%TO.N,USBD-*%
X214000000Y-74045000D03*
%TO.P,J1,B8*%
%TO.N,N/C*%
X215000000Y-74045000D03*
D22*
%TO.P,J1,B9,VBUS*%
%TO.N,VBUS*%
X215700000Y-74045000D03*
%TO.P,J1,B12,GND*%
%TO.N,GND*%
X216500000Y-74045000D03*
D24*
%TO.P,J1,S1,SHIELD*%
X217570000Y-73130000D03*
D25*
X217570000Y-68950000D03*
D24*
X208930000Y-73130000D03*
D25*
X208930000Y-68950000D03*
%TD*%
D26*
%TO.P,Y1,1,1*%
%TO.N,Net-(C16-Pad1)*%
X211400000Y-112550000D03*
%TO.P,Y1,2,G*%
%TO.N,GND*%
X213600000Y-112550000D03*
%TO.P,Y1,3,3*%
%TO.N,XIN*%
X213600000Y-110850000D03*
%TO.P,Y1,4,G*%
%TO.N,GND*%
X211400000Y-110850000D03*
%TD*%
D11*
%TO.P,J4,1,Pin_1*%
%TO.N,SWCLK*%
X210760000Y-120100000D03*
D10*
%TO.P,J4,2,Pin_2*%
%TO.N,GND*%
X213300000Y-120100000D03*
%TO.P,J4,3,Pin_3*%
%TO.N,SWD*%
X215840000Y-120100000D03*
%TD*%
D27*
%TO.P,C13,1*%
%TO.N,+3.3V*%
X210425000Y-81000000D03*
%TO.P,C13,2*%
%TO.N,GND*%
X211975000Y-81000000D03*
%TD*%
D28*
%TO.P,C15,1*%
%TO.N,XIN*%
X209700000Y-110540000D03*
%TO.P,C15,2*%
%TO.N,GND*%
X209700000Y-111500000D03*
%TD*%
D29*
%TO.P,C7,1*%
%TO.N,+3.3V*%
X211560589Y-83039411D03*
%TO.P,C7,2*%
%TO.N,GND*%
X212239411Y-82360589D03*
%TD*%
%TO.P,C17,1*%
%TO.N,+3.3V*%
X213560589Y-85139411D03*
%TO.P,C17,2*%
%TO.N,GND*%
X214239411Y-84460589D03*
%TD*%
D30*
%TO.P,R2,1*%
%TO.N,Net-(J1-CC2)*%
X211600000Y-76200000D03*
%TO.P,R2,2*%
%TO.N,GND*%
X211600000Y-77220000D03*
%TD*%
D19*
%TO.P,R7,1*%
%TO.N,+3.3V*%
X215210000Y-89500000D03*
%TO.P,R7,2*%
%TO.N,QSPI_SS*%
X214190000Y-89500000D03*
%TD*%
D30*
%TO.P,R4,1*%
%TO.N,USBD+*%
X212800000Y-76290000D03*
%TO.P,R4,2*%
%TO.N,Net-(U1-USB_DP)*%
X212800000Y-77310000D03*
%TD*%
D20*
%TO.P,C9,1*%
%TO.N,+3.3V*%
X209000000Y-99800000D03*
%TO.P,C9,2*%
%TO.N,GND*%
X208040000Y-99800000D03*
%TD*%
D31*
%TO.P,U4,1,GND*%
%TO.N,GND*%
X216450000Y-81237500D03*
%TO.P,U4,2,VO*%
%TO.N,+3.3V*%
X218350000Y-81237500D03*
%TO.P,U4,3,VI*%
%TO.N,VBUS*%
X217400000Y-79362500D03*
%TD*%
D29*
%TO.P,C4,1*%
%TO.N,+3.3V*%
X212960589Y-84339411D03*
%TO.P,C4,2*%
%TO.N,GND*%
X213639411Y-83660589D03*
%TD*%
D28*
%TO.P,C16,1*%
%TO.N,Net-(C16-Pad1)*%
X215400000Y-111220000D03*
%TO.P,C16,2*%
%TO.N,GND*%
X215400000Y-112180000D03*
%TD*%
D32*
%TO.P,SW1,1,1*%
%TO.N,GND*%
X209600000Y-84700000D03*
%TO.P,SW1,2,2*%
%TO.N,Net-(R6-Pad1)*%
X209600000Y-88900000D03*
%TD*%
D13*
%TO.P,C12,1*%
%TO.N,+1V1*%
X209639411Y-114639411D03*
%TO.P,C12,2*%
%TO.N,GND*%
X208960589Y-113960589D03*
%TD*%
D29*
%TO.P,C1,1*%
%TO.N,+3.3V*%
X212260589Y-83739411D03*
%TO.P,C1,2*%
%TO.N,GND*%
X212939411Y-83060589D03*
%TD*%
%TO.P,C2,1*%
%TO.N,+3.3V*%
X219560589Y-98939411D03*
%TO.P,C2,2*%
%TO.N,GND*%
X220239411Y-98260589D03*
%TD*%
%TO.P,C6,1*%
%TO.N,+3.3V*%
X214960589Y-86539411D03*
%TO.P,C6,2*%
%TO.N,GND*%
X215639411Y-85860589D03*
%TD*%
D30*
%TO.P,R3,1*%
%TO.N,USBD-*%
X214300000Y-75690000D03*
%TO.P,R3,2*%
%TO.N,Net-(U1-USB_DM)*%
X214300000Y-76710000D03*
%TD*%
D11*
%TO.P,J2,1,Pin_1*%
%TO.N,GPIO0*%
X200870000Y-67250000D03*
D10*
%TO.P,J2,2,Pin_2*%
%TO.N,GPIO1*%
X200870000Y-69790000D03*
%TO.P,J2,3,Pin_3*%
%TO.N,GND*%
X200870000Y-72330000D03*
%TO.P,J2,4,Pin_4*%
%TO.N,GPIO2*%
X200870000Y-74870000D03*
%TO.P,J2,5,Pin_5*%
%TO.N,GPIO3*%
X200870000Y-77410000D03*
%TO.P,J2,6,Pin_6*%
%TO.N,GPIO4*%
X200870000Y-79950000D03*
%TO.P,J2,7,Pin_7*%
%TO.N,GPIO5*%
X200870000Y-82490000D03*
%TO.P,J2,8,Pin_8*%
%TO.N,GND*%
X200870000Y-85030000D03*
%TO.P,J2,9,Pin_9*%
%TO.N,GPIO6*%
X200870000Y-87570000D03*
%TO.P,J2,10,Pin_10*%
%TO.N,GPIO7*%
X200870000Y-90110000D03*
%TO.P,J2,11,Pin_11*%
%TO.N,GPIO8*%
X200870000Y-92650000D03*
%TO.P,J2,12,Pin_12*%
%TO.N,GPIO9*%
X200870000Y-95190000D03*
%TO.P,J2,13,Pin_13*%
%TO.N,GND*%
X200870000Y-97730000D03*
%TO.P,J2,14,Pin_14*%
%TO.N,GPIO10*%
X200870000Y-100270000D03*
%TO.P,J2,15,Pin_15*%
%TO.N,GPIO11*%
X200870000Y-102810000D03*
%TO.P,J2,16,Pin_16*%
%TO.N,GPIO12*%
X200870000Y-105350000D03*
%TO.P,J2,17,Pin_17*%
%TO.N,GPIO13*%
X200870000Y-107890000D03*
%TO.P,J2,18,Pin_18*%
%TO.N,GND*%
X200870000Y-110430000D03*
%TO.P,J2,19,Pin_19*%
%TO.N,GPIO14*%
X200870000Y-112970000D03*
%TO.P,J2,20,Pin_20*%
%TO.N,GPIO15*%
X200870000Y-115510000D03*
%TD*%
D29*
%TO.P,C3,1*%
%TO.N,+3.3V*%
X217746375Y-99825197D03*
%TO.P,C3,2*%
%TO.N,GND*%
X218425197Y-99146375D03*
%TD*%
%TO.P,C5,1*%
%TO.N,+3.3V*%
X214253482Y-85832304D03*
%TO.P,C5,2*%
%TO.N,GND*%
X214932304Y-85153482D03*
%TD*%
D33*
%TO.N,GND*%
X220600000Y-85200000D03*
X207700000Y-97400000D03*
X223900000Y-85200000D03*
X207800000Y-92000000D03*
X212400000Y-92100000D03*
X221200000Y-96400000D03*
X226400000Y-96500000D03*
X221300000Y-107200000D03*
%TD*%
D34*
%TO.N,*%
X215000000Y-73068000D02*
X214550000Y-72618000D01*
X214550000Y-72618000D02*
X212450000Y-72618000D01*
X212000000Y-74045000D02*
X212000000Y-73068000D01*
X215000000Y-74045000D02*
X215000000Y-73068000D01*
X212450000Y-72618000D02*
X212000000Y-73068000D01*
%TO.N,GND*%
X225460000Y-85200000D02*
X225630000Y-85030000D01*
X214225000Y-79012500D02*
X214225000Y-78500000D01*
X208200000Y-97900000D02*
X208200000Y-98800000D01*
X216450000Y-83174650D02*
X216450000Y-81237500D01*
X210924999Y-95405000D02*
X210112500Y-95405000D01*
X211400000Y-110850000D02*
X213100000Y-112550000D01*
X226400000Y-96500000D02*
X226400000Y-96960000D01*
X212262500Y-107337500D02*
X209641000Y-109959000D01*
X215639411Y-85760589D02*
X215639411Y-85860589D01*
X211975000Y-82096178D02*
X212939411Y-83060589D01*
X220600000Y-85200000D02*
X218475350Y-85200000D01*
X219310983Y-98260589D02*
X218425197Y-99146375D01*
X215400000Y-112180000D02*
X215400000Y-112793800D01*
X212262500Y-106737500D02*
X212262500Y-107337500D01*
X208960589Y-113960589D02*
X208310051Y-113310051D01*
X226400000Y-96960000D02*
X225630000Y-97730000D01*
X214508400Y-113685400D02*
X210717866Y-113685400D01*
X210717866Y-113685400D02*
X210432466Y-113400000D01*
X209100000Y-110900000D02*
X209700000Y-111500000D01*
X215400000Y-112793800D02*
X214508400Y-113685400D01*
X217210000Y-74755000D02*
X216500000Y-74045000D01*
X212262500Y-104300000D02*
X213262500Y-103300000D01*
X218475350Y-85200000D02*
X216450000Y-83174650D01*
X208200000Y-98800000D02*
X208200000Y-99640000D01*
X210432466Y-113400000D02*
X209521178Y-113400000D01*
X209521178Y-113400000D02*
X208960589Y-113960589D01*
X212400000Y-93929999D02*
X210924999Y-95405000D01*
X212400000Y-92100000D02*
X212400000Y-93929999D01*
X213100000Y-112550000D02*
X213600000Y-112550000D01*
X217210000Y-75800000D02*
X217210000Y-74755000D01*
X211975000Y-81000000D02*
X211975000Y-82096178D01*
X209000000Y-110900000D02*
X209100000Y-110900000D01*
X214510000Y-78500000D02*
X217210000Y-75800000D01*
X212262500Y-106737500D02*
X212262500Y-104300000D01*
X212939411Y-83060589D02*
X215639411Y-85760589D01*
X209000000Y-110302450D02*
X209000000Y-110900000D01*
X220239411Y-98260589D02*
X219310983Y-98260589D01*
X221200000Y-96400000D02*
X220239411Y-97360589D01*
X209641000Y-109959000D02*
X209343450Y-109959000D01*
X208200000Y-99640000D02*
X208040000Y-99800000D01*
X209343450Y-109959000D02*
X209000000Y-110302450D01*
X223900000Y-85200000D02*
X225460000Y-85200000D01*
X214225000Y-78500000D02*
X214510000Y-78500000D01*
X216500000Y-74045000D02*
X216655000Y-74045000D01*
X216450000Y-81237500D02*
X214225000Y-79012500D01*
X220239411Y-97360589D02*
X220239411Y-98260589D01*
X216655000Y-74045000D02*
X217570000Y-73130000D01*
X207700000Y-97400000D02*
X208200000Y-97900000D01*
%TO.N,+3.3V*%
X209000000Y-98960000D02*
X209160000Y-98800000D01*
X225630000Y-77410000D02*
X226781000Y-76259000D01*
X215210000Y-87529596D02*
X212840202Y-85159798D01*
X212840202Y-85159798D02*
X210633804Y-82953400D01*
X213560589Y-85139411D02*
X213560589Y-85039411D01*
X219155400Y-96076474D02*
X216862274Y-98369600D01*
X218257164Y-99800000D02*
X218266486Y-99809322D01*
X210425000Y-81000000D02*
X209562500Y-81000000D01*
X217574803Y-99825197D02*
X216700000Y-100700000D01*
X213560589Y-85039411D02*
X212260589Y-83739411D01*
X218735340Y-91595000D02*
X219155400Y-92015060D01*
X211560589Y-83039411D02*
X212260589Y-83739411D01*
X217746375Y-99825197D02*
X217771572Y-99800000D01*
X219580000Y-77600000D02*
X219580000Y-80007500D01*
X209000000Y-99800000D02*
X209000000Y-99875000D01*
X217287500Y-91595000D02*
X218735340Y-91595000D01*
X211560589Y-82135589D02*
X210425000Y-81000000D01*
X211560589Y-83039411D02*
X211560589Y-82135589D01*
X214198384Y-100700000D02*
X216700000Y-100700000D01*
X210633804Y-82953400D02*
X210353617Y-82953400D01*
X213862500Y-100300000D02*
X213462500Y-100700000D01*
X209562500Y-82162283D02*
X209562500Y-81000000D01*
X217287500Y-91595000D02*
X216475001Y-91595000D01*
X207900000Y-79047583D02*
X209852417Y-81000000D01*
X209852417Y-81000000D02*
X210425000Y-81000000D01*
X213862500Y-100364116D02*
X214198384Y-100700000D01*
X214253482Y-85832304D02*
X213421178Y-85000000D01*
X213862500Y-99862500D02*
X213862500Y-100364116D01*
X218690678Y-99809322D02*
X219560589Y-98939411D01*
X215210000Y-90329999D02*
X215210000Y-89500000D01*
X214960589Y-86539411D02*
X214253482Y-85832304D01*
X207900000Y-72510873D02*
X207900000Y-79047583D01*
X224601000Y-66099000D02*
X219580000Y-71120000D01*
X218038310Y-71449400D02*
X219580000Y-72991090D01*
X226781000Y-66099000D02*
X224601000Y-66099000D01*
X213862500Y-99060342D02*
X213862500Y-99862500D01*
X215210000Y-89500000D02*
X215210000Y-87529596D01*
X219580000Y-76600000D02*
X219580000Y-77600000D01*
X217771572Y-99800000D02*
X218257164Y-99800000D01*
X216862274Y-98369600D02*
X214553242Y-98369600D01*
X213462500Y-100700000D02*
X209825000Y-100700000D01*
X219155400Y-92015060D02*
X219155400Y-96076474D01*
X213862500Y-99862500D02*
X213862500Y-100300000D01*
X219580000Y-80007500D02*
X218350000Y-81237500D01*
X214553242Y-98369600D02*
X213862500Y-99060342D01*
X209000000Y-99875000D02*
X209825000Y-100700000D01*
X219580000Y-72991090D02*
X219580000Y-76600000D01*
X218266486Y-99809322D02*
X218690678Y-99809322D01*
X209000000Y-99800000D02*
X209000000Y-98960000D01*
X216475001Y-91595000D02*
X215210000Y-90329999D01*
X213000000Y-85000000D02*
X212840202Y-85159798D01*
X217746375Y-99825197D02*
X217574803Y-99825197D01*
X219580000Y-71120000D02*
X219580000Y-72991090D01*
X208961473Y-71449400D02*
X207900000Y-72510873D01*
X218038310Y-71449400D02*
X208961473Y-71449400D01*
X213421178Y-85000000D02*
X213000000Y-85000000D01*
X226781000Y-76259000D02*
X226781000Y-66099000D01*
X210353617Y-82953400D02*
X209562500Y-82162283D01*
%TO.N,+1V1*%
X210800000Y-114200000D02*
X210400000Y-113800000D01*
X211372934Y-114200000D02*
X210800000Y-114200000D01*
X213862500Y-106737500D02*
X213862500Y-108712160D01*
X207631229Y-113495315D02*
X207631229Y-112631229D01*
X210300000Y-113900000D02*
X210300000Y-113978822D01*
X211567134Y-114394200D02*
X211372934Y-114200000D01*
X213862500Y-108712160D02*
X216011000Y-110860660D01*
X214805800Y-114394200D02*
X211567134Y-114394200D01*
X210400000Y-113800000D02*
X210300000Y-113900000D01*
X209639411Y-114639411D02*
X208775325Y-114639411D01*
X207631229Y-112631229D02*
X207023116Y-112023116D01*
X216011000Y-110860660D02*
X216011000Y-113189000D01*
X210300000Y-113978822D02*
X209639411Y-114639411D01*
X208775325Y-114639411D02*
X207631229Y-113495315D01*
X216011000Y-113189000D02*
X214805800Y-114394200D01*
%TO.N,VBUS*%
X217891927Y-71802800D02*
X218347200Y-72258073D01*
X211703000Y-72264600D02*
X215422550Y-72264600D01*
X215422550Y-72264600D02*
X215487800Y-72329850D01*
X215700000Y-74045000D02*
X215487800Y-73832800D01*
X218143451Y-84301001D02*
X217400000Y-83557550D01*
X221399000Y-71481000D02*
X221399000Y-82718550D01*
X216014850Y-71802800D02*
X217891927Y-71802800D01*
X215487800Y-72329850D02*
X216014850Y-71802800D01*
X225630000Y-67250000D02*
X221399000Y-71481000D01*
X217400000Y-83557550D02*
X217400000Y-79362500D01*
X218347200Y-72258073D02*
X218347200Y-75927800D01*
X221399000Y-82718550D02*
X219816549Y-84301001D01*
X215487800Y-73832800D02*
X215487800Y-72329850D01*
X218347200Y-75927800D02*
X215775000Y-78500000D01*
X216537500Y-78500000D02*
X215775000Y-78500000D01*
X210800000Y-74045000D02*
X210800000Y-73167600D01*
X210800000Y-73167600D02*
X211703000Y-72264600D01*
X219816549Y-84301001D02*
X218143451Y-84301001D01*
X217400000Y-79362500D02*
X216537500Y-78500000D01*
%TO.N,XIN*%
X211400000Y-108833442D02*
X212662500Y-107570942D01*
X211400000Y-109972800D02*
X211400000Y-108833442D01*
X210647200Y-109972800D02*
X211400000Y-109972800D01*
X211400000Y-109972800D02*
X212625000Y-109972800D01*
X210647200Y-109972800D02*
X210080000Y-110540000D01*
X212662500Y-107570942D02*
X212662500Y-106737500D01*
X212625000Y-109972800D02*
X212662500Y-109935300D01*
X213577200Y-110850000D02*
X213600000Y-110850000D01*
X210080000Y-110540000D02*
X209700000Y-110540000D01*
X212662500Y-109935300D02*
X213577200Y-110850000D01*
%TO.N,Net-(C16-Pad1)*%
X215400000Y-111220000D02*
X214812800Y-111807200D01*
X213510000Y-109300000D02*
X213700000Y-109300000D01*
X214529600Y-113105584D02*
X214255584Y-113379600D01*
X214812800Y-111807200D02*
X214342384Y-111807200D01*
X214342384Y-111807200D02*
X214529600Y-111994416D01*
X214255584Y-113379600D02*
X212229600Y-113379600D01*
X212229600Y-113379600D02*
X211400000Y-112550000D01*
X213700000Y-109300000D02*
X215400000Y-111000000D01*
X215400000Y-111000000D02*
X215400000Y-111220000D01*
X214529600Y-111994416D02*
X214529600Y-113105584D01*
%TO.N,Net-(J1-CC2)*%
X211500000Y-76100000D02*
X211600000Y-76200000D01*
X211500000Y-74045000D02*
X211500000Y-76100000D01*
%TO.N,USBD-*%
X214000000Y-75200000D02*
X214000000Y-74045000D01*
X213000000Y-73068000D02*
X213049000Y-73019000D01*
X213049000Y-73019000D02*
X213951000Y-73019000D01*
X214300000Y-75500000D02*
X214000000Y-75200000D01*
X214300000Y-75690000D02*
X214300000Y-75500000D01*
X214000000Y-73068000D02*
X214000000Y-74045000D01*
X213000000Y-74045000D02*
X213000000Y-73068000D01*
X213951000Y-73019000D02*
X214000000Y-73068000D01*
%TO.N,USBD+*%
X213700000Y-75690000D02*
X213700000Y-75399784D01*
X213646600Y-75266600D02*
X213451000Y-75071000D01*
X213100000Y-76290000D02*
X213700000Y-75690000D01*
X213646600Y-75346383D02*
X213646600Y-75266600D01*
X213700000Y-75399784D02*
X213646600Y-75346383D01*
X212720000Y-75071000D02*
X212500000Y-74851000D01*
X213451000Y-75071000D02*
X212720000Y-75071000D01*
X213500000Y-74045000D02*
X213500000Y-75022000D01*
X213500000Y-75022000D02*
X213451000Y-75071000D01*
X212500000Y-74851000D02*
X212500000Y-74045000D01*
X212800000Y-76290000D02*
X213100000Y-76290000D01*
%TO.N,Net-(J1-CC1)*%
X215377600Y-75800000D02*
X214500000Y-74922400D01*
X214500000Y-74922400D02*
X214500000Y-74045000D01*
X216190000Y-75800000D02*
X215377600Y-75800000D01*
%TO.N,GPIO11*%
X209825000Y-105900000D02*
X203960000Y-105900000D01*
X203960000Y-105900000D02*
X200870000Y-102810000D01*
%TO.N,GPIO2*%
X207767100Y-101900000D02*
X206033550Y-100166450D01*
X206033550Y-100166450D02*
X206033550Y-80033550D01*
X206033550Y-80033550D02*
X200870000Y-74870000D01*
X209825000Y-101900000D02*
X207767100Y-101900000D01*
%TO.N,GPIO7*%
X209825000Y-103900000D02*
X206667100Y-103900000D01*
X203401000Y-100633900D02*
X203401000Y-92641000D01*
X206667100Y-103900000D02*
X203401000Y-100633900D01*
X203401000Y-92641000D02*
X200870000Y-90110000D01*
%TO.N,GPIO12*%
X202257500Y-106737500D02*
X200870000Y-105350000D01*
X210662500Y-106737500D02*
X202257500Y-106737500D01*
%TO.N,GPIO9*%
X209825000Y-105100000D02*
X206600000Y-105100000D01*
X202600000Y-96920000D02*
X200870000Y-95190000D01*
X202600000Y-101100000D02*
X202600000Y-96920000D01*
X206600000Y-105100000D02*
X202600000Y-101100000D01*
%TO.N,GPIO8*%
X206900000Y-104700000D02*
X203000000Y-100800000D01*
X203000000Y-94780000D02*
X200870000Y-92650000D01*
X203000000Y-100800000D02*
X203000000Y-94780000D01*
X209825000Y-104700000D02*
X206900000Y-104700000D01*
%TO.N,GPIO6*%
X209825000Y-103500000D02*
X207000000Y-103500000D01*
X207000000Y-103500000D02*
X203900000Y-100400000D01*
X203900000Y-90600000D02*
X200870000Y-87570000D01*
X203900000Y-100400000D02*
X203900000Y-90600000D01*
%TO.N,GPIO3*%
X205600000Y-100300000D02*
X205600000Y-82140000D01*
X205600000Y-82140000D02*
X200870000Y-77410000D01*
X207600000Y-102300000D02*
X205600000Y-100300000D01*
X209825000Y-102300000D02*
X207600000Y-102300000D01*
%TO.N,GPIO4*%
X207400000Y-102700000D02*
X205000000Y-100300000D01*
X209825000Y-102700000D02*
X207400000Y-102700000D01*
X205000000Y-100300000D02*
X205000000Y-84080000D01*
X205000000Y-84080000D02*
X200870000Y-79950000D01*
%TO.N,GPIO1*%
X209825000Y-101500000D02*
X208000000Y-101500000D01*
X206500000Y-100000000D02*
X206500000Y-79932900D01*
X208000000Y-101500000D02*
X206500000Y-100000000D01*
X202083550Y-71003550D02*
X200870000Y-69790000D01*
X206500000Y-79932900D02*
X202083550Y-75516450D01*
X202083550Y-75516450D02*
X202083550Y-71003550D01*
%TO.N,GPIO0*%
X207000000Y-79865800D02*
X202567100Y-75432900D01*
X208200000Y-101100000D02*
X207000000Y-99900000D01*
X202567100Y-75432900D02*
X202567100Y-68947100D01*
X202567100Y-68947100D02*
X200870000Y-67250000D01*
X209825000Y-101100000D02*
X208200000Y-101100000D01*
X207000000Y-99900000D02*
X207000000Y-79865800D01*
%TO.N,GPIO10*%
X206100000Y-105500000D02*
X200870000Y-100270000D01*
X209825000Y-105500000D02*
X206100000Y-105500000D01*
%TO.N,GPIO5*%
X207200000Y-103100000D02*
X204400000Y-100300000D01*
X204400000Y-100300000D02*
X204400000Y-86020000D01*
X209825000Y-103100000D02*
X207200000Y-103100000D01*
X204400000Y-86020000D02*
X200870000Y-82490000D01*
%TO.N,GPIO29_ACD3*%
X216700000Y-101100000D02*
X219100000Y-101100000D01*
X222200000Y-73220000D02*
X225630000Y-69790000D01*
X222200000Y-77700000D02*
X222200000Y-73220000D01*
X221800000Y-98400000D02*
X221800000Y-78100000D01*
X221800000Y-78100000D02*
X222200000Y-77700000D01*
X219100000Y-101100000D02*
X221800000Y-98400000D01*
%TO.N,RUN*%
X217214000Y-117714000D02*
X218000000Y-118500000D01*
X215062500Y-108162500D02*
X217214000Y-110314000D01*
X215062500Y-106737500D02*
X215062500Y-108162500D01*
X227149000Y-94169000D02*
X225630000Y-92650000D01*
X218100000Y-118400000D02*
X225349000Y-118400000D01*
X218000000Y-118500000D02*
X218100000Y-118400000D01*
X217214000Y-110314000D02*
X217214000Y-117714000D01*
X227149000Y-116600000D02*
X227149000Y-94169000D01*
X225349000Y-118400000D02*
X227149000Y-116600000D01*
%TO.N,GPIO22*%
X224500000Y-100832240D02*
X224500000Y-100500000D01*
X224400000Y-100400000D02*
X224400000Y-96420000D01*
X224400000Y-96420000D02*
X225630000Y-95190000D01*
X216700000Y-103900000D02*
X221432240Y-103900000D01*
X224500000Y-100500000D02*
X224400000Y-100400000D01*
X221432240Y-103900000D02*
X224500000Y-100832240D01*
%TO.N,GPIO26_ACD0*%
X216700000Y-102300000D02*
X221199000Y-102300000D01*
X221199000Y-102300000D02*
X223099000Y-100400000D01*
X223099000Y-100400000D02*
X223099000Y-85021000D01*
X223099000Y-85021000D02*
X225630000Y-82490000D01*
%TO.N,GPIO19*%
X225480000Y-105500000D02*
X225630000Y-105350000D01*
X216700000Y-105500000D02*
X225480000Y-105500000D01*
%TO.N,GPIO17*%
X225630000Y-112970000D02*
X219397500Y-106737500D01*
X219397500Y-106737500D02*
X215863500Y-106737500D01*
%TO.N,GPIO21*%
X221200000Y-104700000D02*
X225630000Y-100270000D01*
X216700000Y-104700000D02*
X221200000Y-104700000D01*
%TO.N,GPIO27_ACD1*%
X222600000Y-82980000D02*
X225630000Y-79950000D01*
X222600000Y-100300000D02*
X222600000Y-82980000D01*
X216700000Y-101900000D02*
X221000000Y-101900000D01*
X221000000Y-101900000D02*
X222600000Y-100300000D01*
%TO.N,GPIO24*%
X223500000Y-89700000D02*
X225630000Y-87570000D01*
X216700000Y-103100000D02*
X221000000Y-103100000D01*
X221000000Y-103100000D02*
X223500000Y-100600000D01*
X223500000Y-100600000D02*
X223500000Y-89700000D01*
%TO.N,GPIO23*%
X223999000Y-91741000D02*
X225630000Y-90110000D01*
X221265140Y-103500000D02*
X224082570Y-100682570D01*
X224082570Y-100682570D02*
X223999000Y-100599000D01*
X223999000Y-100599000D02*
X223999000Y-91741000D01*
X216700000Y-103500000D02*
X221265140Y-103500000D01*
%TO.N,GPIO20*%
X223340000Y-105100000D02*
X225630000Y-102810000D01*
X216700000Y-105100000D02*
X223340000Y-105100000D01*
%TO.N,GPIO28_ACD2*%
X222200000Y-98600000D02*
X222200000Y-78300000D01*
X219300000Y-101500000D02*
X222200000Y-98600000D01*
X222200000Y-78300000D02*
X225630000Y-74870000D01*
X216700000Y-101500000D02*
X219300000Y-101500000D01*
%TO.N,GPIO16*%
X220120000Y-110000000D02*
X225630000Y-115510000D01*
X215462500Y-106737500D02*
X215462500Y-107962500D01*
X215462500Y-107962500D02*
X217500000Y-110000000D01*
X217500000Y-110000000D02*
X220120000Y-110000000D01*
%TO.N,GPIO18*%
X225630000Y-107890000D02*
X223640000Y-105900000D01*
X223640000Y-105900000D02*
X216700000Y-105900000D01*
%TO.N,SWD*%
X214662500Y-108377960D02*
X216813000Y-110528460D01*
X216813000Y-119127000D02*
X215840000Y-120100000D01*
X216813000Y-110528460D02*
X216813000Y-119127000D01*
X214662500Y-106737500D02*
X214662500Y-108377960D01*
%TO.N,SWCLK*%
X216412000Y-113688000D02*
X216412000Y-110694560D01*
X210760000Y-120100000D02*
X210760000Y-115245400D01*
X215400000Y-114700000D02*
X216412000Y-113688000D01*
X211305400Y-114700000D02*
X215400000Y-114700000D01*
X214262500Y-108545060D02*
X214262500Y-106737500D01*
X216412000Y-110694560D02*
X214262500Y-108545060D01*
X210760000Y-115245400D02*
X211305400Y-114700000D01*
%TO.N,Net-(U1-USB_DM)*%
X214662500Y-99327226D02*
X214865726Y-99124000D01*
X215453400Y-84253833D02*
X215453400Y-83153616D01*
X220400000Y-96420000D02*
X220400000Y-93100000D01*
X218233918Y-98507228D02*
X218312772Y-98507228D01*
X214662500Y-99862500D02*
X214662500Y-99327226D01*
X213497800Y-81198016D02*
X213497800Y-77512200D01*
X216906800Y-89606800D02*
X216906800Y-85707234D01*
X218312772Y-98507228D02*
X220400000Y-96420000D01*
X217696000Y-99124000D02*
X217786050Y-99033950D01*
X219862200Y-92562200D02*
X219862200Y-91722294D01*
X217939400Y-90639400D02*
X216906800Y-89606800D01*
X218519316Y-90888200D02*
X218270516Y-90639400D01*
X217786050Y-98955096D02*
X218233918Y-98507228D01*
X216906800Y-85707234D02*
X215453400Y-84253833D01*
X219028107Y-90888200D02*
X218519316Y-90888200D01*
X220400000Y-93100000D02*
X219862200Y-92562200D01*
X213949588Y-81569400D02*
X213869184Y-81569400D01*
X214865726Y-99124000D02*
X217696000Y-99124000D01*
X215453400Y-83153616D02*
X214430600Y-82130816D01*
X217786050Y-99033950D02*
X217786050Y-98955096D01*
X218270516Y-90639400D02*
X217939400Y-90639400D01*
X213497800Y-77512200D02*
X214300000Y-76710000D01*
X219862200Y-91722294D02*
X219028107Y-90888200D01*
X213869184Y-81569400D02*
X213497800Y-81198016D01*
X214430600Y-82130816D02*
X214430600Y-82050412D01*
X214430600Y-82050412D02*
X213949588Y-81569400D01*
%TO.N,Net-(U1-USB_DP)*%
X219900000Y-96300000D02*
X217477000Y-98723000D01*
X214699626Y-98723000D02*
X214262500Y-99160126D01*
X217269817Y-90992800D02*
X218191450Y-90992800D01*
X214077200Y-82277200D02*
X215100000Y-83300000D01*
X218929324Y-91289200D02*
X219508800Y-91868677D01*
X218487850Y-91289200D02*
X218929324Y-91289200D01*
X212800000Y-81000000D02*
X213722800Y-81922800D01*
X212800000Y-77310000D02*
X212800000Y-81000000D01*
X214077200Y-82196796D02*
X214077200Y-82277200D01*
X215100000Y-83300000D02*
X215100000Y-84400216D01*
X215100000Y-84400216D02*
X216553400Y-85853617D01*
X216553400Y-90276383D02*
X217269817Y-90992800D01*
X219508800Y-93508800D02*
X219900000Y-93900000D01*
X219508800Y-91868677D02*
X219508800Y-93508800D01*
X218191450Y-90992800D02*
X218487850Y-91289200D01*
X214262500Y-99160126D02*
X214262500Y-99862500D01*
X217477000Y-98723000D02*
X214699626Y-98723000D01*
X213722800Y-81922800D02*
X213803204Y-81922800D01*
X219900000Y-93900000D02*
X219900000Y-96300000D01*
X216553400Y-85853617D02*
X216553400Y-90276383D01*
X213803204Y-81922800D02*
X214077200Y-82196796D01*
%TO.N,XOUT*%
X213062500Y-106737500D02*
X213062500Y-107704383D01*
X212490000Y-109300000D02*
X212490000Y-108276884D01*
X212490000Y-108276884D02*
X213062500Y-107704383D01*
%TO.N,QSPI_SS*%
X210112500Y-91595000D02*
X210715000Y-91595000D01*
X210715000Y-91595000D02*
X212810000Y-89500000D01*
X210650000Y-99424000D02*
X210650000Y-99850000D01*
X207799000Y-93096001D02*
X207799000Y-96573000D01*
X214190000Y-89500000D02*
X212810000Y-89500000D01*
X210112500Y-91595000D02*
X209300001Y-91595000D01*
X210650000Y-99850000D02*
X210662500Y-99862500D01*
X207799000Y-96573000D02*
X210650000Y-99424000D01*
X209300001Y-91595000D02*
X207799000Y-93096001D01*
%TO.N,Net-(R6-Pad1)*%
X211190000Y-88900000D02*
X211790000Y-89500000D01*
X209600000Y-88900000D02*
X211190000Y-88900000D01*
%TO.N,QSPI_SD1*%
X209300001Y-92865000D02*
X208200000Y-93965001D01*
X211062500Y-98875000D02*
X211062500Y-99862500D01*
X208200000Y-96012500D02*
X211062500Y-98875000D01*
X210112500Y-92865000D02*
X209300001Y-92865000D01*
X208200000Y-93965001D02*
X208200000Y-96012500D01*
%TO.N,QSPI_SCLK*%
X212262500Y-96043500D02*
X212500000Y-95806000D01*
X218401000Y-95046010D02*
X217489990Y-94135000D01*
X218133990Y-96031000D02*
X218401000Y-95763990D01*
X212262500Y-99862500D02*
X212262500Y-96043500D01*
X217489990Y-94135000D02*
X217287500Y-94135000D01*
X216216010Y-95806000D02*
X216441010Y-96031000D01*
X216441010Y-96031000D02*
X218133990Y-96031000D01*
X212500000Y-95806000D02*
X216216010Y-95806000D01*
X218401000Y-95763990D02*
X218401000Y-95046010D01*
%TO.N,QSPI_SD0*%
X211862500Y-95537500D02*
X211862500Y-99862500D01*
X217287500Y-95405000D02*
X211995000Y-95405000D01*
X211995000Y-95405000D02*
X211862500Y-95537500D01*
%TO.N,QSPI_SD2*%
X210112500Y-94135000D02*
X209943668Y-94135000D01*
X209022800Y-96335516D02*
X211462500Y-98775216D01*
X211462500Y-98775216D02*
X211462500Y-99862500D01*
X209022800Y-95055868D02*
X209022800Y-96335516D01*
X209943668Y-94135000D02*
X209022800Y-95055868D01*
%TO.N,QSPI_SD3*%
X218401000Y-93776010D02*
X217489990Y-92865000D01*
X218401000Y-94478910D02*
X218401000Y-93776010D01*
X216274910Y-96432000D02*
X218300090Y-96432000D01*
X212893000Y-96207000D02*
X216049910Y-96207000D01*
X216049910Y-96207000D02*
X216274910Y-96432000D01*
X217489990Y-92865000D02*
X217287500Y-92865000D01*
X212662500Y-96437500D02*
X212893000Y-96207000D01*
X218802000Y-94879910D02*
X218401000Y-94478910D01*
X218300090Y-96432000D02*
X218802000Y-95930090D01*
X212662500Y-99862500D02*
X212662500Y-96437500D01*
X218802000Y-95930090D02*
X218802000Y-94879910D01*
%TO.N,GPIO15*%
X211862500Y-107305034D02*
X209514334Y-109653200D01*
X211862500Y-106737500D02*
X211862500Y-107305034D01*
X209514334Y-109653200D02*
X206726800Y-109653200D01*
X206726800Y-109653200D02*
X200870000Y-115510000D01*
%TO.N,GPIO14*%
X209387668Y-109347400D02*
X204492600Y-109347400D01*
X211462500Y-106737500D02*
X211462500Y-107272568D01*
X211462500Y-107272568D02*
X209387668Y-109347400D01*
X204492600Y-109347400D02*
X200870000Y-112970000D01*
%TO.N,GPIO13*%
X211062500Y-106737500D02*
X211062500Y-107171800D01*
X211062500Y-107171800D02*
X210344300Y-107890000D01*
X210344300Y-107890000D02*
X200870000Y-107890000D01*
%TD*%
%TA.AperFunction,Conductor*%
%TO.N,GND*%
G36*
X224184442Y-65770185D02*
G01*
X224230197Y-65822989D01*
X224240141Y-65892147D01*
X224211116Y-65955703D01*
X224205084Y-65962181D01*
X219278567Y-70888697D01*
X219278563Y-70888703D01*
X219265838Y-70910744D01*
X219265014Y-70912171D01*
X219228971Y-70974599D01*
X219203299Y-71070407D01*
X219203299Y-71070409D01*
X219203299Y-71179582D01*
X219203300Y-71179595D01*
X219203300Y-71782294D01*
X219183615Y-71849333D01*
X219130811Y-71895088D01*
X219061653Y-71905032D01*
X218998097Y-71876007D01*
X218991619Y-71869975D01*
X218346815Y-71225171D01*
X218346813Y-71225168D01*
X218269612Y-71147967D01*
X218269610Y-71147965D01*
X218183711Y-71098371D01*
X218087903Y-71072699D01*
X217988717Y-71072699D01*
X217981121Y-71072699D01*
X217981105Y-71072700D01*
X209018678Y-71072700D01*
X209018662Y-71072699D01*
X209011066Y-71072699D01*
X208911880Y-71072699D01*
X208854395Y-71088102D01*
X208816070Y-71098371D01*
X208816069Y-71098372D01*
X208730177Y-71147961D01*
X208730172Y-71147965D01*
X207598566Y-72279571D01*
X207598562Y-72279576D01*
X207577208Y-72316562D01*
X207577209Y-72316563D01*
X207548970Y-72365473D01*
X207539994Y-72398973D01*
X207523299Y-72461280D01*
X207523299Y-72461282D01*
X207523299Y-72570455D01*
X207523300Y-72570468D01*
X207523300Y-78990377D01*
X207523299Y-78990395D01*
X207523299Y-78997990D01*
X207523299Y-79097176D01*
X207530776Y-79125079D01*
X207545562Y-79180262D01*
X207548970Y-79192983D01*
X207560160Y-79212364D01*
X207598565Y-79278883D01*
X207598567Y-79278885D01*
X207675765Y-79356083D01*
X207675771Y-79356088D01*
X209152989Y-80833307D01*
X209186474Y-80894630D01*
X209185343Y-80942147D01*
X209186861Y-80942347D01*
X209185800Y-80950407D01*
X209185800Y-82105077D01*
X209185799Y-82105095D01*
X209185799Y-82112690D01*
X209185799Y-82211876D01*
X209190064Y-82227792D01*
X209205499Y-82285399D01*
X209211470Y-82307682D01*
X209211470Y-82307683D01*
X209217500Y-82318127D01*
X209261065Y-82393583D01*
X209261067Y-82393585D01*
X209338265Y-82470783D01*
X209338271Y-82470788D01*
X210047841Y-83180358D01*
X210047851Y-83180369D01*
X210052181Y-83184699D01*
X210052182Y-83184700D01*
X210122317Y-83254835D01*
X210208216Y-83304429D01*
X210304023Y-83330100D01*
X210304024Y-83330100D01*
X210403210Y-83330100D01*
X210426408Y-83330100D01*
X210493447Y-83349785D01*
X210514089Y-83366419D01*
X214796981Y-87649311D01*
X214830466Y-87710634D01*
X214833300Y-87736992D01*
X214833300Y-88889521D01*
X214831890Y-88894322D01*
X214832920Y-88899220D01*
X214822143Y-88927515D01*
X214813615Y-88956560D01*
X214809348Y-88961111D01*
X214808052Y-88964515D01*
X214782928Y-88989294D01*
X214776878Y-88993759D01*
X214773623Y-88996162D01*
X214707991Y-89020126D01*
X214639823Y-89004804D01*
X214626365Y-88996154D01*
X214580729Y-88962473D01*
X214530794Y-88925619D01*
X214530792Y-88925618D01*
X214406880Y-88882258D01*
X214377461Y-88879500D01*
X214002546Y-88879500D01*
X213973125Y-88882258D01*
X213973115Y-88882260D01*
X213849207Y-88925618D01*
X213743576Y-89003576D01*
X213692389Y-89072934D01*
X213688408Y-89075956D01*
X213686332Y-89080503D01*
X213660857Y-89096874D01*
X213636742Y-89115184D01*
X213630612Y-89116311D01*
X213627554Y-89118277D01*
X213592619Y-89123300D01*
X213407381Y-89123300D01*
X213340342Y-89103615D01*
X213307611Y-89072934D01*
X213256423Y-89003576D01*
X213184860Y-88950761D01*
X213150794Y-88925619D01*
X213150792Y-88925618D01*
X213026880Y-88882258D01*
X212997461Y-88879500D01*
X212622546Y-88879500D01*
X212593125Y-88882258D01*
X212593115Y-88882260D01*
X212469205Y-88925619D01*
X212469204Y-88925619D01*
X212373633Y-88996154D01*
X212308004Y-89020125D01*
X212239834Y-89004809D01*
X212226367Y-88996154D01*
X212130794Y-88925619D01*
X212006880Y-88882258D01*
X211977461Y-88879500D01*
X211977457Y-88879500D01*
X211753596Y-88879500D01*
X211724155Y-88870855D01*
X211694169Y-88864332D01*
X211689153Y-88860577D01*
X211686557Y-88859815D01*
X211665915Y-88843181D01*
X211498505Y-88675771D01*
X211498503Y-88675768D01*
X211421302Y-88598567D01*
X211421300Y-88598565D01*
X211335401Y-88548971D01*
X211239593Y-88523299D01*
X211140407Y-88523299D01*
X211132811Y-88523299D01*
X211132795Y-88523300D01*
X210953206Y-88523300D01*
X210886167Y-88503615D01*
X210849634Y-88464377D01*
X210849112Y-88464769D01*
X210845471Y-88459905D01*
X210844373Y-88458726D01*
X210843797Y-88457673D01*
X210843796Y-88457669D01*
X210843793Y-88457665D01*
X210843792Y-88457663D01*
X210757547Y-88342455D01*
X210757544Y-88342452D01*
X210642335Y-88256206D01*
X210642328Y-88256202D01*
X210507482Y-88205908D01*
X210507483Y-88205908D01*
X210447883Y-88199501D01*
X210447881Y-88199500D01*
X210447873Y-88199500D01*
X210447864Y-88199500D01*
X208752129Y-88199500D01*
X208752123Y-88199501D01*
X208692516Y-88205908D01*
X208557671Y-88256202D01*
X208557664Y-88256206D01*
X208442455Y-88342452D01*
X208442452Y-88342455D01*
X208356206Y-88457664D01*
X208356202Y-88457671D01*
X208320276Y-88553996D01*
X208305909Y-88592517D01*
X208299500Y-88652127D01*
X208299500Y-88652134D01*
X208299500Y-88652135D01*
X208299500Y-89147870D01*
X208299501Y-89147876D01*
X208305908Y-89207483D01*
X208356202Y-89342328D01*
X208356206Y-89342335D01*
X208442452Y-89457544D01*
X208442455Y-89457547D01*
X208557664Y-89543793D01*
X208557671Y-89543797D01*
X208692517Y-89594091D01*
X208692516Y-89594091D01*
X208699444Y-89594835D01*
X208752127Y-89600500D01*
X210447872Y-89600499D01*
X210507483Y-89594091D01*
X210642331Y-89543796D01*
X210757546Y-89457546D01*
X210843796Y-89342331D01*
X210843798Y-89342323D01*
X210844373Y-89341274D01*
X210845228Y-89340417D01*
X210849112Y-89335231D01*
X210849857Y-89335789D01*
X210853897Y-89331749D01*
X210859493Y-89319497D01*
X210878120Y-89307526D01*
X210893778Y-89291868D01*
X210908221Y-89288181D01*
X210918271Y-89281723D01*
X210953206Y-89276700D01*
X210982604Y-89276700D01*
X211049643Y-89296385D01*
X211070285Y-89313019D01*
X211183181Y-89425915D01*
X211216666Y-89487238D01*
X211219500Y-89513595D01*
X211219500Y-89737453D01*
X211222258Y-89766874D01*
X211222260Y-89766884D01*
X211260687Y-89876700D01*
X211265619Y-89890794D01*
X211274720Y-89903125D01*
X211343576Y-89996423D01*
X211449206Y-90074381D01*
X211450858Y-90074959D01*
X211452422Y-90076081D01*
X211457421Y-90078723D01*
X211457059Y-90079407D01*
X211507634Y-90115682D01*
X211533380Y-90180635D01*
X211519923Y-90249196D01*
X211497583Y-90279681D01*
X210844085Y-90933181D01*
X210782762Y-90966666D01*
X210756404Y-90969500D01*
X209406724Y-90969500D01*
X209375450Y-90972432D01*
X209375448Y-90972432D01*
X209243714Y-91018529D01*
X209243705Y-91018534D01*
X209131411Y-91101410D01*
X209131410Y-91101411D01*
X209048534Y-91213705D01*
X209048530Y-91213712D01*
X209004038Y-91340862D01*
X208974678Y-91387587D01*
X207588381Y-92773885D01*
X207527058Y-92807370D01*
X207457366Y-92802386D01*
X207401433Y-92760514D01*
X207377016Y-92695050D01*
X207376700Y-92686204D01*
X207376700Y-84950000D01*
X208300234Y-84950000D01*
X208306401Y-85007375D01*
X208356645Y-85142086D01*
X208356649Y-85142093D01*
X208442809Y-85257187D01*
X208442812Y-85257190D01*
X208557906Y-85343350D01*
X208557913Y-85343354D01*
X208692620Y-85393596D01*
X208692627Y-85393598D01*
X208752155Y-85399999D01*
X208752172Y-85400000D01*
X209350000Y-85400000D01*
X209850000Y-85400000D01*
X210447828Y-85400000D01*
X210447844Y-85399999D01*
X210507372Y-85393598D01*
X210507379Y-85393596D01*
X210642086Y-85343354D01*
X210642093Y-85343350D01*
X210757187Y-85257190D01*
X210757190Y-85257187D01*
X210843350Y-85142093D01*
X210843354Y-85142086D01*
X210893598Y-85007375D01*
X210899766Y-84950000D01*
X209850000Y-84950000D01*
X209850000Y-85400000D01*
X209350000Y-85400000D01*
X209350000Y-84950000D01*
X208300234Y-84950000D01*
X207376700Y-84950000D01*
X207376700Y-84450000D01*
X208300234Y-84450000D01*
X209350000Y-84450000D01*
X209850000Y-84450000D01*
X210899765Y-84450000D01*
X210893598Y-84392624D01*
X210843354Y-84257913D01*
X210843350Y-84257906D01*
X210757190Y-84142812D01*
X210757187Y-84142809D01*
X210642093Y-84056649D01*
X210642086Y-84056645D01*
X210507379Y-84006403D01*
X210507372Y-84006401D01*
X210447844Y-84000000D01*
X209850000Y-84000000D01*
X209850000Y-84450000D01*
X209350000Y-84450000D01*
X209350000Y-84000000D01*
X208752155Y-84000000D01*
X208692627Y-84006401D01*
X208692620Y-84006403D01*
X208557913Y-84056645D01*
X208557906Y-84056649D01*
X208442812Y-84142809D01*
X208442809Y-84142812D01*
X208356649Y-84257906D01*
X208356645Y-84257913D01*
X208306401Y-84392624D01*
X208300234Y-84450000D01*
X207376700Y-84450000D01*
X207376700Y-79816208D01*
X207376700Y-79816206D01*
X207351029Y-79720399D01*
X207301435Y-79634500D01*
X207231300Y-79564365D01*
X207231299Y-79564364D01*
X207226969Y-79560034D01*
X207226958Y-79560024D01*
X202980119Y-75313185D01*
X202946634Y-75251862D01*
X202943800Y-75225504D01*
X202943800Y-69006695D01*
X202943801Y-69006682D01*
X202943801Y-68897509D01*
X202943801Y-68897507D01*
X202918129Y-68801699D01*
X202873147Y-68723789D01*
X202868535Y-68715800D01*
X202803313Y-68650578D01*
X202803304Y-68650568D01*
X202794081Y-68641345D01*
X202794058Y-68641324D01*
X202723936Y-68571202D01*
X208130000Y-68571202D01*
X208130000Y-68700000D01*
X208630000Y-68700000D01*
X208630000Y-69200000D01*
X208130000Y-69200000D01*
X208130000Y-69328797D01*
X208160741Y-69483343D01*
X208160743Y-69483351D01*
X208221047Y-69628939D01*
X208221052Y-69628948D01*
X208308598Y-69759969D01*
X208308601Y-69759973D01*
X208420026Y-69871398D01*
X208420034Y-69871404D01*
X208551047Y-69958944D01*
X208551065Y-69958954D01*
X208679999Y-70012360D01*
X208680000Y-70012360D01*
X208680000Y-69416988D01*
X208689940Y-69434205D01*
X208745795Y-69490060D01*
X208814204Y-69529556D01*
X208890504Y-69550000D01*
X208969496Y-69550000D01*
X209045796Y-69529556D01*
X209114205Y-69490060D01*
X209170060Y-69434205D01*
X209180000Y-69416988D01*
X209180000Y-70012360D01*
X209308934Y-69958954D01*
X209308952Y-69958944D01*
X209439965Y-69871404D01*
X209439973Y-69871398D01*
X209551398Y-69759973D01*
X209551401Y-69759969D01*
X209638947Y-69628948D01*
X209638952Y-69628939D01*
X209699256Y-69483351D01*
X209699258Y-69483343D01*
X209729999Y-69328797D01*
X209730000Y-69328794D01*
X209730000Y-69200000D01*
X209230000Y-69200000D01*
X209230000Y-68700000D01*
X209730000Y-68700000D01*
X209730000Y-68571206D01*
X209729999Y-68571202D01*
X216770000Y-68571202D01*
X216770000Y-68700000D01*
X217270000Y-68700000D01*
X217270000Y-69200000D01*
X216770000Y-69200000D01*
X216770000Y-69328797D01*
X216800741Y-69483343D01*
X216800743Y-69483351D01*
X216861047Y-69628939D01*
X216861052Y-69628948D01*
X216948598Y-69759969D01*
X216948601Y-69759973D01*
X217060026Y-69871398D01*
X217060034Y-69871404D01*
X217191047Y-69958944D01*
X217191065Y-69958954D01*
X217319999Y-70012360D01*
X217320000Y-70012360D01*
X217320000Y-69416988D01*
X217329940Y-69434205D01*
X217385795Y-69490060D01*
X217454204Y-69529556D01*
X217530504Y-69550000D01*
X217609496Y-69550000D01*
X217685796Y-69529556D01*
X217754205Y-69490060D01*
X217810060Y-69434205D01*
X217820000Y-69416988D01*
X217820000Y-70012360D01*
X217948934Y-69958954D01*
X217948952Y-69958944D01*
X218079965Y-69871404D01*
X218079973Y-69871398D01*
X218191398Y-69759973D01*
X218191401Y-69759969D01*
X218278947Y-69628948D01*
X218278952Y-69628939D01*
X218339256Y-69483351D01*
X218339258Y-69483343D01*
X218369999Y-69328797D01*
X218370000Y-69328794D01*
X218370000Y-69200000D01*
X217870000Y-69200000D01*
X217870000Y-68700000D01*
X218370000Y-68700000D01*
X218370000Y-68571206D01*
X218369999Y-68571202D01*
X218339258Y-68416656D01*
X218339256Y-68416648D01*
X218278952Y-68271060D01*
X218278947Y-68271051D01*
X218191401Y-68140030D01*
X218191398Y-68140026D01*
X218079973Y-68028601D01*
X218079969Y-68028598D01*
X217948948Y-67941052D01*
X217948938Y-67941047D01*
X217820000Y-67887639D01*
X217820000Y-68483011D01*
X217810060Y-68465795D01*
X217754205Y-68409940D01*
X217685796Y-68370444D01*
X217609496Y-68350000D01*
X217530504Y-68350000D01*
X217454204Y-68370444D01*
X217385795Y-68409940D01*
X217329940Y-68465795D01*
X217320000Y-68483011D01*
X217320000Y-67887639D01*
X217319999Y-67887639D01*
X217191061Y-67941047D01*
X217191051Y-67941052D01*
X217060030Y-68028598D01*
X217060026Y-68028601D01*
X216948601Y-68140026D01*
X216948598Y-68140030D01*
X216861052Y-68271051D01*
X216861047Y-68271060D01*
X216800743Y-68416648D01*
X216800741Y-68416656D01*
X216770000Y-68571202D01*
X209729999Y-68571202D01*
X209699258Y-68416656D01*
X209699256Y-68416648D01*
X209638952Y-68271060D01*
X209638947Y-68271051D01*
X209551401Y-68140030D01*
X209551398Y-68140026D01*
X209439973Y-68028601D01*
X209439969Y-68028598D01*
X209308948Y-67941052D01*
X209308938Y-67941047D01*
X209180000Y-67887639D01*
X209180000Y-68483011D01*
X209170060Y-68465795D01*
X209114205Y-68409940D01*
X209045796Y-68370444D01*
X208969496Y-68350000D01*
X208890504Y-68350000D01*
X208814204Y-68370444D01*
X208745795Y-68409940D01*
X208689940Y-68465795D01*
X208680000Y-68483011D01*
X208680000Y-67887639D01*
X208679999Y-67887639D01*
X208551061Y-67941047D01*
X208551051Y-67941052D01*
X208420030Y-68028598D01*
X208420026Y-68028601D01*
X208308601Y-68140026D01*
X208308598Y-68140030D01*
X208221052Y-68271051D01*
X208221047Y-68271060D01*
X208160743Y-68416648D01*
X208160741Y-68416656D01*
X208130000Y-68571202D01*
X202723936Y-68571202D01*
X202056818Y-67904084D01*
X202023333Y-67842761D01*
X202020499Y-67816403D01*
X202020499Y-66355143D01*
X202020499Y-66355136D01*
X202020497Y-66355117D01*
X202017586Y-66330012D01*
X202017585Y-66330010D01*
X202017585Y-66330009D01*
X201972206Y-66227235D01*
X201892765Y-66147794D01*
X201892763Y-66147793D01*
X201789992Y-66102415D01*
X201764865Y-66099500D01*
X199975143Y-66099500D01*
X199975117Y-66099502D01*
X199950012Y-66102413D01*
X199950008Y-66102415D01*
X199847235Y-66147793D01*
X199767794Y-66227234D01*
X199722415Y-66330006D01*
X199722415Y-66330008D01*
X199719500Y-66355131D01*
X199719500Y-68144856D01*
X199719502Y-68144882D01*
X199722413Y-68169987D01*
X199722415Y-68169991D01*
X199767793Y-68272764D01*
X199767794Y-68272765D01*
X199847235Y-68352206D01*
X199950009Y-68397585D01*
X199975135Y-68400500D01*
X200712873Y-68400499D01*
X200779911Y-68420183D01*
X200825666Y-68472987D01*
X200835610Y-68542146D01*
X200806585Y-68605702D01*
X200747807Y-68643476D01*
X200732271Y-68646972D01*
X200600589Y-68667829D01*
X200428363Y-68723787D01*
X200428360Y-68723788D01*
X200267002Y-68806006D01*
X200120505Y-68912441D01*
X200120500Y-68912445D01*
X199992445Y-69040500D01*
X199992441Y-69040505D01*
X199886006Y-69187002D01*
X199803788Y-69348360D01*
X199803787Y-69348363D01*
X199747829Y-69520589D01*
X199719500Y-69699448D01*
X199719500Y-69880551D01*
X199747829Y-70059410D01*
X199803787Y-70231636D01*
X199803788Y-70231639D01*
X199886006Y-70392997D01*
X199992441Y-70539494D01*
X199992445Y-70539499D01*
X200120500Y-70667554D01*
X200120505Y-70667558D01*
X200248287Y-70760396D01*
X200267006Y-70773996D01*
X200372484Y-70827740D01*
X200428360Y-70856211D01*
X200428363Y-70856212D01*
X200514476Y-70884191D01*
X200600591Y-70912171D01*
X200720038Y-70931089D01*
X200762279Y-70937780D01*
X200825414Y-70967709D01*
X200862345Y-71027021D01*
X200861347Y-71096883D01*
X200822737Y-71155116D01*
X200762279Y-71182726D01*
X200600706Y-71208317D01*
X200428555Y-71264251D01*
X200428547Y-71264254D01*
X200267269Y-71346432D01*
X200251466Y-71357912D01*
X200251466Y-71357913D01*
X200740590Y-71847037D01*
X200677007Y-71864075D01*
X200562993Y-71929901D01*
X200469901Y-72022993D01*
X200404075Y-72137007D01*
X200387037Y-72200590D01*
X199897913Y-71711466D01*
X199897912Y-71711466D01*
X199886432Y-71727269D01*
X199804254Y-71888547D01*
X199804251Y-71888555D01*
X199748317Y-72060706D01*
X199720000Y-72239493D01*
X199720000Y-72420506D01*
X199748317Y-72599293D01*
X199804251Y-72771444D01*
X199804252Y-72771447D01*
X199886431Y-72932730D01*
X199897913Y-72948532D01*
X199897913Y-72948533D01*
X200387037Y-72459409D01*
X200404075Y-72522993D01*
X200469901Y-72637007D01*
X200562993Y-72730099D01*
X200677007Y-72795925D01*
X200740589Y-72812962D01*
X200251466Y-73302085D01*
X200251466Y-73302086D01*
X200267267Y-73313566D01*
X200267275Y-73313571D01*
X200428552Y-73395747D01*
X200428555Y-73395748D01*
X200600706Y-73451682D01*
X200762279Y-73477273D01*
X200825413Y-73507202D01*
X200862345Y-73566513D01*
X200861347Y-73636376D01*
X200822738Y-73694609D01*
X200762280Y-73722219D01*
X200600589Y-73747829D01*
X200428363Y-73803787D01*
X200428360Y-73803788D01*
X200267002Y-73886006D01*
X200120505Y-73992441D01*
X200120500Y-73992445D01*
X199992445Y-74120500D01*
X199992441Y-74120505D01*
X199886006Y-74267002D01*
X199803788Y-74428360D01*
X199803787Y-74428363D01*
X199747829Y-74600589D01*
X199719500Y-74779448D01*
X199719500Y-74960551D01*
X199747829Y-75139410D01*
X199803787Y-75311636D01*
X199803788Y-75311639D01*
X199837870Y-75378527D01*
X199873972Y-75449381D01*
X199886006Y-75472997D01*
X199992441Y-75619494D01*
X199992445Y-75619499D01*
X200120500Y-75747554D01*
X200120505Y-75747558D01*
X200243863Y-75837182D01*
X200267006Y-75853996D01*
X200370794Y-75906879D01*
X200428360Y-75936211D01*
X200428363Y-75936212D01*
X200468356Y-75949206D01*
X200600591Y-75992171D01*
X200673639Y-76003740D01*
X200760678Y-76017527D01*
X200823813Y-76047456D01*
X200860744Y-76106768D01*
X200859746Y-76176631D01*
X200821136Y-76234863D01*
X200760678Y-76262473D01*
X200600589Y-76287829D01*
X200428363Y-76343787D01*
X200428360Y-76343788D01*
X200267002Y-76426006D01*
X200120505Y-76532441D01*
X200120500Y-76532445D01*
X199992445Y-76660500D01*
X199992441Y-76660505D01*
X199886006Y-76807002D01*
X199803788Y-76968360D01*
X199803787Y-76968363D01*
X199747829Y-77140589D01*
X199719500Y-77319448D01*
X199719500Y-77500551D01*
X199747829Y-77679410D01*
X199803787Y-77851636D01*
X199803788Y-77851639D01*
X199859664Y-77961300D01*
X199866484Y-77974685D01*
X199886006Y-78012997D01*
X199992441Y-78159494D01*
X199992445Y-78159499D01*
X200120500Y-78287554D01*
X200120505Y-78287558D01*
X200244517Y-78377657D01*
X200267006Y-78393996D01*
X200372484Y-78447740D01*
X200428360Y-78476211D01*
X200428363Y-78476212D01*
X200514476Y-78504191D01*
X200600591Y-78532171D01*
X200673639Y-78543740D01*
X200760678Y-78557527D01*
X200823813Y-78587456D01*
X200860744Y-78646768D01*
X200859746Y-78716631D01*
X200821136Y-78774863D01*
X200760678Y-78802473D01*
X200600589Y-78827829D01*
X200428363Y-78883787D01*
X200428360Y-78883788D01*
X200267002Y-78966006D01*
X200120505Y-79072441D01*
X200120500Y-79072445D01*
X199992445Y-79200500D01*
X199992441Y-79200505D01*
X199886006Y-79347002D01*
X199803788Y-79508360D01*
X199803787Y-79508363D01*
X199747829Y-79680589D01*
X199719500Y-79859448D01*
X199719500Y-80040551D01*
X199747829Y-80219410D01*
X199803787Y-80391636D01*
X199803788Y-80391639D01*
X199852847Y-80487921D01*
X199866484Y-80514685D01*
X199886006Y-80552997D01*
X199992441Y-80699494D01*
X199992445Y-80699499D01*
X200120500Y-80827554D01*
X200120505Y-80827558D01*
X200187181Y-80876000D01*
X200267006Y-80933996D01*
X200372013Y-80987500D01*
X200428360Y-81016211D01*
X200428363Y-81016212D01*
X200507677Y-81041982D01*
X200600591Y-81072171D01*
X200673639Y-81083740D01*
X200760678Y-81097527D01*
X200823813Y-81127456D01*
X200860744Y-81186768D01*
X200859746Y-81256631D01*
X200821136Y-81314863D01*
X200760678Y-81342473D01*
X200600589Y-81367829D01*
X200428363Y-81423787D01*
X200428360Y-81423788D01*
X200267002Y-81506006D01*
X200120505Y-81612441D01*
X200120500Y-81612445D01*
X199992445Y-81740500D01*
X199992441Y-81740505D01*
X199886006Y-81887002D01*
X199803788Y-82048360D01*
X199803787Y-82048363D01*
X199747829Y-82220589D01*
X199719501Y-82399440D01*
X199719500Y-82399447D01*
X199719500Y-82580551D01*
X199747829Y-82759410D01*
X199803787Y-82931636D01*
X199803788Y-82931639D01*
X199844016Y-83010589D01*
X199877974Y-83077235D01*
X199886006Y-83092997D01*
X199992441Y-83239494D01*
X199992445Y-83239499D01*
X200120500Y-83367554D01*
X200120505Y-83367558D01*
X200217234Y-83437835D01*
X200267006Y-83473996D01*
X200369746Y-83526345D01*
X200428360Y-83556211D01*
X200428363Y-83556212D01*
X200513882Y-83583998D01*
X200600591Y-83612171D01*
X200720038Y-83631089D01*
X200762279Y-83637780D01*
X200825414Y-83667709D01*
X200862345Y-83727021D01*
X200861347Y-83796883D01*
X200822737Y-83855116D01*
X200762279Y-83882726D01*
X200600706Y-83908317D01*
X200428555Y-83964251D01*
X200428547Y-83964254D01*
X200267269Y-84046432D01*
X200251466Y-84057912D01*
X200251466Y-84057913D01*
X200740591Y-84547037D01*
X200677007Y-84564075D01*
X200562993Y-84629901D01*
X200469901Y-84722993D01*
X200404075Y-84837007D01*
X200387037Y-84900590D01*
X199897913Y-84411466D01*
X199897912Y-84411466D01*
X199886432Y-84427269D01*
X199804254Y-84588547D01*
X199804251Y-84588555D01*
X199748317Y-84760706D01*
X199720000Y-84939493D01*
X199720000Y-85120506D01*
X199748317Y-85299293D01*
X199804251Y-85471444D01*
X199804252Y-85471447D01*
X199886431Y-85632730D01*
X199897913Y-85648532D01*
X199897913Y-85648533D01*
X200387037Y-85159409D01*
X200404075Y-85222993D01*
X200469901Y-85337007D01*
X200562993Y-85430099D01*
X200677007Y-85495925D01*
X200740590Y-85512962D01*
X200251466Y-86002085D01*
X200251466Y-86002086D01*
X200267267Y-86013566D01*
X200267275Y-86013571D01*
X200428552Y-86095747D01*
X200428555Y-86095748D01*
X200600706Y-86151682D01*
X200762279Y-86177273D01*
X200825413Y-86207202D01*
X200862345Y-86266513D01*
X200861347Y-86336376D01*
X200822738Y-86394609D01*
X200762280Y-86422219D01*
X200600589Y-86447829D01*
X200428363Y-86503787D01*
X200428360Y-86503788D01*
X200267002Y-86586006D01*
X200120505Y-86692441D01*
X200120500Y-86692445D01*
X199992445Y-86820500D01*
X199992441Y-86820505D01*
X199886006Y-86967002D01*
X199803788Y-87128360D01*
X199803787Y-87128363D01*
X199747829Y-87300589D01*
X199719500Y-87479448D01*
X199719500Y-87660551D01*
X199747829Y-87839410D01*
X199803787Y-88011636D01*
X199803788Y-88011639D01*
X199859664Y-88121300D01*
X199866484Y-88134685D01*
X199886006Y-88172997D01*
X199992441Y-88319494D01*
X199992445Y-88319499D01*
X200120500Y-88447554D01*
X200120505Y-88447558D01*
X200197662Y-88503615D01*
X200267006Y-88553996D01*
X200372484Y-88607740D01*
X200428360Y-88636211D01*
X200428363Y-88636212D01*
X200514476Y-88664191D01*
X200600591Y-88692171D01*
X200673639Y-88703740D01*
X200760678Y-88717527D01*
X200823813Y-88747456D01*
X200860744Y-88806768D01*
X200859746Y-88876631D01*
X200821136Y-88934863D01*
X200760678Y-88962473D01*
X200600589Y-88987829D01*
X200428363Y-89043787D01*
X200428360Y-89043788D01*
X200267002Y-89126006D01*
X200120505Y-89232441D01*
X200120500Y-89232445D01*
X199992445Y-89360500D01*
X199992441Y-89360505D01*
X199886006Y-89507002D01*
X199803788Y-89668360D01*
X199803787Y-89668363D01*
X199747829Y-89840589D01*
X199719500Y-90019448D01*
X199719500Y-90200551D01*
X199747828Y-90379406D01*
X199803787Y-90551636D01*
X199803788Y-90551639D01*
X199857430Y-90656915D01*
X199866484Y-90674685D01*
X199886006Y-90712997D01*
X199992441Y-90859494D01*
X199992445Y-90859499D01*
X200120500Y-90987554D01*
X200120505Y-90987558D01*
X200180578Y-91031203D01*
X200267006Y-91093996D01*
X200371787Y-91147385D01*
X200428360Y-91176211D01*
X200428363Y-91176212D01*
X200514476Y-91204191D01*
X200600591Y-91232171D01*
X200673639Y-91243740D01*
X200760678Y-91257527D01*
X200823813Y-91287456D01*
X200860744Y-91346768D01*
X200859746Y-91416631D01*
X200821136Y-91474863D01*
X200760678Y-91502473D01*
X200600589Y-91527829D01*
X200428363Y-91583787D01*
X200428360Y-91583788D01*
X200267002Y-91666006D01*
X200120505Y-91772441D01*
X200120500Y-91772445D01*
X199992445Y-91900500D01*
X199992441Y-91900505D01*
X199886006Y-92047002D01*
X199803788Y-92208360D01*
X199803787Y-92208363D01*
X199747829Y-92380589D01*
X199719500Y-92559448D01*
X199719500Y-92740551D01*
X199747829Y-92919410D01*
X199803787Y-93091636D01*
X199803788Y-93091639D01*
X199859580Y-93201134D01*
X199885515Y-93252035D01*
X199886006Y-93252997D01*
X199992441Y-93399494D01*
X199992445Y-93399499D01*
X200120500Y-93527554D01*
X200120505Y-93527558D01*
X200165354Y-93560142D01*
X200267006Y-93633996D01*
X200372484Y-93687740D01*
X200428360Y-93716211D01*
X200428363Y-93716212D01*
X200459772Y-93726417D01*
X200600591Y-93772171D01*
X200673639Y-93783740D01*
X200760678Y-93797527D01*
X200823813Y-93827456D01*
X200860744Y-93886768D01*
X200859746Y-93956631D01*
X200821136Y-94014863D01*
X200760678Y-94042473D01*
X200600589Y-94067829D01*
X200428363Y-94123787D01*
X200428360Y-94123788D01*
X200267002Y-94206006D01*
X200120505Y-94312441D01*
X200120500Y-94312445D01*
X199992445Y-94440500D01*
X199992441Y-94440505D01*
X199886006Y-94587002D01*
X199803788Y-94748360D01*
X199803787Y-94748363D01*
X199747829Y-94920589D01*
X199719500Y-95099448D01*
X199719500Y-95280551D01*
X199747829Y-95459410D01*
X199803787Y-95631636D01*
X199803788Y-95631639D01*
X199859664Y-95741300D01*
X199866484Y-95754685D01*
X199886006Y-95792997D01*
X199992441Y-95939494D01*
X199992445Y-95939499D01*
X200120500Y-96067554D01*
X200120505Y-96067558D01*
X200248287Y-96160396D01*
X200267006Y-96173996D01*
X200372484Y-96227740D01*
X200428360Y-96256211D01*
X200428363Y-96256212D01*
X200514476Y-96284191D01*
X200600591Y-96312171D01*
X200720038Y-96331089D01*
X200762279Y-96337780D01*
X200825414Y-96367709D01*
X200862345Y-96427021D01*
X200861347Y-96496883D01*
X200822737Y-96555116D01*
X200762279Y-96582726D01*
X200600706Y-96608317D01*
X200428555Y-96664251D01*
X200428547Y-96664254D01*
X200267269Y-96746432D01*
X200251466Y-96757912D01*
X200251466Y-96757913D01*
X200740591Y-97247037D01*
X200677007Y-97264075D01*
X200562993Y-97329901D01*
X200469901Y-97422993D01*
X200404075Y-97537007D01*
X200387037Y-97600590D01*
X199897913Y-97111466D01*
X199897912Y-97111466D01*
X199886432Y-97127269D01*
X199804254Y-97288547D01*
X199804251Y-97288555D01*
X199748317Y-97460706D01*
X199720000Y-97639493D01*
X199720000Y-97820506D01*
X199748317Y-97999293D01*
X199804251Y-98171444D01*
X199804252Y-98171447D01*
X199886431Y-98332730D01*
X199897913Y-98348532D01*
X199897913Y-98348533D01*
X200387037Y-97859409D01*
X200404075Y-97922993D01*
X200469901Y-98037007D01*
X200562993Y-98130099D01*
X200677007Y-98195925D01*
X200740590Y-98212962D01*
X200251466Y-98702085D01*
X200251466Y-98702086D01*
X200267267Y-98713566D01*
X200267275Y-98713571D01*
X200428552Y-98795747D01*
X200428555Y-98795748D01*
X200600706Y-98851682D01*
X200762279Y-98877273D01*
X200825413Y-98907202D01*
X200862345Y-98966513D01*
X200861347Y-99036376D01*
X200822738Y-99094609D01*
X200762280Y-99122219D01*
X200600589Y-99147829D01*
X200428363Y-99203787D01*
X200428360Y-99203788D01*
X200267002Y-99286006D01*
X200120505Y-99392441D01*
X200120500Y-99392445D01*
X199992445Y-99520500D01*
X199992441Y-99520505D01*
X199886006Y-99667002D01*
X199803788Y-99828360D01*
X199803787Y-99828363D01*
X199747829Y-100000589D01*
X199719500Y-100179448D01*
X199719500Y-100360551D01*
X199747829Y-100539410D01*
X199803787Y-100711636D01*
X199803788Y-100711639D01*
X199886006Y-100872997D01*
X199992441Y-101019494D01*
X199992445Y-101019499D01*
X200120500Y-101147554D01*
X200120505Y-101147558D01*
X200248287Y-101240396D01*
X200267006Y-101253996D01*
X200372484Y-101307740D01*
X200428360Y-101336211D01*
X200428363Y-101336212D01*
X200514476Y-101364191D01*
X200600591Y-101392171D01*
X200673639Y-101403740D01*
X200760678Y-101417527D01*
X200823813Y-101447456D01*
X200860744Y-101506768D01*
X200859746Y-101576631D01*
X200821136Y-101634863D01*
X200760678Y-101662473D01*
X200600589Y-101687829D01*
X200428363Y-101743787D01*
X200428360Y-101743788D01*
X200267002Y-101826006D01*
X200120505Y-101932441D01*
X200120500Y-101932445D01*
X199992445Y-102060500D01*
X199992441Y-102060505D01*
X199886006Y-102207002D01*
X199803788Y-102368360D01*
X199803787Y-102368363D01*
X199747829Y-102540589D01*
X199719500Y-102719448D01*
X199719500Y-102900551D01*
X199747829Y-103079410D01*
X199803787Y-103251636D01*
X199803788Y-103251639D01*
X199848324Y-103339044D01*
X199866484Y-103374685D01*
X199886006Y-103412997D01*
X199992441Y-103559494D01*
X199992445Y-103559499D01*
X200120500Y-103687554D01*
X200120505Y-103687558D01*
X200248287Y-103780396D01*
X200267006Y-103793996D01*
X200372484Y-103847740D01*
X200428360Y-103876211D01*
X200428363Y-103876212D01*
X200514476Y-103904191D01*
X200600591Y-103932171D01*
X200673639Y-103943740D01*
X200760678Y-103957527D01*
X200823813Y-103987456D01*
X200860744Y-104046768D01*
X200859746Y-104116631D01*
X200821136Y-104174863D01*
X200760678Y-104202473D01*
X200600589Y-104227829D01*
X200428363Y-104283787D01*
X200428360Y-104283788D01*
X200267002Y-104366006D01*
X200120505Y-104472441D01*
X200120500Y-104472445D01*
X199992445Y-104600500D01*
X199992441Y-104600505D01*
X199886006Y-104747002D01*
X199803788Y-104908360D01*
X199803787Y-104908363D01*
X199747829Y-105080589D01*
X199719500Y-105259448D01*
X199719500Y-105440551D01*
X199747829Y-105619410D01*
X199803787Y-105791636D01*
X199803788Y-105791639D01*
X199847130Y-105876700D01*
X199883655Y-105948384D01*
X199886006Y-105952997D01*
X199992441Y-106099494D01*
X199992445Y-106099499D01*
X200120500Y-106227554D01*
X200120505Y-106227558D01*
X200231246Y-106308015D01*
X200267006Y-106333996D01*
X200369993Y-106386471D01*
X200428360Y-106416211D01*
X200428363Y-106416212D01*
X200489466Y-106436065D01*
X200600591Y-106472171D01*
X200673639Y-106483740D01*
X200760678Y-106497527D01*
X200823813Y-106527456D01*
X200860744Y-106586768D01*
X200859746Y-106656631D01*
X200821136Y-106714863D01*
X200760678Y-106742473D01*
X200600589Y-106767829D01*
X200428363Y-106823787D01*
X200428360Y-106823788D01*
X200267002Y-106906006D01*
X200120505Y-107012441D01*
X200120500Y-107012445D01*
X199992445Y-107140500D01*
X199992441Y-107140505D01*
X199886006Y-107287002D01*
X199803788Y-107448360D01*
X199803787Y-107448363D01*
X199747829Y-107620589D01*
X199719500Y-107799448D01*
X199719500Y-107980551D01*
X199747829Y-108159410D01*
X199803787Y-108331636D01*
X199803788Y-108331639D01*
X199859664Y-108441300D01*
X199878558Y-108478381D01*
X199886006Y-108492997D01*
X199992441Y-108639494D01*
X199992445Y-108639499D01*
X200120500Y-108767554D01*
X200120505Y-108767558D01*
X200241084Y-108855163D01*
X200267006Y-108873996D01*
X200372484Y-108927740D01*
X200428360Y-108956211D01*
X200428363Y-108956212D01*
X200472954Y-108970700D01*
X200600591Y-109012171D01*
X200720038Y-109031089D01*
X200762279Y-109037780D01*
X200825414Y-109067709D01*
X200862345Y-109127021D01*
X200861347Y-109196883D01*
X200822737Y-109255116D01*
X200762279Y-109282726D01*
X200600706Y-109308317D01*
X200428555Y-109364251D01*
X200428547Y-109364254D01*
X200267269Y-109446432D01*
X200251466Y-109457912D01*
X200251466Y-109457913D01*
X200740591Y-109947037D01*
X200677007Y-109964075D01*
X200562993Y-110029901D01*
X200469901Y-110122993D01*
X200404075Y-110237007D01*
X200387037Y-110300590D01*
X199897913Y-109811466D01*
X199897912Y-109811466D01*
X199886432Y-109827269D01*
X199804254Y-109988547D01*
X199804251Y-109988555D01*
X199748317Y-110160706D01*
X199720000Y-110339493D01*
X199720000Y-110520506D01*
X199748317Y-110699293D01*
X199804251Y-110871444D01*
X199804252Y-110871447D01*
X199886431Y-111032730D01*
X199897913Y-111048532D01*
X199897913Y-111048533D01*
X200387037Y-110559409D01*
X200404075Y-110622993D01*
X200469901Y-110737007D01*
X200562993Y-110830099D01*
X200677007Y-110895925D01*
X200740590Y-110912962D01*
X200251466Y-111402085D01*
X200251466Y-111402086D01*
X200267267Y-111413566D01*
X200267275Y-111413571D01*
X200428552Y-111495747D01*
X200428555Y-111495748D01*
X200600706Y-111551682D01*
X200762279Y-111577273D01*
X200825413Y-111607202D01*
X200862345Y-111666513D01*
X200861347Y-111736376D01*
X200822738Y-111794609D01*
X200762280Y-111822219D01*
X200600589Y-111847829D01*
X200428363Y-111903787D01*
X200428360Y-111903788D01*
X200267002Y-111986006D01*
X200120505Y-112092441D01*
X200120500Y-112092445D01*
X199992445Y-112220500D01*
X199992441Y-112220505D01*
X199886006Y-112367002D01*
X199803788Y-112528360D01*
X199803787Y-112528363D01*
X199747829Y-112700589D01*
X199719500Y-112879448D01*
X199719500Y-113060551D01*
X199747829Y-113239410D01*
X199803787Y-113411636D01*
X199803788Y-113411639D01*
X199842095Y-113486819D01*
X199871693Y-113544908D01*
X199886006Y-113572997D01*
X199992441Y-113719494D01*
X199992445Y-113719499D01*
X200120500Y-113847554D01*
X200120505Y-113847558D01*
X200225451Y-113923805D01*
X200267006Y-113953996D01*
X200353005Y-113997815D01*
X200428360Y-114036211D01*
X200428363Y-114036212D01*
X200469827Y-114049684D01*
X200600591Y-114092171D01*
X200673639Y-114103740D01*
X200760678Y-114117527D01*
X200823813Y-114147456D01*
X200860744Y-114206768D01*
X200859746Y-114276631D01*
X200821136Y-114334863D01*
X200760678Y-114362473D01*
X200600589Y-114387829D01*
X200428363Y-114443787D01*
X200428360Y-114443788D01*
X200267002Y-114526006D01*
X200120505Y-114632441D01*
X200120500Y-114632445D01*
X199992445Y-114760500D01*
X199992441Y-114760505D01*
X199886006Y-114907002D01*
X199803788Y-115068360D01*
X199803787Y-115068363D01*
X199747829Y-115240589D01*
X199719500Y-115419448D01*
X199719500Y-115600551D01*
X199747829Y-115779410D01*
X199803787Y-115951636D01*
X199803788Y-115951639D01*
X199886006Y-116112997D01*
X199992441Y-116259494D01*
X199992445Y-116259499D01*
X200120500Y-116387554D01*
X200120505Y-116387558D01*
X200198145Y-116443966D01*
X200267006Y-116493996D01*
X200372484Y-116547740D01*
X200428360Y-116576211D01*
X200428363Y-116576212D01*
X200514476Y-116604191D01*
X200600591Y-116632171D01*
X200683429Y-116645291D01*
X200779449Y-116660500D01*
X200779454Y-116660500D01*
X200960551Y-116660500D01*
X201047259Y-116646765D01*
X201139409Y-116632171D01*
X201311639Y-116576211D01*
X201472994Y-116493996D01*
X201619501Y-116387553D01*
X201747553Y-116259501D01*
X201853996Y-116112994D01*
X201936211Y-115951639D01*
X201992171Y-115779409D01*
X202012300Y-115652318D01*
X202020500Y-115600551D01*
X202020500Y-115419448D01*
X201992170Y-115240587D01*
X201937170Y-115071310D01*
X201935175Y-115001469D01*
X201967418Y-114945314D01*
X205489029Y-111423703D01*
X205550349Y-111390221D01*
X205620041Y-111395205D01*
X205675974Y-111437077D01*
X205699321Y-111492901D01*
X205699887Y-111496658D01*
X205699888Y-111496663D01*
X205744901Y-111590131D01*
X206167517Y-111167517D01*
X206590132Y-110744901D01*
X206496663Y-110699888D01*
X206496658Y-110699887D01*
X206492901Y-110699321D01*
X206489114Y-110697560D01*
X206487784Y-110697150D01*
X206487840Y-110696967D01*
X206429545Y-110669862D01*
X206392174Y-110610827D01*
X206392652Y-110540959D01*
X206423703Y-110489030D01*
X206846515Y-110066219D01*
X206907838Y-110032734D01*
X206934196Y-110029900D01*
X209018053Y-110029900D01*
X209085092Y-110049585D01*
X209130847Y-110102389D01*
X209140791Y-110171547D01*
X209135094Y-110194856D01*
X209092291Y-110317176D01*
X209092289Y-110317185D01*
X209089500Y-110346929D01*
X209089500Y-110733070D01*
X209092289Y-110762814D01*
X209092291Y-110762826D01*
X209136147Y-110888155D01*
X209179419Y-110946787D01*
X209203390Y-111012416D01*
X209188074Y-111080587D01*
X209179419Y-111094055D01*
X209136596Y-111152077D01*
X209102332Y-111250000D01*
X209576000Y-111250000D01*
X209643039Y-111269685D01*
X209688794Y-111322489D01*
X209700000Y-111374000D01*
X209700000Y-111500000D01*
X209826000Y-111500000D01*
X209893039Y-111519685D01*
X209938794Y-111572489D01*
X209950000Y-111624000D01*
X209950000Y-112077467D01*
X209952729Y-112077212D01*
X210077919Y-112033405D01*
X210184640Y-111954641D01*
X210202367Y-111930622D01*
X210258013Y-111888370D01*
X210327669Y-111882910D01*
X210389220Y-111915975D01*
X210423122Y-111977068D01*
X210418614Y-112046792D01*
X210417495Y-112049738D01*
X210410123Y-112068433D01*
X210407240Y-112092441D01*
X210399500Y-112156898D01*
X210399500Y-112943102D01*
X210404124Y-112981604D01*
X210410122Y-113031561D01*
X210465639Y-113172343D01*
X210505096Y-113224374D01*
X210529919Y-113289685D01*
X210515491Y-113358049D01*
X210466394Y-113407760D01*
X210406292Y-113423299D01*
X210350407Y-113423299D01*
X210295069Y-113438127D01*
X210254594Y-113448972D01*
X210254593Y-113448973D01*
X210168707Y-113498561D01*
X210168702Y-113498564D01*
X210168701Y-113498565D01*
X210068702Y-113598563D01*
X210068701Y-113598563D01*
X209998567Y-113668697D01*
X209998565Y-113668700D01*
X209958789Y-113737594D01*
X209948971Y-113754599D01*
X209948969Y-113754602D01*
X209942006Y-113780589D01*
X209933988Y-113794474D01*
X209931064Y-113807919D01*
X209909913Y-113836173D01*
X209822281Y-113923805D01*
X209760958Y-113957290D01*
X209691266Y-113952306D01*
X209635333Y-113910434D01*
X209611985Y-113854604D01*
X209604994Y-113808218D01*
X209559981Y-113714749D01*
X209559980Y-113714749D01*
X209225046Y-114049684D01*
X209163723Y-114083169D01*
X209094031Y-114078185D01*
X209049684Y-114049684D01*
X208960589Y-113960589D01*
X208882594Y-114038584D01*
X208821271Y-114072069D01*
X208751579Y-114067085D01*
X208707232Y-114038584D01*
X208232056Y-113563408D01*
X208198571Y-113502085D01*
X208203555Y-113432393D01*
X208210025Y-113417941D01*
X208266851Y-113310050D01*
X208663605Y-113310050D01*
X208663605Y-113310051D01*
X208960588Y-113607034D01*
X209206426Y-113361195D01*
X209112958Y-113316183D01*
X209065710Y-113309062D01*
X209002353Y-113279605D01*
X208964980Y-113220571D01*
X208961577Y-113204927D01*
X208954456Y-113157680D01*
X208909443Y-113064212D01*
X208663605Y-113310050D01*
X208266851Y-113310050D01*
X208281754Y-113281754D01*
X208220954Y-113220954D01*
X208187469Y-113159631D01*
X208192453Y-113089939D01*
X208220954Y-113045592D01*
X208555888Y-112710658D01*
X208462420Y-112665645D01*
X208391111Y-112654898D01*
X208327754Y-112625442D01*
X208290380Y-112566408D01*
X208286977Y-112550764D01*
X208283600Y-112528361D01*
X208276117Y-112478710D01*
X208276116Y-112478707D01*
X208218502Y-112359069D01*
X208218499Y-112359065D01*
X208199443Y-112336067D01*
X208199431Y-112336053D01*
X207926404Y-112063026D01*
X207926390Y-112063014D01*
X207903392Y-112043958D01*
X207903388Y-112043955D01*
X207783750Y-111986341D01*
X207783747Y-111986340D01*
X207773657Y-111984820D01*
X207710300Y-111955363D01*
X207677400Y-111909226D01*
X207671747Y-111895432D01*
X207668004Y-111870597D01*
X207610389Y-111750957D01*
X207610386Y-111750953D01*
X207610386Y-111750952D01*
X207609597Y-111750000D01*
X209102332Y-111750000D01*
X209136596Y-111847922D01*
X209215358Y-111954641D01*
X209322080Y-112033405D01*
X209447271Y-112077212D01*
X209447269Y-112077212D01*
X209450000Y-112077467D01*
X209450000Y-111750000D01*
X209102332Y-111750000D01*
X207609597Y-111750000D01*
X207591330Y-111727954D01*
X207591318Y-111727940D01*
X207318291Y-111454913D01*
X207318277Y-111454901D01*
X207295279Y-111435845D01*
X207295275Y-111435842D01*
X207175636Y-111378228D01*
X207103579Y-111367367D01*
X207040222Y-111337910D01*
X207002849Y-111278876D01*
X206999446Y-111263232D01*
X206988698Y-111191923D01*
X206943686Y-111098455D01*
X206521071Y-111521071D01*
X206098454Y-111943686D01*
X206191923Y-111988698D01*
X206263232Y-111999446D01*
X206326589Y-112028901D01*
X206363963Y-112087934D01*
X206367367Y-112103579D01*
X206368485Y-112110996D01*
X206375604Y-112158229D01*
X206378228Y-112175634D01*
X206378228Y-112175637D01*
X206435842Y-112295275D01*
X206435845Y-112295279D01*
X206454901Y-112318277D01*
X206454913Y-112318291D01*
X206727940Y-112591318D01*
X206727954Y-112591330D01*
X206750952Y-112610386D01*
X206750956Y-112610389D01*
X206843382Y-112654898D01*
X206870597Y-112668004D01*
X206880686Y-112669524D01*
X206944041Y-112698978D01*
X206981416Y-112758011D01*
X206984820Y-112773657D01*
X206986340Y-112783747D01*
X206986341Y-112783750D01*
X207043955Y-112903388D01*
X207043958Y-112903392D01*
X207063014Y-112926390D01*
X207063016Y-112926393D01*
X207063021Y-112926398D01*
X207063022Y-112926399D01*
X207218211Y-113081588D01*
X207251695Y-113142910D01*
X207254529Y-113169268D01*
X207254529Y-113438109D01*
X207254528Y-113438127D01*
X207254528Y-113445722D01*
X207254528Y-113544908D01*
X207272211Y-113610900D01*
X207272210Y-113610900D01*
X207280198Y-113640711D01*
X207280199Y-113640715D01*
X207280200Y-113640716D01*
X207329794Y-113726615D01*
X207329796Y-113726617D01*
X207406994Y-113803815D01*
X207407000Y-113803820D01*
X208469549Y-114866369D01*
X208469559Y-114866380D01*
X208473889Y-114870710D01*
X208473890Y-114870711D01*
X208544025Y-114940846D01*
X208629924Y-114990440D01*
X208725731Y-115016111D01*
X208725732Y-115016111D01*
X208824918Y-115016111D01*
X209101372Y-115016111D01*
X209168411Y-115035796D01*
X209189048Y-115052425D01*
X209332430Y-115195807D01*
X209344246Y-115207623D01*
X209344249Y-115207625D01*
X209367247Y-115226681D01*
X209367251Y-115226684D01*
X209486889Y-115284298D01*
X209486890Y-115284298D01*
X209486892Y-115284299D01*
X209618198Y-115304090D01*
X209749504Y-115284299D01*
X209869144Y-115226684D01*
X209892155Y-115207618D01*
X210207618Y-114892155D01*
X210226684Y-114869144D01*
X210284299Y-114749504D01*
X210304090Y-114618198D01*
X210298915Y-114583866D01*
X210299593Y-114578914D01*
X210297846Y-114574230D01*
X210304281Y-114544647D01*
X210308387Y-114514645D01*
X210311925Y-114509511D01*
X210312699Y-114505957D01*
X210333847Y-114477708D01*
X210351731Y-114459823D01*
X210413055Y-114426341D01*
X210482747Y-114431327D01*
X210527090Y-114459826D01*
X210554214Y-114486949D01*
X210568700Y-114501435D01*
X210654599Y-114551029D01*
X210657746Y-114551872D01*
X210660102Y-114553308D01*
X210662103Y-114554137D01*
X210661973Y-114554448D01*
X210717406Y-114588234D01*
X210747937Y-114651080D01*
X210739645Y-114720455D01*
X210713336Y-114759328D01*
X210532576Y-114940088D01*
X210532570Y-114940094D01*
X210528702Y-114943963D01*
X210528700Y-114943965D01*
X210458565Y-115014100D01*
X210437244Y-115051029D01*
X210431852Y-115060367D01*
X210431851Y-115060369D01*
X210408972Y-115099997D01*
X210408971Y-115099999D01*
X210383299Y-115195807D01*
X210383299Y-115195809D01*
X210383299Y-115304982D01*
X210383300Y-115304995D01*
X210383300Y-118825500D01*
X210363615Y-118892539D01*
X210310811Y-118938294D01*
X210259300Y-118949500D01*
X209865143Y-118949500D01*
X209865117Y-118949502D01*
X209840012Y-118952413D01*
X209840008Y-118952415D01*
X209737235Y-118997793D01*
X209657794Y-119077234D01*
X209612415Y-119180006D01*
X209612415Y-119180008D01*
X209609500Y-119205131D01*
X209609500Y-120994856D01*
X209609502Y-120994882D01*
X209612413Y-121019987D01*
X209612415Y-121019991D01*
X209657793Y-121122764D01*
X209657794Y-121122765D01*
X209737235Y-121202206D01*
X209840009Y-121247585D01*
X209865135Y-121250500D01*
X211654864Y-121250499D01*
X211654879Y-121250497D01*
X211654882Y-121250497D01*
X211679987Y-121247586D01*
X211679988Y-121247585D01*
X211679991Y-121247585D01*
X211782765Y-121202206D01*
X211862206Y-121122765D01*
X211907585Y-121019991D01*
X211910500Y-120994865D01*
X211910499Y-120253925D01*
X211930183Y-120186888D01*
X211982987Y-120141133D01*
X212052146Y-120131189D01*
X212115702Y-120160214D01*
X212153476Y-120218992D01*
X212156972Y-120234529D01*
X212178317Y-120369293D01*
X212234251Y-120541444D01*
X212234252Y-120541447D01*
X212316431Y-120702730D01*
X212327913Y-120718532D01*
X212327913Y-120718533D01*
X212817037Y-120229409D01*
X212834075Y-120292993D01*
X212899901Y-120407007D01*
X212992993Y-120500099D01*
X213107007Y-120565925D01*
X213170590Y-120582962D01*
X212681466Y-121072085D01*
X212681466Y-121072086D01*
X212697267Y-121083566D01*
X212697275Y-121083571D01*
X212858552Y-121165747D01*
X212858555Y-121165748D01*
X213030706Y-121221682D01*
X213209494Y-121250000D01*
X213390506Y-121250000D01*
X213569293Y-121221682D01*
X213741444Y-121165748D01*
X213741452Y-121165745D01*
X213902730Y-121083568D01*
X213918532Y-121072085D01*
X213918533Y-121072085D01*
X213429410Y-120582962D01*
X213492993Y-120565925D01*
X213607007Y-120500099D01*
X213700099Y-120407007D01*
X213765925Y-120292993D01*
X213782962Y-120229409D01*
X214272085Y-120718532D01*
X214283568Y-120702730D01*
X214365745Y-120541452D01*
X214365748Y-120541444D01*
X214421683Y-120369292D01*
X214447273Y-120207721D01*
X214477202Y-120144586D01*
X214536513Y-120107654D01*
X214606376Y-120108652D01*
X214664609Y-120147261D01*
X214692219Y-120207720D01*
X214717828Y-120369410D01*
X214773787Y-120541636D01*
X214773788Y-120541639D01*
X214829664Y-120651300D01*
X214855869Y-120702730D01*
X214856006Y-120702997D01*
X214962441Y-120849494D01*
X214962445Y-120849499D01*
X215090500Y-120977554D01*
X215090505Y-120977558D01*
X215218287Y-121070396D01*
X215237006Y-121083996D01*
X215313094Y-121122765D01*
X215398360Y-121166211D01*
X215398363Y-121166212D01*
X215484476Y-121194191D01*
X215570591Y-121222171D01*
X215653429Y-121235291D01*
X215749449Y-121250500D01*
X215749454Y-121250500D01*
X215930551Y-121250500D01*
X216017259Y-121236765D01*
X216109409Y-121222171D01*
X216281639Y-121166211D01*
X216442994Y-121083996D01*
X216589501Y-120977553D01*
X216717553Y-120849501D01*
X216823996Y-120702994D01*
X216906211Y-120541639D01*
X216962171Y-120369409D01*
X216976765Y-120277259D01*
X216990500Y-120190551D01*
X216990500Y-120009448D01*
X216962189Y-119830706D01*
X216962171Y-119830591D01*
X216907170Y-119661312D01*
X216905175Y-119591470D01*
X216937416Y-119535317D01*
X217114436Y-119358299D01*
X217164029Y-119272401D01*
X217189701Y-119176593D01*
X217189701Y-119077407D01*
X217189701Y-119069812D01*
X217189700Y-119069794D01*
X217189700Y-118521796D01*
X217209385Y-118454757D01*
X217262189Y-118409002D01*
X217331347Y-118399058D01*
X217394903Y-118428083D01*
X217401381Y-118434115D01*
X217698565Y-118731299D01*
X217768701Y-118801435D01*
X217810382Y-118825500D01*
X217854593Y-118851026D01*
X217854594Y-118851027D01*
X217854596Y-118851027D01*
X217854599Y-118851029D01*
X217950407Y-118876701D01*
X217950410Y-118876701D01*
X218049590Y-118876701D01*
X218049593Y-118876701D01*
X218145401Y-118851029D01*
X218145403Y-118851027D01*
X218145405Y-118851027D01*
X218145406Y-118851026D01*
X218238337Y-118797372D01*
X218239179Y-118798830D01*
X218295303Y-118777130D01*
X218305626Y-118776700D01*
X225291795Y-118776700D01*
X225291811Y-118776701D01*
X225299407Y-118776701D01*
X225398590Y-118776701D01*
X225398593Y-118776701D01*
X225494401Y-118751029D01*
X225528574Y-118731299D01*
X225580300Y-118701435D01*
X225650435Y-118631300D01*
X225650436Y-118631297D01*
X227037820Y-117243912D01*
X227099142Y-117210429D01*
X227168834Y-117215413D01*
X227224767Y-117257285D01*
X227249184Y-117322749D01*
X227249500Y-117331595D01*
X227249500Y-121625500D01*
X227229815Y-121692539D01*
X227177011Y-121738294D01*
X227125500Y-121749500D01*
X199374500Y-121749500D01*
X199307461Y-121729815D01*
X199261706Y-121677011D01*
X199250500Y-121625500D01*
X199250500Y-65874500D01*
X199270185Y-65807461D01*
X199322989Y-65761706D01*
X199374500Y-65750500D01*
X224117403Y-65750500D01*
X224184442Y-65770185D01*
G37*
%TD.AperFunction*%
%TA.AperFunction,Conductor*%
G36*
X216355634Y-114379613D02*
G01*
X216411567Y-114421485D01*
X216435984Y-114486949D01*
X216436300Y-114495795D01*
X216436300Y-118913369D01*
X216416615Y-118980408D01*
X216363811Y-119026163D01*
X216294653Y-119036107D01*
X216273983Y-119031300D01*
X216109411Y-118977829D01*
X216109412Y-118977829D01*
X215930551Y-118949500D01*
X215930546Y-118949500D01*
X215749454Y-118949500D01*
X215749449Y-118949500D01*
X215570589Y-118977829D01*
X215398363Y-119033787D01*
X215398360Y-119033788D01*
X215237002Y-119116006D01*
X215090505Y-119222441D01*
X215090500Y-119222445D01*
X214962445Y-119350500D01*
X214962441Y-119350505D01*
X214856006Y-119497002D01*
X214773788Y-119658360D01*
X214773787Y-119658363D01*
X214717829Y-119830589D01*
X214692219Y-119992280D01*
X214662289Y-120055414D01*
X214602978Y-120092345D01*
X214533115Y-120091347D01*
X214474883Y-120052737D01*
X214447273Y-119992279D01*
X214421682Y-119830706D01*
X214365748Y-119658555D01*
X214365747Y-119658552D01*
X214283571Y-119497275D01*
X214283566Y-119497267D01*
X214272085Y-119481466D01*
X213782962Y-119970589D01*
X213765925Y-119907007D01*
X213700099Y-119792993D01*
X213607007Y-119699901D01*
X213492993Y-119634075D01*
X213429409Y-119617037D01*
X213918533Y-119127913D01*
X213902730Y-119116431D01*
X213741447Y-119034252D01*
X213741444Y-119034251D01*
X213569293Y-118978317D01*
X213390506Y-118950000D01*
X213209494Y-118950000D01*
X213030706Y-118978317D01*
X212858555Y-119034251D01*
X212858547Y-119034254D01*
X212697269Y-119116432D01*
X212681466Y-119127912D01*
X212681466Y-119127913D01*
X213170591Y-119617037D01*
X213107007Y-119634075D01*
X212992993Y-119699901D01*
X212899901Y-119792993D01*
X212834075Y-119907007D01*
X212817037Y-119970590D01*
X212327912Y-119481466D01*
X212316432Y-119497269D01*
X212234254Y-119658547D01*
X212234251Y-119658555D01*
X212178317Y-119830706D01*
X212156972Y-119965471D01*
X212127043Y-120028606D01*
X212067731Y-120065537D01*
X211997868Y-120064539D01*
X211939636Y-120025929D01*
X211911522Y-119961965D01*
X211910499Y-119946073D01*
X211910499Y-119205143D01*
X211910499Y-119205136D01*
X211907585Y-119180009D01*
X211862206Y-119077235D01*
X211782765Y-118997794D01*
X211782763Y-118997793D01*
X211679992Y-118952415D01*
X211654868Y-118949500D01*
X211654865Y-118949500D01*
X211260700Y-118949500D01*
X211193661Y-118929815D01*
X211147906Y-118877011D01*
X211136700Y-118825500D01*
X211136700Y-115452796D01*
X211156385Y-115385757D01*
X211173019Y-115365115D01*
X211425115Y-115113019D01*
X211486438Y-115079534D01*
X211512796Y-115076700D01*
X215342795Y-115076700D01*
X215342811Y-115076701D01*
X215350407Y-115076701D01*
X215449590Y-115076701D01*
X215449593Y-115076701D01*
X215545401Y-115051029D01*
X215631300Y-115001435D01*
X215701435Y-114931300D01*
X215701435Y-114931298D01*
X215711639Y-114921095D01*
X215711642Y-114921090D01*
X216224620Y-114408113D01*
X216285942Y-114374629D01*
X216355634Y-114379613D01*
G37*
%TD.AperFunction*%
%TA.AperFunction,Conductor*%
G36*
X215577339Y-112199685D02*
G01*
X215623094Y-112252489D01*
X215634300Y-112304000D01*
X215634300Y-112981604D01*
X215614615Y-113048643D01*
X215597981Y-113069285D01*
X214686085Y-113981181D01*
X214624762Y-114014666D01*
X214598404Y-114017500D01*
X211774530Y-114017500D01*
X211745089Y-114008855D01*
X211715103Y-114002332D01*
X211710087Y-113998577D01*
X211707491Y-113997815D01*
X211686849Y-113981181D01*
X211681439Y-113975771D01*
X211681437Y-113975768D01*
X211604236Y-113898567D01*
X211604234Y-113898565D01*
X211528092Y-113854604D01*
X211518336Y-113848971D01*
X211508527Y-113846343D01*
X211508527Y-113846342D01*
X211441791Y-113828460D01*
X211422527Y-113823299D01*
X211323341Y-113823299D01*
X211315745Y-113823299D01*
X211315729Y-113823300D01*
X211007396Y-113823300D01*
X210977955Y-113814655D01*
X210947969Y-113808132D01*
X210942953Y-113804377D01*
X210940357Y-113803615D01*
X210919715Y-113786981D01*
X210792610Y-113659876D01*
X210759125Y-113598553D01*
X210764109Y-113528861D01*
X210805981Y-113472928D01*
X210871445Y-113448511D01*
X210895071Y-113449079D01*
X210906898Y-113450500D01*
X211716403Y-113450500D01*
X211783442Y-113470185D01*
X211804084Y-113486819D01*
X211998301Y-113681036D01*
X212084199Y-113730629D01*
X212180007Y-113756301D01*
X212180010Y-113756301D01*
X212286789Y-113756301D01*
X212286805Y-113756300D01*
X214198379Y-113756300D01*
X214198395Y-113756301D01*
X214205991Y-113756301D01*
X214305174Y-113756301D01*
X214305177Y-113756301D01*
X214400985Y-113730629D01*
X214420259Y-113719501D01*
X214486884Y-113681035D01*
X214557019Y-113610900D01*
X214557020Y-113610897D01*
X214750690Y-113417227D01*
X214750695Y-113417223D01*
X214760898Y-113407019D01*
X214760900Y-113407019D01*
X214831035Y-113336884D01*
X214880629Y-113250985D01*
X214906300Y-113155178D01*
X214906300Y-112847653D01*
X214925985Y-112780614D01*
X214978789Y-112734859D01*
X215047947Y-112724915D01*
X215071256Y-112730612D01*
X215147272Y-112757212D01*
X215150000Y-112757467D01*
X215150000Y-112304000D01*
X215152550Y-112295314D01*
X215151262Y-112286353D01*
X215162240Y-112262312D01*
X215169685Y-112236961D01*
X215176525Y-112231033D01*
X215180287Y-112222797D01*
X215202521Y-112208507D01*
X215222489Y-112191206D01*
X215233003Y-112188918D01*
X215239065Y-112185023D01*
X215274000Y-112180000D01*
X215510300Y-112180000D01*
X215577339Y-112199685D01*
G37*
%TD.AperFunction*%
%TA.AperFunction,Conductor*%
G36*
X226602084Y-111048532D02*
G01*
X226638572Y-111045661D01*
X226706949Y-111060026D01*
X226756706Y-111109077D01*
X226772300Y-111169279D01*
X226772300Y-112203258D01*
X226752615Y-112270297D01*
X226699811Y-112316052D01*
X226630653Y-112325996D01*
X226567097Y-112296971D01*
X226547982Y-112276144D01*
X226507554Y-112220500D01*
X226379499Y-112092445D01*
X226379494Y-112092441D01*
X226232997Y-111986006D01*
X226232996Y-111986005D01*
X226232994Y-111986004D01*
X226171441Y-111954641D01*
X226071639Y-111903788D01*
X226071636Y-111903787D01*
X225899410Y-111847828D01*
X225737720Y-111822219D01*
X225674585Y-111792289D01*
X225637654Y-111732978D01*
X225638652Y-111663115D01*
X225677262Y-111604883D01*
X225737721Y-111577273D01*
X225899292Y-111551683D01*
X226071444Y-111495748D01*
X226071452Y-111495745D01*
X226232730Y-111413568D01*
X226248532Y-111402085D01*
X226248533Y-111402085D01*
X225759410Y-110912962D01*
X225822993Y-110895925D01*
X225937007Y-110830099D01*
X226030099Y-110737007D01*
X226095925Y-110622993D01*
X226112962Y-110559410D01*
X226602084Y-111048532D01*
G37*
%TD.AperFunction*%
%TA.AperFunction,Conductor*%
G36*
X212561174Y-111281930D02*
G01*
X212609651Y-111332247D01*
X212615079Y-111344132D01*
X212642463Y-111413571D01*
X212665639Y-111472343D01*
X212756808Y-111592566D01*
X212757078Y-111592922D01*
X212768401Y-111601508D01*
X212809924Y-111657698D01*
X212814478Y-111727420D01*
X212780615Y-111788535D01*
X212768406Y-111799114D01*
X212757437Y-111807432D01*
X212666078Y-111927906D01*
X212615622Y-112055853D01*
X212572716Y-112110996D01*
X212506808Y-112134189D01*
X212438824Y-112118068D01*
X212390348Y-112067751D01*
X212384920Y-112055868D01*
X212334361Y-111927658D01*
X212334361Y-111927657D01*
X212242921Y-111807076D01*
X212231599Y-111798491D01*
X212190074Y-111742300D01*
X212185521Y-111672578D01*
X212219385Y-111611464D01*
X212231600Y-111600880D01*
X212242563Y-111592566D01*
X212333920Y-111472095D01*
X212384376Y-111344147D01*
X212427282Y-111289003D01*
X212493190Y-111265810D01*
X212561174Y-111281930D01*
G37*
%TD.AperFunction*%
%TA.AperFunction,Conductor*%
G36*
X209703311Y-108286385D02*
G01*
X209749066Y-108339189D01*
X209759010Y-108408347D01*
X209729985Y-108471903D01*
X209723953Y-108478381D01*
X209267953Y-108934381D01*
X209206630Y-108967866D01*
X209180272Y-108970700D01*
X204443006Y-108970700D01*
X204347197Y-108996371D01*
X204261300Y-109045965D01*
X204261297Y-109045967D01*
X204191163Y-109116102D01*
X201434685Y-111872579D01*
X201373362Y-111906064D01*
X201308687Y-111902829D01*
X201139411Y-111847829D01*
X201139412Y-111847829D01*
X200977720Y-111822219D01*
X200914585Y-111792289D01*
X200877654Y-111732978D01*
X200878652Y-111663115D01*
X200917262Y-111604883D01*
X200977721Y-111577273D01*
X201139292Y-111551683D01*
X201311444Y-111495748D01*
X201311452Y-111495745D01*
X201472730Y-111413568D01*
X201488532Y-111402085D01*
X201488533Y-111402085D01*
X200999410Y-110912962D01*
X201062993Y-110895925D01*
X201177007Y-110830099D01*
X201270099Y-110737007D01*
X201335925Y-110622993D01*
X201352962Y-110559409D01*
X201842085Y-111048532D01*
X201853568Y-111032730D01*
X201935745Y-110871452D01*
X201935748Y-110871444D01*
X201991682Y-110699293D01*
X202020000Y-110520506D01*
X202020000Y-110339493D01*
X201991682Y-110160706D01*
X201935748Y-109988555D01*
X201935747Y-109988552D01*
X201853571Y-109827275D01*
X201853566Y-109827267D01*
X201842085Y-109811466D01*
X201352962Y-110300589D01*
X201335925Y-110237007D01*
X201270099Y-110122993D01*
X201177007Y-110029901D01*
X201062993Y-109964075D01*
X200999409Y-109947037D01*
X201488533Y-109457913D01*
X201472730Y-109446431D01*
X201311447Y-109364252D01*
X201311444Y-109364251D01*
X201139293Y-109308317D01*
X200977720Y-109282726D01*
X200914585Y-109252797D01*
X200877654Y-109193485D01*
X200878652Y-109123623D01*
X200917262Y-109065390D01*
X200977720Y-109037780D01*
X201007135Y-109033121D01*
X201139409Y-109012171D01*
X201311639Y-108956211D01*
X201472994Y-108873996D01*
X201619501Y-108767553D01*
X201747553Y-108639501D01*
X201853996Y-108492994D01*
X201934802Y-108334405D01*
X201982777Y-108283609D01*
X202045287Y-108266700D01*
X209636272Y-108266700D01*
X209703311Y-108286385D01*
G37*
%TD.AperFunction*%
%TA.AperFunction,Conductor*%
G36*
X223499643Y-106296385D02*
G01*
X223520285Y-106313019D01*
X224532579Y-107325313D01*
X224566064Y-107386636D01*
X224562829Y-107451311D01*
X224507829Y-107620587D01*
X224479500Y-107799448D01*
X224479500Y-107980551D01*
X224507829Y-108159410D01*
X224563787Y-108331636D01*
X224563788Y-108331639D01*
X224619664Y-108441300D01*
X224638558Y-108478381D01*
X224646006Y-108492997D01*
X224752441Y-108639494D01*
X224752445Y-108639499D01*
X224880500Y-108767554D01*
X224880505Y-108767558D01*
X225001084Y-108855163D01*
X225027006Y-108873996D01*
X225132484Y-108927740D01*
X225188360Y-108956211D01*
X225188363Y-108956212D01*
X225232954Y-108970700D01*
X225360591Y-109012171D01*
X225480038Y-109031089D01*
X225522279Y-109037780D01*
X225585414Y-109067709D01*
X225622345Y-109127021D01*
X225621347Y-109196883D01*
X225582737Y-109255116D01*
X225522279Y-109282726D01*
X225360706Y-109308317D01*
X225188555Y-109364251D01*
X225188547Y-109364254D01*
X225027269Y-109446432D01*
X225011466Y-109457912D01*
X225011466Y-109457913D01*
X225500591Y-109947037D01*
X225437007Y-109964075D01*
X225322993Y-110029901D01*
X225229901Y-110122993D01*
X225164075Y-110237007D01*
X225147037Y-110300590D01*
X224657913Y-109811466D01*
X224657912Y-109811466D01*
X224646432Y-109827269D01*
X224564254Y-109988547D01*
X224564251Y-109988555D01*
X224508317Y-110160706D01*
X224480000Y-110339493D01*
X224480000Y-110520506D01*
X224508317Y-110699293D01*
X224564251Y-110871444D01*
X224564252Y-110871447D01*
X224646431Y-111032730D01*
X224657913Y-111048532D01*
X224657913Y-111048533D01*
X225147037Y-110559409D01*
X225164075Y-110622993D01*
X225229901Y-110737007D01*
X225322993Y-110830099D01*
X225437007Y-110895925D01*
X225500590Y-110912962D01*
X225011466Y-111402085D01*
X225011466Y-111402086D01*
X225027267Y-111413566D01*
X225027275Y-111413571D01*
X225188552Y-111495747D01*
X225188555Y-111495748D01*
X225360706Y-111551682D01*
X225522279Y-111577273D01*
X225585413Y-111607202D01*
X225622345Y-111666513D01*
X225621347Y-111736376D01*
X225582738Y-111794609D01*
X225522280Y-111822219D01*
X225360586Y-111847829D01*
X225191311Y-111902829D01*
X225121470Y-111904824D01*
X225065313Y-111872579D01*
X219706003Y-106513269D01*
X219698935Y-106506201D01*
X219698935Y-106506200D01*
X219681114Y-106488379D01*
X219647630Y-106427056D01*
X219650479Y-106387226D01*
X219652615Y-106357366D01*
X219664781Y-106341115D01*
X219677236Y-106324477D01*
X219694487Y-106301433D01*
X219694487Y-106301432D01*
X219694489Y-106301431D01*
X219735536Y-106286122D01*
X219759951Y-106277016D01*
X219768797Y-106276700D01*
X223432604Y-106276700D01*
X223499643Y-106296385D01*
G37*
%TD.AperFunction*%
%TA.AperFunction,Conductor*%
G36*
X226734720Y-108567816D02*
G01*
X226769077Y-108628655D01*
X226772300Y-108656741D01*
X226772300Y-109690719D01*
X226752615Y-109757758D01*
X226699811Y-109803513D01*
X226638573Y-109814337D01*
X226602086Y-109811466D01*
X226112962Y-110300589D01*
X226095925Y-110237007D01*
X226030099Y-110122993D01*
X225937007Y-110029901D01*
X225822993Y-109964075D01*
X225759409Y-109947037D01*
X226248533Y-109457913D01*
X226232730Y-109446431D01*
X226071447Y-109364252D01*
X226071444Y-109364251D01*
X225899293Y-109308317D01*
X225737720Y-109282726D01*
X225674585Y-109252797D01*
X225637654Y-109193485D01*
X225638652Y-109123623D01*
X225677262Y-109065390D01*
X225737720Y-109037780D01*
X225767135Y-109033121D01*
X225899409Y-109012171D01*
X226071639Y-108956211D01*
X226232994Y-108873996D01*
X226379501Y-108767553D01*
X226507553Y-108639501D01*
X226507555Y-108639497D01*
X226507558Y-108639495D01*
X226547982Y-108583856D01*
X226603311Y-108541190D01*
X226672925Y-108535211D01*
X226734720Y-108567816D01*
G37*
%TD.AperFunction*%
%TA.AperFunction,Conductor*%
G36*
X210942634Y-108860147D02*
G01*
X210998567Y-108902019D01*
X211022984Y-108967483D01*
X211023300Y-108976329D01*
X211023300Y-109472100D01*
X211020749Y-109480785D01*
X211022038Y-109489747D01*
X211011059Y-109513787D01*
X211003615Y-109539139D01*
X210996774Y-109545066D01*
X210993013Y-109553303D01*
X210970778Y-109567592D01*
X210950811Y-109584894D01*
X210940296Y-109587181D01*
X210934235Y-109591077D01*
X210899300Y-109596100D01*
X210704405Y-109596100D01*
X210704389Y-109596099D01*
X210696793Y-109596099D01*
X210597607Y-109596099D01*
X210501799Y-109621771D01*
X210501797Y-109621771D01*
X210501797Y-109621772D01*
X210415900Y-109671365D01*
X210415897Y-109671367D01*
X210345763Y-109741502D01*
X210135443Y-109951821D01*
X210120883Y-109959770D01*
X210109395Y-109971738D01*
X210090851Y-109976169D01*
X210074120Y-109985306D01*
X210057010Y-109984257D01*
X210041439Y-109987979D01*
X210006806Y-109981181D01*
X209979935Y-109971778D01*
X209923159Y-109931055D01*
X209897413Y-109866102D01*
X209910870Y-109797541D01*
X209933207Y-109767059D01*
X210811619Y-108888648D01*
X210872942Y-108855163D01*
X210942634Y-108860147D01*
G37*
%TD.AperFunction*%
%TA.AperFunction,Conductor*%
G36*
X213873776Y-100923973D02*
G01*
X213918123Y-100952474D01*
X213967085Y-101001436D01*
X213967086Y-101001437D01*
X213967088Y-101001438D01*
X213998364Y-101019495D01*
X214052983Y-101051029D01*
X214148791Y-101076701D01*
X214148794Y-101076701D01*
X214255573Y-101076701D01*
X214255589Y-101076700D01*
X215839232Y-101076700D01*
X215870424Y-101085859D01*
X215901967Y-101093741D01*
X215903760Y-101095647D01*
X215906271Y-101096385D01*
X215927550Y-101120943D01*
X215949835Y-101144637D01*
X215950845Y-101147827D01*
X215952026Y-101149189D01*
X215961149Y-101178069D01*
X215962000Y-101182653D01*
X215962000Y-101183260D01*
X215971927Y-101251393D01*
X215976494Y-101260736D01*
X215979582Y-101277369D01*
X215977675Y-101295981D01*
X215980823Y-101314425D01*
X215973594Y-101339044D01*
X215974770Y-101339408D01*
X215972464Y-101346868D01*
X215972464Y-101346875D01*
X215972461Y-101346877D01*
X215971925Y-101348611D01*
X215962000Y-101416739D01*
X215962000Y-101583260D01*
X215971925Y-101651388D01*
X215974770Y-101660592D01*
X215971794Y-101661511D01*
X215980823Y-101714425D01*
X215973594Y-101739044D01*
X215974770Y-101739408D01*
X215971925Y-101748611D01*
X215962000Y-101816739D01*
X215962000Y-101983260D01*
X215971925Y-102051388D01*
X215974770Y-102060592D01*
X215971794Y-102061511D01*
X215980823Y-102114425D01*
X215973594Y-102139044D01*
X215974770Y-102139408D01*
X215971925Y-102148611D01*
X215962000Y-102216739D01*
X215962000Y-102383260D01*
X215971925Y-102451388D01*
X215974770Y-102460592D01*
X215971794Y-102461511D01*
X215980823Y-102514425D01*
X215973594Y-102539044D01*
X215974770Y-102539408D01*
X215971925Y-102548611D01*
X215962000Y-102616739D01*
X215962000Y-102783260D01*
X215971925Y-102851388D01*
X215974770Y-102860592D01*
X215971794Y-102861511D01*
X215980823Y-102914425D01*
X215973594Y-102939044D01*
X215974770Y-102939408D01*
X215971925Y-102948611D01*
X215962000Y-103016739D01*
X215962000Y-103183260D01*
X215971925Y-103251388D01*
X215974770Y-103260592D01*
X215971794Y-103261511D01*
X215980823Y-103314425D01*
X215973594Y-103339044D01*
X215974770Y-103339408D01*
X215971925Y-103348611D01*
X215962000Y-103416739D01*
X215962000Y-103583260D01*
X215971925Y-103651388D01*
X215974770Y-103660592D01*
X215971794Y-103661511D01*
X215980823Y-103714425D01*
X215973594Y-103739044D01*
X215974770Y-103739408D01*
X215971925Y-103748611D01*
X215962000Y-103816739D01*
X215962000Y-103983260D01*
X215971925Y-104051388D01*
X215974770Y-104060592D01*
X215971794Y-104061511D01*
X215980823Y-104114425D01*
X215973594Y-104139044D01*
X215974770Y-104139408D01*
X215971925Y-104148611D01*
X215962000Y-104216739D01*
X215962000Y-104383260D01*
X215971925Y-104451388D01*
X215974770Y-104460592D01*
X215971794Y-104461511D01*
X215980823Y-104514425D01*
X215973594Y-104539044D01*
X215974770Y-104539408D01*
X215971925Y-104548611D01*
X215962000Y-104616739D01*
X215962000Y-104783260D01*
X215971925Y-104851388D01*
X215974770Y-104860592D01*
X215971794Y-104861511D01*
X215980823Y-104914425D01*
X215973594Y-104939044D01*
X215974770Y-104939408D01*
X215971925Y-104948611D01*
X215962000Y-105016739D01*
X215962000Y-105183260D01*
X215971925Y-105251388D01*
X215974770Y-105260592D01*
X215971794Y-105261511D01*
X215980823Y-105314425D01*
X215973594Y-105339044D01*
X215974770Y-105339408D01*
X215971925Y-105348611D01*
X215962000Y-105416739D01*
X215962000Y-105583260D01*
X215971925Y-105651388D01*
X215974770Y-105660592D01*
X215971833Y-105661499D01*
X215980894Y-105713808D01*
X215978501Y-105735157D01*
X215971927Y-105748607D01*
X215962000Y-105816740D01*
X215962000Y-105882427D01*
X215961229Y-105889308D01*
X215950283Y-105915401D01*
X215942315Y-105942539D01*
X215936950Y-105947187D01*
X215934202Y-105953739D01*
X215910884Y-105969774D01*
X215889511Y-105988294D01*
X215881380Y-105990062D01*
X215876631Y-105993329D01*
X215864646Y-105993703D01*
X215838000Y-105999500D01*
X215779239Y-105999500D01*
X215711111Y-106009425D01*
X215701908Y-106012270D01*
X215700988Y-106009294D01*
X215648075Y-106018323D01*
X215623455Y-106011094D01*
X215623092Y-106012270D01*
X215613888Y-106009425D01*
X215545761Y-105999500D01*
X215545760Y-105999500D01*
X215379240Y-105999500D01*
X215379239Y-105999500D01*
X215311111Y-106009425D01*
X215301908Y-106012270D01*
X215300988Y-106009294D01*
X215248075Y-106018323D01*
X215223455Y-106011094D01*
X215223092Y-106012270D01*
X215213888Y-106009425D01*
X215145761Y-105999500D01*
X215145760Y-105999500D01*
X214979240Y-105999500D01*
X214979239Y-105999500D01*
X214911111Y-106009425D01*
X214901908Y-106012270D01*
X214900988Y-106009294D01*
X214848075Y-106018323D01*
X214823455Y-106011094D01*
X214823092Y-106012270D01*
X214813888Y-106009425D01*
X214745761Y-105999500D01*
X214745760Y-105999500D01*
X214579240Y-105999500D01*
X214579239Y-105999500D01*
X214511111Y-106009425D01*
X214501908Y-106012270D01*
X214500988Y-106009294D01*
X214448075Y-106018323D01*
X214423455Y-106011094D01*
X214423092Y-106012270D01*
X214413888Y-106009425D01*
X214345761Y-105999500D01*
X214345760Y-105999500D01*
X214179240Y-105999500D01*
X214179239Y-105999500D01*
X214111111Y-106009425D01*
X214101908Y-106012270D01*
X214100988Y-106009294D01*
X214048075Y-106018323D01*
X214023455Y-106011094D01*
X214023092Y-106012270D01*
X214013888Y-106009425D01*
X213945761Y-105999500D01*
X213945760Y-105999500D01*
X213779240Y-105999500D01*
X213779239Y-105999500D01*
X213711111Y-106009425D01*
X213701908Y-106012270D01*
X213700988Y-106009294D01*
X213648075Y-106018323D01*
X213623455Y-106011094D01*
X213623092Y-106012270D01*
X213613888Y-106009425D01*
X213545761Y-105999500D01*
X213545760Y-105999500D01*
X213379240Y-105999500D01*
X213379239Y-105999500D01*
X213311111Y-106009425D01*
X213301908Y-106012270D01*
X213300988Y-106009294D01*
X213248075Y-106018323D01*
X213223455Y-106011094D01*
X213223092Y-106012270D01*
X213213888Y-106009425D01*
X213145761Y-105999500D01*
X213145760Y-105999500D01*
X212979240Y-105999500D01*
X212979239Y-105999500D01*
X212911111Y-106009425D01*
X212901908Y-106012270D01*
X212900988Y-106009294D01*
X212848075Y-106018323D01*
X212823455Y-106011094D01*
X212823092Y-106012270D01*
X212813888Y-106009425D01*
X212745761Y-105999500D01*
X212745760Y-105999500D01*
X212579240Y-105999500D01*
X212579239Y-105999500D01*
X212511111Y-106009425D01*
X212501908Y-106012270D01*
X212501042Y-106009468D01*
X212447489Y-106018598D01*
X212423335Y-106011504D01*
X212422949Y-106012755D01*
X212413750Y-106009912D01*
X212345714Y-106000000D01*
X212179286Y-106000000D01*
X212111247Y-106009913D01*
X212102050Y-106012755D01*
X212101092Y-106009655D01*
X212048611Y-106018596D01*
X212023426Y-106011197D01*
X212023095Y-106012270D01*
X212013892Y-106009426D01*
X211945761Y-105999500D01*
X211945760Y-105999500D01*
X211779240Y-105999500D01*
X211779239Y-105999500D01*
X211711111Y-106009425D01*
X211701908Y-106012270D01*
X211700988Y-106009294D01*
X211648075Y-106018323D01*
X211623455Y-106011094D01*
X211623092Y-106012270D01*
X211613888Y-106009425D01*
X211545761Y-105999500D01*
X211545760Y-105999500D01*
X211379240Y-105999500D01*
X211379239Y-105999500D01*
X211311111Y-106009425D01*
X211301908Y-106012270D01*
X211300988Y-106009294D01*
X211248075Y-106018323D01*
X211223455Y-106011094D01*
X211223092Y-106012270D01*
X211213888Y-106009425D01*
X211145761Y-105999500D01*
X211145760Y-105999500D01*
X210979240Y-105999500D01*
X210979239Y-105999500D01*
X210911111Y-106009425D01*
X210901908Y-106012270D01*
X210901000Y-106009333D01*
X210848692Y-106018394D01*
X210827342Y-106016001D01*
X210813893Y-106009427D01*
X210745760Y-105999500D01*
X210680073Y-105999500D01*
X210673192Y-105998729D01*
X210647098Y-105987783D01*
X210619961Y-105979815D01*
X210615312Y-105974450D01*
X210608761Y-105971702D01*
X210592725Y-105948384D01*
X210574206Y-105927011D01*
X210572437Y-105918880D01*
X210569171Y-105914131D01*
X210568796Y-105902146D01*
X210563000Y-105875500D01*
X210563000Y-105816745D01*
X210563000Y-105816740D01*
X210553073Y-105748607D01*
X210553071Y-105748604D01*
X210553071Y-105748600D01*
X210550230Y-105739404D01*
X210553209Y-105738483D01*
X210544173Y-105685610D01*
X210551410Y-105660960D01*
X210550230Y-105660596D01*
X210553071Y-105651399D01*
X210553071Y-105651396D01*
X210553073Y-105651393D01*
X210563000Y-105583260D01*
X210563000Y-105416740D01*
X210553073Y-105348607D01*
X210553071Y-105348604D01*
X210553071Y-105348600D01*
X210550230Y-105339404D01*
X210553209Y-105338483D01*
X210544173Y-105285610D01*
X210551410Y-105260960D01*
X210550230Y-105260596D01*
X210553071Y-105251399D01*
X210553071Y-105251396D01*
X210553073Y-105251393D01*
X210563000Y-105183260D01*
X210563000Y-105016740D01*
X210553073Y-104948607D01*
X210553071Y-104948604D01*
X210553071Y-104948600D01*
X210550230Y-104939404D01*
X210553209Y-104938483D01*
X210544173Y-104885610D01*
X210551410Y-104860960D01*
X210550230Y-104860596D01*
X210553071Y-104851399D01*
X210553071Y-104851396D01*
X210553073Y-104851393D01*
X210563000Y-104783260D01*
X210563000Y-104616740D01*
X210553073Y-104548607D01*
X210553071Y-104548604D01*
X210553071Y-104548600D01*
X210550230Y-104539404D01*
X210553209Y-104538483D01*
X210544173Y-104485610D01*
X210551410Y-104460960D01*
X210550230Y-104460596D01*
X210553071Y-104451399D01*
X210553071Y-104451396D01*
X210553073Y-104451393D01*
X210563000Y-104383260D01*
X210563000Y-104216740D01*
X210553073Y-104148607D01*
X210553071Y-104148604D01*
X210553071Y-104148600D01*
X210550230Y-104139404D01*
X210553209Y-104138483D01*
X210544173Y-104085610D01*
X210551410Y-104060960D01*
X210550230Y-104060596D01*
X210553071Y-104051399D01*
X210553071Y-104051396D01*
X210553073Y-104051393D01*
X210563000Y-103983260D01*
X210563000Y-103816740D01*
X210553073Y-103748607D01*
X210553071Y-103748604D01*
X210553071Y-103748600D01*
X210550230Y-103739404D01*
X210553209Y-103738483D01*
X210544173Y-103685610D01*
X210551410Y-103660960D01*
X210550230Y-103660596D01*
X210553071Y-103651399D01*
X210553071Y-103651396D01*
X210553073Y-103651393D01*
X210563000Y-103583260D01*
X210563000Y-103416740D01*
X210553073Y-103348607D01*
X210553071Y-103348604D01*
X210553071Y-103348600D01*
X210550230Y-103339404D01*
X210553209Y-103338483D01*
X210544173Y-103285610D01*
X210551410Y-103260960D01*
X210550230Y-103260596D01*
X210553071Y-103251399D01*
X210553071Y-103251396D01*
X210553073Y-103251393D01*
X210563000Y-103183260D01*
X210563000Y-103016740D01*
X210553073Y-102948607D01*
X210553071Y-102948604D01*
X210553071Y-102948600D01*
X210550230Y-102939404D01*
X210553209Y-102938483D01*
X210544173Y-102885610D01*
X210551410Y-102860960D01*
X210550230Y-102860596D01*
X210553071Y-102851399D01*
X210553071Y-102851396D01*
X210553073Y-102851393D01*
X210563000Y-102783260D01*
X210563000Y-102616740D01*
X210553073Y-102548607D01*
X210553071Y-102548604D01*
X210553071Y-102548600D01*
X210550230Y-102539404D01*
X210553209Y-102538483D01*
X210544173Y-102485610D01*
X210551410Y-102460960D01*
X210550230Y-102460596D01*
X210553071Y-102451399D01*
X210553071Y-102451396D01*
X210553073Y-102451393D01*
X210563000Y-102383260D01*
X210563000Y-102216740D01*
X210553073Y-102148607D01*
X210553071Y-102148604D01*
X210553071Y-102148600D01*
X210550230Y-102139404D01*
X210553209Y-102138483D01*
X210544173Y-102085610D01*
X210551410Y-102060960D01*
X210550230Y-102060596D01*
X210553071Y-102051399D01*
X210553071Y-102051396D01*
X210553073Y-102051393D01*
X210563000Y-101983260D01*
X210563000Y-101816740D01*
X210553073Y-101748607D01*
X210553071Y-101748604D01*
X210553071Y-101748600D01*
X210550230Y-101739404D01*
X210553209Y-101738483D01*
X210544173Y-101685610D01*
X210551410Y-101660960D01*
X210550230Y-101660596D01*
X210553071Y-101651399D01*
X210553071Y-101651396D01*
X210553073Y-101651393D01*
X210563000Y-101583260D01*
X210563000Y-101416740D01*
X210553073Y-101348607D01*
X210553071Y-101348604D01*
X210553071Y-101348600D01*
X210550230Y-101339404D01*
X210553209Y-101338483D01*
X210544173Y-101285610D01*
X210545418Y-101277369D01*
X210548505Y-101260735D01*
X210553073Y-101251393D01*
X210563000Y-101183260D01*
X210563000Y-101182653D01*
X210563851Y-101178069D01*
X210578599Y-101148971D01*
X210592208Y-101119321D01*
X210594311Y-101117974D01*
X210595440Y-101115748D01*
X210623571Y-101099248D01*
X210651057Y-101081657D01*
X210654369Y-101081183D01*
X210655708Y-101080399D01*
X210658942Y-101080530D01*
X210685768Y-101076700D01*
X213405295Y-101076700D01*
X213405311Y-101076701D01*
X213412907Y-101076701D01*
X213512090Y-101076701D01*
X213512093Y-101076701D01*
X213607901Y-101051029D01*
X213628393Y-101039198D01*
X213693800Y-101001435D01*
X213742761Y-100952474D01*
X213804084Y-100918989D01*
X213873776Y-100923973D01*
G37*
%TD.AperFunction*%
%TA.AperFunction,Conductor*%
G36*
X201842085Y-98348532D02*
G01*
X201853568Y-98332730D01*
X201935745Y-98171452D01*
X201935748Y-98171444D01*
X201981369Y-98031036D01*
X202020806Y-97973361D01*
X202085165Y-97946162D01*
X202154011Y-97958076D01*
X202205487Y-98005320D01*
X202223300Y-98069354D01*
X202223300Y-99929026D01*
X202203615Y-99996065D01*
X202150811Y-100041820D01*
X202081653Y-100051764D01*
X202018097Y-100022739D01*
X201981369Y-99967344D01*
X201936212Y-99828363D01*
X201936211Y-99828360D01*
X201871625Y-99701605D01*
X201853996Y-99667006D01*
X201833579Y-99638904D01*
X201747558Y-99520505D01*
X201747554Y-99520500D01*
X201619499Y-99392445D01*
X201619494Y-99392441D01*
X201472997Y-99286006D01*
X201472996Y-99286005D01*
X201472994Y-99286004D01*
X201416489Y-99257213D01*
X201311639Y-99203788D01*
X201311636Y-99203787D01*
X201139410Y-99147828D01*
X200977720Y-99122219D01*
X200914585Y-99092289D01*
X200877654Y-99032978D01*
X200878652Y-98963115D01*
X200917262Y-98904883D01*
X200977721Y-98877273D01*
X201139292Y-98851683D01*
X201311444Y-98795748D01*
X201311452Y-98795745D01*
X201472730Y-98713568D01*
X201488532Y-98702085D01*
X201488533Y-98702085D01*
X200999410Y-98212962D01*
X201062993Y-98195925D01*
X201177007Y-98130099D01*
X201270099Y-98037007D01*
X201335925Y-97922993D01*
X201352962Y-97859409D01*
X201842085Y-98348532D01*
G37*
%TD.AperFunction*%
%TA.AperFunction,Conductor*%
G36*
X207581903Y-96889083D02*
G01*
X207588381Y-96895115D01*
X208777601Y-98084335D01*
X208811086Y-98145658D01*
X208806102Y-98215350D01*
X208764230Y-98271283D01*
X208763560Y-98271782D01*
X208758534Y-98275491D01*
X208753217Y-98279415D01*
X208687592Y-98303390D01*
X208619420Y-98288078D01*
X208605945Y-98279419D01*
X208547920Y-98236594D01*
X208450000Y-98202330D01*
X208450000Y-99416000D01*
X208430315Y-99483039D01*
X208377511Y-99528794D01*
X208326000Y-99540000D01*
X208290000Y-99540000D01*
X208290000Y-99676000D01*
X208270315Y-99743039D01*
X208217511Y-99788794D01*
X208166000Y-99800000D01*
X207914000Y-99800000D01*
X207846961Y-99780315D01*
X207801206Y-99727511D01*
X207790000Y-99676000D01*
X207790000Y-99184000D01*
X207809685Y-99116961D01*
X207862489Y-99071206D01*
X207914000Y-99060000D01*
X207950000Y-99060000D01*
X207950000Y-98202330D01*
X207949999Y-98202330D01*
X207852079Y-98236594D01*
X207745358Y-98315358D01*
X207666594Y-98422080D01*
X207622786Y-98547272D01*
X207621844Y-98551590D01*
X207588308Y-98612885D01*
X207526957Y-98646319D01*
X207457270Y-98641277D01*
X207401371Y-98599359D01*
X207377009Y-98533874D01*
X207376700Y-98525131D01*
X207376700Y-96982796D01*
X207396385Y-96915757D01*
X207449189Y-96870002D01*
X207518347Y-96860058D01*
X207581903Y-96889083D01*
G37*
%TD.AperFunction*%
%TA.AperFunction,Conductor*%
G36*
X226602084Y-98348532D02*
G01*
X226638572Y-98345661D01*
X226706949Y-98360026D01*
X226756706Y-98409077D01*
X226772300Y-98469279D01*
X226772300Y-99503258D01*
X226752615Y-99570297D01*
X226699811Y-99616052D01*
X226630653Y-99625996D01*
X226567097Y-99596971D01*
X226547982Y-99576144D01*
X226507554Y-99520500D01*
X226379499Y-99392445D01*
X226379494Y-99392441D01*
X226232997Y-99286006D01*
X226232996Y-99286005D01*
X226232994Y-99286004D01*
X226176489Y-99257213D01*
X226071639Y-99203788D01*
X226071636Y-99203787D01*
X225899410Y-99147828D01*
X225737720Y-99122219D01*
X225674585Y-99092289D01*
X225637654Y-99032978D01*
X225638652Y-98963115D01*
X225677262Y-98904883D01*
X225737721Y-98877273D01*
X225899292Y-98851683D01*
X226071444Y-98795748D01*
X226071452Y-98795745D01*
X226232730Y-98713568D01*
X226248532Y-98702085D01*
X225759409Y-98212962D01*
X225822993Y-98195925D01*
X225937007Y-98130099D01*
X226030099Y-98037007D01*
X226095925Y-97922993D01*
X226112962Y-97859410D01*
X226602084Y-98348532D01*
G37*
%TD.AperFunction*%
%TA.AperFunction,Conductor*%
G36*
X214982227Y-75984571D02*
G01*
X214999590Y-75983211D01*
X215015660Y-75991844D01*
X215033484Y-75995722D01*
X215060442Y-76015903D01*
X215061140Y-76016278D01*
X215061738Y-76016873D01*
X215146301Y-76101436D01*
X215146302Y-76101437D01*
X215146304Y-76101438D01*
X215176101Y-76118641D01*
X215232199Y-76151029D01*
X215328007Y-76176701D01*
X215328010Y-76176701D01*
X215434789Y-76176701D01*
X215434805Y-76176700D01*
X215592619Y-76176700D01*
X215659658Y-76196385D01*
X215692389Y-76227066D01*
X215743576Y-76296423D01*
X215796391Y-76335402D01*
X215849206Y-76374381D01*
X215886563Y-76387453D01*
X215973119Y-76417741D01*
X215980796Y-76418460D01*
X216002543Y-76420500D01*
X216377456Y-76420499D01*
X216406879Y-76417741D01*
X216530794Y-76374381D01*
X216626788Y-76303533D01*
X216692416Y-76279563D01*
X216760586Y-76294878D01*
X216774056Y-76303535D01*
X216869439Y-76373932D01*
X216869442Y-76373934D01*
X216993207Y-76417242D01*
X216993219Y-76417244D01*
X217022602Y-76420000D01*
X217022904Y-76420000D01*
X217022962Y-76420017D01*
X217025503Y-76420136D01*
X217025474Y-76420754D01*
X217089943Y-76439685D01*
X217135698Y-76492489D01*
X217145642Y-76561647D01*
X217116617Y-76625203D01*
X217110585Y-76631681D01*
X216054085Y-77688181D01*
X215992762Y-77721666D01*
X215966404Y-77724500D01*
X215508856Y-77724500D01*
X215470841Y-77729065D01*
X215424411Y-77734640D01*
X215290023Y-77787636D01*
X215174920Y-77874922D01*
X215098488Y-77975712D01*
X215042295Y-78017235D01*
X214972574Y-78021786D01*
X214911460Y-77987920D01*
X214900881Y-77975711D01*
X214824721Y-77875278D01*
X214709729Y-77788077D01*
X214575467Y-77735131D01*
X214491102Y-77725000D01*
X214475000Y-77725000D01*
X214475000Y-79275000D01*
X214491102Y-79275000D01*
X214575467Y-79264868D01*
X214575468Y-79264868D01*
X214709729Y-79211922D01*
X214824721Y-79124721D01*
X214900881Y-79024288D01*
X214957073Y-78982765D01*
X215026794Y-78978213D01*
X215087908Y-79012077D01*
X215098488Y-79024287D01*
X215153763Y-79097176D01*
X215174922Y-79125078D01*
X215211602Y-79152894D01*
X215290023Y-79212363D01*
X215290024Y-79212363D01*
X215290025Y-79212364D01*
X215424410Y-79265359D01*
X215508856Y-79275500D01*
X215508862Y-79275500D01*
X216041138Y-79275500D01*
X216041144Y-79275500D01*
X216125590Y-79265359D01*
X216259975Y-79212364D01*
X216375078Y-79125078D01*
X216399026Y-79093498D01*
X216455213Y-79051977D01*
X216524935Y-79047423D01*
X216585509Y-79080743D01*
X216763181Y-79258415D01*
X216796666Y-79319738D01*
X216799500Y-79346096D01*
X216799500Y-80004269D01*
X216802353Y-80034699D01*
X216803964Y-80042073D01*
X216801423Y-80042627D01*
X216804343Y-80100023D01*
X216769604Y-80160644D01*
X216751465Y-80170069D01*
X216752245Y-80171168D01*
X216700000Y-80208237D01*
X216700000Y-82266760D01*
X216812645Y-82227346D01*
X216825665Y-82217737D01*
X216891293Y-82193765D01*
X216959464Y-82209079D01*
X217008533Y-82258819D01*
X217023300Y-82317506D01*
X217023300Y-83507953D01*
X217023299Y-83507957D01*
X217023299Y-83607143D01*
X217041410Y-83674732D01*
X217043886Y-83683974D01*
X217043887Y-83683979D01*
X217048969Y-83702948D01*
X217048970Y-83702949D01*
X217048971Y-83702951D01*
X217098565Y-83788850D01*
X217098567Y-83788852D01*
X217175765Y-83866050D01*
X217175771Y-83866055D01*
X217837675Y-84527959D01*
X217837685Y-84527970D01*
X217842015Y-84532300D01*
X217842016Y-84532301D01*
X217912151Y-84602436D01*
X217959722Y-84629901D01*
X217998046Y-84652028D01*
X217998050Y-84652030D01*
X218093857Y-84677701D01*
X218093858Y-84677701D01*
X218193044Y-84677701D01*
X219759344Y-84677701D01*
X219759360Y-84677702D01*
X219766956Y-84677702D01*
X219866139Y-84677702D01*
X219866142Y-84677702D01*
X219961950Y-84652030D01*
X219961952Y-84652028D01*
X219961954Y-84652028D01*
X219961955Y-84652027D01*
X219997481Y-84631516D01*
X220047849Y-84602436D01*
X220117984Y-84532301D01*
X220117985Y-84532298D01*
X221211620Y-83438662D01*
X221272942Y-83405179D01*
X221342634Y-83410163D01*
X221398567Y-83452035D01*
X221422984Y-83517499D01*
X221423300Y-83526345D01*
X221423300Y-98192603D01*
X221403615Y-98259642D01*
X221386981Y-98280284D01*
X221055714Y-98611550D01*
X220994391Y-98645035D01*
X220924699Y-98640051D01*
X220868766Y-98598179D01*
X220844349Y-98532715D01*
X220856314Y-98470066D01*
X220883815Y-98412960D01*
X220903584Y-98281802D01*
X220903584Y-98281801D01*
X220883815Y-98150645D01*
X220826263Y-98031138D01*
X220824520Y-98029032D01*
X220824519Y-98029032D01*
X220503868Y-98349684D01*
X220442545Y-98383169D01*
X220372853Y-98378185D01*
X220328506Y-98349684D01*
X220150314Y-98171492D01*
X220116829Y-98110169D01*
X220121813Y-98040477D01*
X220150314Y-97996130D01*
X220470965Y-97675479D01*
X220468861Y-97673736D01*
X220468851Y-97673729D01*
X220349356Y-97616184D01*
X220218198Y-97596416D01*
X220087040Y-97616184D01*
X220068502Y-97625111D01*
X219999560Y-97636461D01*
X219935426Y-97608736D01*
X219896463Y-97550739D01*
X219895040Y-97480884D01*
X219927020Y-97425712D01*
X220621090Y-96731643D01*
X220621095Y-96731639D01*
X220631298Y-96721435D01*
X220631300Y-96721435D01*
X220701435Y-96651300D01*
X220751029Y-96565401D01*
X220776700Y-96469594D01*
X220776700Y-93050406D01*
X220751029Y-92954599D01*
X220701435Y-92868700D01*
X220631300Y-92798565D01*
X220631299Y-92798564D01*
X220626969Y-92794234D01*
X220626958Y-92794224D01*
X220275219Y-92442485D01*
X220241734Y-92381162D01*
X220238900Y-92354804D01*
X220238900Y-91672702D01*
X220238900Y-91672700D01*
X220213229Y-91576893D01*
X220163635Y-91490994D01*
X220093500Y-91420859D01*
X220093499Y-91420858D01*
X220089169Y-91416528D01*
X220089158Y-91416518D01*
X219336612Y-90663971D01*
X219336610Y-90663968D01*
X219259409Y-90586767D01*
X219259407Y-90586765D01*
X219173508Y-90537171D01*
X219077700Y-90511499D01*
X218978514Y-90511499D01*
X218970918Y-90511499D01*
X218970902Y-90511500D01*
X218726712Y-90511500D01*
X218659673Y-90491815D01*
X218639031Y-90475181D01*
X218579021Y-90415171D01*
X218579019Y-90415168D01*
X218501818Y-90337967D01*
X218501816Y-90337965D01*
X218415917Y-90288371D01*
X218320109Y-90262699D01*
X218220923Y-90262699D01*
X218213327Y-90262699D01*
X218213311Y-90262700D01*
X218146796Y-90262700D01*
X218079757Y-90243015D01*
X218059115Y-90226381D01*
X217319819Y-89487085D01*
X217286334Y-89425762D01*
X217283500Y-89399404D01*
X217283500Y-85766829D01*
X217283501Y-85766816D01*
X217283501Y-85657643D01*
X217283501Y-85657641D01*
X217257829Y-85561833D01*
X217208236Y-85475935D01*
X215866419Y-84134118D01*
X215832934Y-84072795D01*
X215830100Y-84046437D01*
X215830100Y-83213211D01*
X215830101Y-83213198D01*
X215830101Y-83104025D01*
X215830101Y-83104023D01*
X215804429Y-83008215D01*
X215760218Y-82931639D01*
X215754838Y-82922320D01*
X215754834Y-82922315D01*
X215296237Y-82463718D01*
X214821264Y-81988746D01*
X214789171Y-81933158D01*
X214785313Y-81918763D01*
X214781629Y-81905011D01*
X214766725Y-81879196D01*
X215850001Y-81879196D01*
X215852851Y-81909606D01*
X215897653Y-82037645D01*
X215978207Y-82146792D01*
X216087354Y-82227346D01*
X216200000Y-82266761D01*
X216200000Y-81487500D01*
X215850001Y-81487500D01*
X215850001Y-81879196D01*
X214766725Y-81879196D01*
X214732036Y-81819113D01*
X214258092Y-81345170D01*
X214258091Y-81345168D01*
X214180890Y-81267967D01*
X214180888Y-81267965D01*
X214099709Y-81221096D01*
X214094988Y-81218370D01*
X214094989Y-81218370D01*
X214066837Y-81210827D01*
X214052951Y-81202809D01*
X214039506Y-81199885D01*
X214011252Y-81178734D01*
X213910819Y-81078301D01*
X213877334Y-81016978D01*
X213874500Y-80990620D01*
X213874500Y-80595793D01*
X215850000Y-80595793D01*
X215850000Y-80987500D01*
X216200000Y-80987500D01*
X216200000Y-80208237D01*
X216199999Y-80208237D01*
X216087355Y-80247653D01*
X215978207Y-80328207D01*
X215897653Y-80437354D01*
X215852850Y-80565395D01*
X215852850Y-80565399D01*
X215850000Y-80595793D01*
X213874500Y-80595793D01*
X213874500Y-79399000D01*
X213894185Y-79331961D01*
X213946989Y-79286206D01*
X213968466Y-79281533D01*
X213975000Y-79275000D01*
X213975000Y-77717478D01*
X213950562Y-77672724D01*
X213955546Y-77603032D01*
X213984043Y-77558689D01*
X214225915Y-77316817D01*
X214287238Y-77283333D01*
X214313596Y-77280499D01*
X214537454Y-77280499D01*
X214537456Y-77280499D01*
X214566879Y-77277741D01*
X214690794Y-77234381D01*
X214796423Y-77156423D01*
X214874381Y-77050794D01*
X214905522Y-76961800D01*
X214917741Y-76926881D01*
X214917741Y-76926879D01*
X214919556Y-76907522D01*
X214920500Y-76897457D01*
X214920499Y-76522544D01*
X214917741Y-76493121D01*
X214874381Y-76369206D01*
X214803844Y-76273632D01*
X214779874Y-76208005D01*
X214795189Y-76139835D01*
X214803845Y-76126367D01*
X214859024Y-76051602D01*
X214874287Y-76030920D01*
X214888814Y-76019890D01*
X214899747Y-76005287D01*
X214916064Y-75999201D01*
X214929934Y-75988670D01*
X214948119Y-75987244D01*
X214965211Y-75980870D01*
X214982227Y-75984571D01*
G37*
%TD.AperFunction*%
%TA.AperFunction,Conductor*%
G36*
X213659658Y-89896385D02*
G01*
X213692389Y-89927066D01*
X213743576Y-89996423D01*
X213796391Y-90035402D01*
X213849206Y-90074381D01*
X213890511Y-90088834D01*
X213973119Y-90117741D01*
X213980796Y-90118460D01*
X214002543Y-90120500D01*
X214377456Y-90120499D01*
X214406879Y-90117741D01*
X214530794Y-90074381D01*
X214626368Y-90003843D01*
X214650423Y-89995057D01*
X214672814Y-89982632D01*
X214682693Y-89983270D01*
X214691993Y-89979874D01*
X214716980Y-89985487D01*
X214742538Y-89987140D01*
X214755621Y-89994168D01*
X214760164Y-89995189D01*
X214773630Y-90003843D01*
X214782931Y-90010707D01*
X214825183Y-90066353D01*
X214833300Y-90110479D01*
X214833300Y-90272793D01*
X214833299Y-90272811D01*
X214833299Y-90379593D01*
X214853396Y-90454598D01*
X214858969Y-90475395D01*
X214858970Y-90475399D01*
X214858971Y-90475400D01*
X214908565Y-90561299D01*
X214908567Y-90561301D01*
X214985765Y-90638499D01*
X214985771Y-90638504D01*
X216149678Y-91802412D01*
X216179038Y-91849138D01*
X216223529Y-91976285D01*
X216223534Y-91976294D01*
X216306409Y-92088587D01*
X216306410Y-92088587D01*
X216306411Y-92088589D01*
X216332227Y-92107642D01*
X216362833Y-92130230D01*
X216405083Y-92185878D01*
X216410542Y-92255534D01*
X216377474Y-92317083D01*
X216362833Y-92329770D01*
X216306409Y-92371412D01*
X216223534Y-92483705D01*
X216223529Y-92483714D01*
X216177432Y-92615448D01*
X216177432Y-92615450D01*
X216174500Y-92646723D01*
X216174500Y-93083276D01*
X216177432Y-93114549D01*
X216177432Y-93114551D01*
X216223529Y-93246285D01*
X216223534Y-93246294D01*
X216306409Y-93358587D01*
X216306410Y-93358587D01*
X216306411Y-93358589D01*
X216344230Y-93386500D01*
X216362833Y-93400230D01*
X216405083Y-93455878D01*
X216410542Y-93525534D01*
X216377474Y-93587083D01*
X216362833Y-93599770D01*
X216306409Y-93641412D01*
X216223534Y-93753705D01*
X216223529Y-93753714D01*
X216177432Y-93885448D01*
X216177432Y-93885450D01*
X216174500Y-93916723D01*
X216174500Y-94353276D01*
X216177432Y-94384549D01*
X216177432Y-94384551D01*
X216223529Y-94516285D01*
X216223534Y-94516294D01*
X216306409Y-94628587D01*
X216306410Y-94628587D01*
X216306411Y-94628589D01*
X216332227Y-94647642D01*
X216362833Y-94670230D01*
X216405083Y-94725878D01*
X216410542Y-94795534D01*
X216377748Y-94856805D01*
X216370807Y-94863884D01*
X216306411Y-94911411D01*
X216252167Y-94984909D01*
X216246094Y-94991105D01*
X216222864Y-95004090D01*
X216201667Y-95020185D01*
X216190351Y-95022266D01*
X216185107Y-95025198D01*
X216177092Y-95024704D01*
X216157545Y-95028300D01*
X211945406Y-95028300D01*
X211849597Y-95053971D01*
X211763700Y-95103565D01*
X211763697Y-95103567D01*
X211561067Y-95306197D01*
X211561065Y-95306200D01*
X211511471Y-95392099D01*
X211485799Y-95487907D01*
X211485799Y-95487909D01*
X211485799Y-95597082D01*
X211485800Y-95597095D01*
X211485800Y-97966420D01*
X211466115Y-98033459D01*
X211413311Y-98079214D01*
X211344153Y-98089158D01*
X211280597Y-98060133D01*
X211274119Y-98054101D01*
X209461698Y-96241680D01*
X209428213Y-96180357D01*
X209433197Y-96110665D01*
X209475069Y-96054732D01*
X209540533Y-96030315D01*
X209549379Y-96029999D01*
X209862499Y-96029999D01*
X210362500Y-96029999D01*
X210818202Y-96029999D01*
X210849459Y-96027068D01*
X210981051Y-95981022D01*
X211093230Y-95898230D01*
X211176022Y-95786052D01*
X211221879Y-95655000D01*
X210362500Y-95655000D01*
X210362500Y-96029999D01*
X209862499Y-96029999D01*
X209862500Y-96029998D01*
X209862500Y-95529000D01*
X209882185Y-95461961D01*
X209934989Y-95416206D01*
X209986500Y-95405000D01*
X210112500Y-95405000D01*
X210112500Y-95279000D01*
X210132185Y-95211961D01*
X210184989Y-95166206D01*
X210236500Y-95155000D01*
X211221878Y-95155000D01*
X211176022Y-95023947D01*
X211093230Y-94911768D01*
X211036744Y-94870079D01*
X210994494Y-94814432D01*
X210989037Y-94744775D01*
X211022104Y-94683226D01*
X211036741Y-94670543D01*
X211093589Y-94628589D01*
X211176469Y-94516289D01*
X211193226Y-94468399D01*
X211222567Y-94384551D01*
X211222567Y-94384549D01*
X211225500Y-94353276D01*
X211225500Y-93916723D01*
X211222567Y-93885450D01*
X211222567Y-93885448D01*
X211176470Y-93753714D01*
X211176469Y-93753711D01*
X211171825Y-93747419D01*
X211093590Y-93641413D01*
X211093591Y-93641413D01*
X211093589Y-93641411D01*
X211037165Y-93599769D01*
X210994916Y-93544123D01*
X210989457Y-93474467D01*
X211022524Y-93412918D01*
X211037161Y-93400234D01*
X211093589Y-93358589D01*
X211176469Y-93246289D01*
X211208986Y-93153362D01*
X211222567Y-93114551D01*
X211222567Y-93114549D01*
X211225500Y-93083276D01*
X211225500Y-92646723D01*
X211222567Y-92615450D01*
X211222567Y-92615448D01*
X211176470Y-92483714D01*
X211176469Y-92483711D01*
X211093589Y-92371411D01*
X211037165Y-92329769D01*
X210994916Y-92274123D01*
X210989457Y-92204467D01*
X211022524Y-92142918D01*
X211037161Y-92130234D01*
X211093589Y-92088589D01*
X211176469Y-91976289D01*
X211216911Y-91860714D01*
X211222567Y-91844551D01*
X211222567Y-91844549D01*
X211225500Y-91813276D01*
X211225500Y-91668595D01*
X211245185Y-91601556D01*
X211261814Y-91580919D01*
X212685915Y-90156817D01*
X212747238Y-90123333D01*
X212773596Y-90120499D01*
X212997454Y-90120499D01*
X212997456Y-90120499D01*
X213026879Y-90117741D01*
X213150794Y-90074381D01*
X213256423Y-89996423D01*
X213307611Y-89927066D01*
X213311591Y-89924043D01*
X213313668Y-89919497D01*
X213339142Y-89903125D01*
X213363258Y-89884816D01*
X213369387Y-89883688D01*
X213372446Y-89881723D01*
X213407381Y-89876700D01*
X213592619Y-89876700D01*
X213659658Y-89896385D01*
G37*
%TD.AperFunction*%
%TA.AperFunction,Conductor*%
G36*
X201434685Y-96287419D02*
G01*
X202186981Y-97039715D01*
X202220466Y-97101038D01*
X202223300Y-97127396D01*
X202223300Y-97390645D01*
X202203615Y-97457684D01*
X202150811Y-97503439D01*
X202081653Y-97513383D01*
X202018097Y-97484358D01*
X201981369Y-97428963D01*
X201935748Y-97288555D01*
X201935747Y-97288552D01*
X201853571Y-97127275D01*
X201853566Y-97127267D01*
X201842085Y-97111466D01*
X201352962Y-97600589D01*
X201335925Y-97537007D01*
X201270099Y-97422993D01*
X201177007Y-97329901D01*
X201062993Y-97264075D01*
X200999409Y-97247037D01*
X201488533Y-96757913D01*
X201472730Y-96746431D01*
X201311447Y-96664252D01*
X201311444Y-96664251D01*
X201139293Y-96608317D01*
X200977720Y-96582726D01*
X200914585Y-96552797D01*
X200877654Y-96493485D01*
X200878652Y-96423623D01*
X200917262Y-96365390D01*
X200977720Y-96337780D01*
X201011361Y-96332451D01*
X201139409Y-96312171D01*
X201308691Y-96257168D01*
X201378527Y-96255174D01*
X201434685Y-96287419D01*
G37*
%TD.AperFunction*%
%TA.AperFunction,Conductor*%
G36*
X226734720Y-95867816D02*
G01*
X226769077Y-95928655D01*
X226772300Y-95956741D01*
X226772300Y-96990719D01*
X226752615Y-97057758D01*
X226699811Y-97103513D01*
X226638573Y-97114337D01*
X226602086Y-97111466D01*
X226112962Y-97600589D01*
X226095925Y-97537007D01*
X226030099Y-97422993D01*
X225937007Y-97329901D01*
X225822993Y-97264075D01*
X225759408Y-97247037D01*
X226248533Y-96757913D01*
X226232730Y-96746431D01*
X226071447Y-96664252D01*
X226071444Y-96664251D01*
X225899293Y-96608317D01*
X225737720Y-96582726D01*
X225674585Y-96552797D01*
X225637654Y-96493485D01*
X225638652Y-96423623D01*
X225677262Y-96365390D01*
X225737720Y-96337780D01*
X225752270Y-96335475D01*
X225899409Y-96312171D01*
X226071639Y-96256211D01*
X226232994Y-96173996D01*
X226379501Y-96067553D01*
X226507553Y-95939501D01*
X226507555Y-95939497D01*
X226507558Y-95939495D01*
X226547982Y-95883856D01*
X226603311Y-95841190D01*
X226672925Y-95835211D01*
X226734720Y-95867816D01*
G37*
%TD.AperFunction*%
%TA.AperFunction,Conductor*%
G36*
X227168834Y-76506414D02*
G01*
X227224767Y-76548286D01*
X227249184Y-76613750D01*
X227249500Y-76622596D01*
X227249500Y-93437404D01*
X227229815Y-93504443D01*
X227177011Y-93550198D01*
X227107853Y-93560142D01*
X227044297Y-93531117D01*
X227037819Y-93525085D01*
X226727419Y-93214685D01*
X226693934Y-93153362D01*
X226697168Y-93088691D01*
X226752171Y-92919409D01*
X226767593Y-92822038D01*
X226780500Y-92740551D01*
X226780500Y-92559448D01*
X226761974Y-92442485D01*
X226752171Y-92380591D01*
X226711538Y-92255534D01*
X226696212Y-92208363D01*
X226696211Y-92208360D01*
X226656401Y-92130230D01*
X226613996Y-92047006D01*
X226586307Y-92008895D01*
X226507558Y-91900505D01*
X226507554Y-91900500D01*
X226379499Y-91772445D01*
X226379494Y-91772441D01*
X226232997Y-91666006D01*
X226232996Y-91666005D01*
X226232994Y-91666004D01*
X226181300Y-91639664D01*
X226071639Y-91583788D01*
X226071636Y-91583787D01*
X225899410Y-91527829D01*
X225739321Y-91502473D01*
X225676186Y-91472544D01*
X225639255Y-91413232D01*
X225640253Y-91343370D01*
X225678863Y-91285137D01*
X225739321Y-91257527D01*
X225809425Y-91246422D01*
X225899409Y-91232171D01*
X226071639Y-91176211D01*
X226232994Y-91093996D01*
X226379501Y-90987553D01*
X226507553Y-90859501D01*
X226613996Y-90712994D01*
X226696211Y-90551639D01*
X226752171Y-90379409D01*
X226752170Y-90379409D01*
X226752172Y-90379406D01*
X226780500Y-90200551D01*
X226780500Y-90019448D01*
X226760122Y-89890792D01*
X226752171Y-89840591D01*
X226696211Y-89668361D01*
X226696211Y-89668360D01*
X226658368Y-89594091D01*
X226613996Y-89507006D01*
X226599523Y-89487085D01*
X226507558Y-89360505D01*
X226507554Y-89360500D01*
X226379499Y-89232445D01*
X226379494Y-89232441D01*
X226232997Y-89126006D01*
X226232996Y-89126005D01*
X226232994Y-89126004D01*
X226143694Y-89080503D01*
X226071639Y-89043788D01*
X226071636Y-89043787D01*
X225899410Y-88987829D01*
X225739321Y-88962473D01*
X225676186Y-88932544D01*
X225639255Y-88873232D01*
X225640253Y-88803370D01*
X225678863Y-88745137D01*
X225739321Y-88717527D01*
X225809425Y-88706422D01*
X225899409Y-88692171D01*
X226071639Y-88636211D01*
X226232994Y-88553996D01*
X226379501Y-88447553D01*
X226507553Y-88319501D01*
X226613996Y-88172994D01*
X226696211Y-88011639D01*
X226752171Y-87839409D01*
X226772567Y-87710634D01*
X226780500Y-87660551D01*
X226780500Y-87479448D01*
X226764019Y-87375397D01*
X226752171Y-87300591D01*
X226696211Y-87128361D01*
X226696211Y-87128360D01*
X226667740Y-87072484D01*
X226613996Y-86967006D01*
X226600396Y-86948287D01*
X226507558Y-86820505D01*
X226507554Y-86820500D01*
X226379499Y-86692445D01*
X226379494Y-86692441D01*
X226232997Y-86586006D01*
X226232996Y-86586005D01*
X226232994Y-86586004D01*
X226175127Y-86556519D01*
X226071639Y-86503788D01*
X226071636Y-86503787D01*
X225899410Y-86447828D01*
X225737720Y-86422219D01*
X225674585Y-86392289D01*
X225637654Y-86332978D01*
X225638652Y-86263115D01*
X225677262Y-86204883D01*
X225737721Y-86177273D01*
X225899292Y-86151683D01*
X226071444Y-86095748D01*
X226071452Y-86095745D01*
X226232730Y-86013568D01*
X226248532Y-86002085D01*
X226248533Y-86002085D01*
X225759410Y-85512962D01*
X225822993Y-85495925D01*
X225937007Y-85430099D01*
X226030099Y-85337007D01*
X226095925Y-85222993D01*
X226112962Y-85159410D01*
X226602085Y-85648533D01*
X226602085Y-85648532D01*
X226613568Y-85632730D01*
X226695745Y-85471452D01*
X226695748Y-85471444D01*
X226751682Y-85299293D01*
X226780000Y-85120506D01*
X226780000Y-84939493D01*
X226751682Y-84760706D01*
X226695748Y-84588555D01*
X226695747Y-84588552D01*
X226613571Y-84427275D01*
X226613566Y-84427267D01*
X226602085Y-84411466D01*
X226112962Y-84900589D01*
X226095925Y-84837007D01*
X226030099Y-84722993D01*
X225937007Y-84629901D01*
X225822993Y-84564075D01*
X225759409Y-84547037D01*
X226248533Y-84057913D01*
X226232730Y-84046431D01*
X226071447Y-83964252D01*
X226071444Y-83964251D01*
X225899293Y-83908317D01*
X225737720Y-83882726D01*
X225674585Y-83852797D01*
X225637654Y-83793485D01*
X225638652Y-83723623D01*
X225677262Y-83665390D01*
X225737720Y-83637780D01*
X225752270Y-83635475D01*
X225899409Y-83612171D01*
X226071639Y-83556211D01*
X226232994Y-83473996D01*
X226379501Y-83367553D01*
X226507553Y-83239501D01*
X226613996Y-83092994D01*
X226696211Y-82931639D01*
X226752171Y-82759409D01*
X226769188Y-82651967D01*
X226780500Y-82580551D01*
X226780500Y-82399447D01*
X226780499Y-82399440D01*
X226760233Y-82271492D01*
X226752171Y-82220591D01*
X226723106Y-82131138D01*
X226696212Y-82048363D01*
X226696211Y-82048360D01*
X226661010Y-81979276D01*
X226613996Y-81887006D01*
X226566669Y-81821865D01*
X226507558Y-81740505D01*
X226507554Y-81740500D01*
X226379499Y-81612445D01*
X226379494Y-81612441D01*
X226232997Y-81506006D01*
X226232996Y-81506005D01*
X226232994Y-81506004D01*
X226177146Y-81477548D01*
X226071639Y-81423788D01*
X226071636Y-81423787D01*
X225899410Y-81367829D01*
X225739321Y-81342473D01*
X225676186Y-81312544D01*
X225639255Y-81253232D01*
X225640253Y-81183370D01*
X225678863Y-81125137D01*
X225739321Y-81097527D01*
X225809425Y-81086422D01*
X225899409Y-81072171D01*
X226071639Y-81016211D01*
X226232994Y-80933996D01*
X226379501Y-80827553D01*
X226507553Y-80699501D01*
X226613996Y-80552994D01*
X226696211Y-80391639D01*
X226752171Y-80219409D01*
X226771080Y-80100023D01*
X226780500Y-80040551D01*
X226780500Y-79859448D01*
X226758476Y-79720399D01*
X226752171Y-79680591D01*
X226696211Y-79508361D01*
X226696211Y-79508360D01*
X226640488Y-79399000D01*
X226613996Y-79347006D01*
X226594185Y-79319738D01*
X226507558Y-79200505D01*
X226507554Y-79200500D01*
X226379499Y-79072445D01*
X226379494Y-79072441D01*
X226232997Y-78966006D01*
X226232996Y-78966005D01*
X226232994Y-78966004D01*
X226181300Y-78939664D01*
X226071639Y-78883788D01*
X226071636Y-78883787D01*
X225899410Y-78827829D01*
X225739321Y-78802473D01*
X225676186Y-78772544D01*
X225639255Y-78713232D01*
X225640253Y-78643370D01*
X225678863Y-78585137D01*
X225739321Y-78557527D01*
X225809425Y-78546422D01*
X225899409Y-78532171D01*
X226071639Y-78476211D01*
X226232994Y-78393996D01*
X226379501Y-78287553D01*
X226507553Y-78159501D01*
X226613996Y-78012994D01*
X226696211Y-77851639D01*
X226752171Y-77679409D01*
X226773623Y-77543966D01*
X226780500Y-77500551D01*
X226780500Y-77319448D01*
X226762750Y-77207384D01*
X226752171Y-77140591D01*
X226715686Y-77028302D01*
X226697170Y-76971312D01*
X226695175Y-76901470D01*
X226727418Y-76845315D01*
X227037820Y-76534913D01*
X227099142Y-76501430D01*
X227168834Y-76506414D01*
G37*
%TD.AperFunction*%
%TA.AperFunction,Conductor*%
G36*
X201434685Y-83587419D02*
G01*
X203986981Y-86139715D01*
X204020466Y-86201038D01*
X204023300Y-86227396D01*
X204023300Y-89891204D01*
X204003615Y-89958243D01*
X203950811Y-90003998D01*
X203881653Y-90013942D01*
X203818097Y-89984917D01*
X203811619Y-89978885D01*
X201967419Y-88134685D01*
X201933934Y-88073362D01*
X201937168Y-88008691D01*
X201992171Y-87839409D01*
X202000265Y-87788305D01*
X202020500Y-87660551D01*
X202020500Y-87479448D01*
X202004019Y-87375397D01*
X201992171Y-87300591D01*
X201936211Y-87128361D01*
X201936211Y-87128360D01*
X201907740Y-87072484D01*
X201853996Y-86967006D01*
X201840396Y-86948287D01*
X201747558Y-86820505D01*
X201747554Y-86820500D01*
X201619499Y-86692445D01*
X201619494Y-86692441D01*
X201472997Y-86586006D01*
X201472996Y-86586005D01*
X201472994Y-86586004D01*
X201415127Y-86556519D01*
X201311639Y-86503788D01*
X201311636Y-86503787D01*
X201139410Y-86447828D01*
X200977720Y-86422219D01*
X200914585Y-86392289D01*
X200877654Y-86332978D01*
X200878652Y-86263115D01*
X200917262Y-86204883D01*
X200977721Y-86177273D01*
X201139292Y-86151683D01*
X201311444Y-86095748D01*
X201311452Y-86095745D01*
X201472730Y-86013568D01*
X201488532Y-86002085D01*
X201488533Y-86002085D01*
X200999410Y-85512962D01*
X201062993Y-85495925D01*
X201177007Y-85430099D01*
X201270099Y-85337007D01*
X201335925Y-85222993D01*
X201352962Y-85159409D01*
X201842085Y-85648532D01*
X201853568Y-85632730D01*
X201935745Y-85471452D01*
X201935748Y-85471444D01*
X201991682Y-85299293D01*
X202020000Y-85120506D01*
X202020000Y-84939493D01*
X201991682Y-84760706D01*
X201935748Y-84588555D01*
X201935747Y-84588552D01*
X201853571Y-84427275D01*
X201853566Y-84427267D01*
X201842085Y-84411466D01*
X201352962Y-84900589D01*
X201335925Y-84837007D01*
X201270099Y-84722993D01*
X201177007Y-84629901D01*
X201062993Y-84564075D01*
X200999409Y-84547037D01*
X201488533Y-84057913D01*
X201472730Y-84046431D01*
X201311447Y-83964252D01*
X201311444Y-83964251D01*
X201139293Y-83908317D01*
X200977720Y-83882726D01*
X200914585Y-83852797D01*
X200877654Y-83793485D01*
X200878652Y-83723623D01*
X200917262Y-83665390D01*
X200977720Y-83637780D01*
X201011361Y-83632451D01*
X201139409Y-83612171D01*
X201308691Y-83557168D01*
X201378527Y-83555174D01*
X201434685Y-83587419D01*
G37*
%TD.AperFunction*%
%TA.AperFunction,Conductor*%
G36*
X225191312Y-83557170D02*
G01*
X225248302Y-83575686D01*
X225360591Y-83612171D01*
X225480038Y-83631089D01*
X225522279Y-83637780D01*
X225585414Y-83667709D01*
X225622345Y-83727021D01*
X225621347Y-83796883D01*
X225582737Y-83855116D01*
X225522279Y-83882726D01*
X225360706Y-83908317D01*
X225188555Y-83964251D01*
X225188547Y-83964254D01*
X225027269Y-84046432D01*
X225011466Y-84057912D01*
X225011466Y-84057913D01*
X225500591Y-84547037D01*
X225437007Y-84564075D01*
X225322993Y-84629901D01*
X225229901Y-84722993D01*
X225164075Y-84837007D01*
X225147037Y-84900590D01*
X224657913Y-84411466D01*
X224657912Y-84411466D01*
X224646432Y-84427269D01*
X224564254Y-84588547D01*
X224564251Y-84588555D01*
X224508317Y-84760706D01*
X224480000Y-84939493D01*
X224480000Y-85120506D01*
X224508317Y-85299293D01*
X224564251Y-85471444D01*
X224564252Y-85471447D01*
X224646431Y-85632730D01*
X224657913Y-85648532D01*
X224657913Y-85648533D01*
X225147037Y-85159409D01*
X225164075Y-85222993D01*
X225229901Y-85337007D01*
X225322993Y-85430099D01*
X225437007Y-85495925D01*
X225500590Y-85512962D01*
X225011466Y-86002085D01*
X225011466Y-86002086D01*
X225027267Y-86013566D01*
X225027275Y-86013571D01*
X225188552Y-86095747D01*
X225188555Y-86095748D01*
X225360706Y-86151682D01*
X225522279Y-86177273D01*
X225585413Y-86207202D01*
X225622345Y-86266513D01*
X225621347Y-86336376D01*
X225582738Y-86394609D01*
X225522280Y-86422219D01*
X225360589Y-86447829D01*
X225188363Y-86503787D01*
X225188360Y-86503788D01*
X225027002Y-86586006D01*
X224880505Y-86692441D01*
X224880500Y-86692445D01*
X224752445Y-86820500D01*
X224752441Y-86820505D01*
X224646006Y-86967002D01*
X224563788Y-87128360D01*
X224563787Y-87128363D01*
X224507829Y-87300589D01*
X224479500Y-87479448D01*
X224479500Y-87660551D01*
X224507829Y-87839412D01*
X224562829Y-88008687D01*
X224564824Y-88078528D01*
X224532579Y-88134685D01*
X223687381Y-88979884D01*
X223626058Y-89013369D01*
X223556367Y-89008385D01*
X223500433Y-88966513D01*
X223476016Y-88901049D01*
X223475700Y-88892203D01*
X223475700Y-85228396D01*
X223495385Y-85161357D01*
X223512019Y-85140715D01*
X223805794Y-84846940D01*
X224423416Y-84229318D01*
X225065315Y-83587418D01*
X225126636Y-83553935D01*
X225191312Y-83557170D01*
G37*
%TD.AperFunction*%
%TA.AperFunction,Conductor*%
G36*
X212758565Y-81515388D02*
G01*
X212766463Y-81515865D01*
X212787801Y-81531470D01*
X212812107Y-81544841D01*
X213417024Y-82149758D01*
X213417034Y-82149769D01*
X213421364Y-82154099D01*
X213421365Y-82154100D01*
X213491500Y-82224235D01*
X213577399Y-82273829D01*
X213577400Y-82273829D01*
X213577400Y-82273830D01*
X213605546Y-82281371D01*
X213619432Y-82289388D01*
X213632881Y-82292314D01*
X213661135Y-82313465D01*
X213686535Y-82338865D01*
X213718625Y-82394440D01*
X213719966Y-82399445D01*
X213719968Y-82399456D01*
X213719970Y-82399456D01*
X213726171Y-82422601D01*
X213775765Y-82508500D01*
X213775767Y-82508502D01*
X213852967Y-82585702D01*
X213852971Y-82585705D01*
X214686981Y-83419715D01*
X214720466Y-83481038D01*
X214723300Y-83507396D01*
X214723300Y-83824873D01*
X214703615Y-83891912D01*
X214650811Y-83937667D01*
X214581653Y-83947611D01*
X214518097Y-83918586D01*
X214511621Y-83912556D01*
X214491850Y-83892786D01*
X214491833Y-83892770D01*
X214468861Y-83873735D01*
X214370250Y-83826246D01*
X214318390Y-83779423D01*
X214300078Y-83711996D01*
X214301437Y-83696043D01*
X214303583Y-83681800D01*
X214283815Y-83550645D01*
X214226263Y-83431138D01*
X214224520Y-83429033D01*
X213992965Y-83660589D01*
X213992965Y-83660590D01*
X214251765Y-83919390D01*
X214285250Y-83980713D01*
X214280266Y-84050405D01*
X214251766Y-84094751D01*
X214239447Y-84107070D01*
X214239447Y-84107071D01*
X215728507Y-85596131D01*
X215761992Y-85657454D01*
X215757008Y-85727146D01*
X215728507Y-85771493D01*
X215550315Y-85949685D01*
X215488992Y-85983170D01*
X215419300Y-85978186D01*
X215374953Y-85949685D01*
X213627056Y-84201788D01*
X213593571Y-84140465D01*
X213598555Y-84070773D01*
X213627057Y-84026425D01*
X213639375Y-84014107D01*
X213335893Y-83710625D01*
X213287255Y-83710625D01*
X213220216Y-83690940D01*
X213199574Y-83674306D01*
X212535857Y-83010589D01*
X213342965Y-83010589D01*
X213639410Y-83307034D01*
X213870965Y-83075478D01*
X213868861Y-83073736D01*
X213868851Y-83073729D01*
X213749356Y-83016184D01*
X213669695Y-83004177D01*
X213650111Y-82995071D01*
X213628995Y-82990528D01*
X213619055Y-82980632D01*
X213606338Y-82974720D01*
X213585352Y-82947080D01*
X213579479Y-82941233D01*
X213578894Y-82938574D01*
X213576457Y-82935364D01*
X213526264Y-82831138D01*
X213524520Y-82829033D01*
X213342965Y-83010589D01*
X212535857Y-83010589D01*
X212150315Y-82625047D01*
X212116830Y-82563724D01*
X212121814Y-82494032D01*
X212150315Y-82449685D01*
X212239411Y-82360589D01*
X212592965Y-82360589D01*
X212939410Y-82707034D01*
X213170965Y-82475478D01*
X213168861Y-82473736D01*
X213168851Y-82473729D01*
X213049356Y-82416184D01*
X212995992Y-82408141D01*
X212932635Y-82378685D01*
X212895261Y-82319651D01*
X212891858Y-82304006D01*
X212883815Y-82250645D01*
X212826263Y-82131138D01*
X212824520Y-82129033D01*
X212592965Y-82360589D01*
X212239411Y-82360589D01*
X212150314Y-82271492D01*
X212116829Y-82210169D01*
X212121813Y-82140477D01*
X212150314Y-82096130D01*
X212470965Y-81775479D01*
X212470758Y-81771059D01*
X212487281Y-81703171D01*
X212505969Y-81678552D01*
X212635773Y-81545823D01*
X212659727Y-81532394D01*
X212681813Y-81516074D01*
X212689767Y-81515554D01*
X212696720Y-81511657D01*
X212724128Y-81513310D01*
X212751535Y-81511521D01*
X212758565Y-81515388D01*
G37*
%TD.AperFunction*%
%TA.AperFunction,Conductor*%
G36*
X209943039Y-73814685D02*
G01*
X209988794Y-73867489D01*
X210000000Y-73919000D01*
X210000000Y-74045000D01*
X210075501Y-74045000D01*
X210142540Y-74064685D01*
X210188295Y-74117489D01*
X210199501Y-74169000D01*
X210199501Y-74814856D01*
X210199502Y-74814882D01*
X210202413Y-74839987D01*
X210202414Y-74839988D01*
X210202414Y-74839990D01*
X210202415Y-74839991D01*
X210239434Y-74923832D01*
X210250000Y-74973917D01*
X210250000Y-75069999D01*
X210344786Y-75069999D01*
X210344808Y-75069997D01*
X210379142Y-75066016D01*
X210379374Y-75068017D01*
X210420570Y-75068017D01*
X210420745Y-75066510D01*
X210430007Y-75067584D01*
X210430009Y-75067585D01*
X210455135Y-75070500D01*
X210999300Y-75070499D01*
X211066339Y-75090183D01*
X211112094Y-75142987D01*
X211123300Y-75194499D01*
X211123300Y-75686050D01*
X211103615Y-75753089D01*
X211099070Y-75759684D01*
X211025618Y-75859207D01*
X210982258Y-75983118D01*
X210982258Y-75983120D01*
X210979500Y-76012538D01*
X210979500Y-76387453D01*
X210982258Y-76416874D01*
X210982260Y-76416884D01*
X211025619Y-76540794D01*
X211025619Y-76540795D01*
X211096465Y-76636788D01*
X211120436Y-76702416D01*
X211105120Y-76770587D01*
X211096465Y-76784055D01*
X211026066Y-76879440D01*
X211026065Y-76879442D01*
X210994378Y-76969999D01*
X210994378Y-76970000D01*
X211476000Y-76970000D01*
X211543039Y-76989685D01*
X211588794Y-77042489D01*
X211600000Y-77094000D01*
X211600000Y-77220000D01*
X211726000Y-77220000D01*
X211793039Y-77239685D01*
X211838794Y-77292489D01*
X211850000Y-77344000D01*
X211850000Y-77788817D01*
X211866780Y-77787244D01*
X211990561Y-77743931D01*
X212087460Y-77672416D01*
X212153089Y-77648444D01*
X212221259Y-77663759D01*
X212247806Y-77683544D01*
X212254940Y-77690523D01*
X212303577Y-77756423D01*
X212379858Y-77812721D01*
X212386011Y-77818740D01*
X212399053Y-77842012D01*
X212415184Y-77863258D01*
X212417247Y-77874478D01*
X212420169Y-77879691D01*
X212419683Y-77887719D01*
X212423300Y-77907381D01*
X212423300Y-80107098D01*
X212403615Y-80174137D01*
X212350811Y-80219892D01*
X212284516Y-80230214D01*
X212241096Y-80225000D01*
X212225000Y-80225000D01*
X212225000Y-80876000D01*
X212205315Y-80943039D01*
X212152511Y-80988794D01*
X212101000Y-81000000D01*
X211849000Y-81000000D01*
X211781961Y-80980315D01*
X211736206Y-80927511D01*
X211725000Y-80876000D01*
X211725000Y-80225000D01*
X211708898Y-80225000D01*
X211624532Y-80235131D01*
X211624531Y-80235131D01*
X211490270Y-80288077D01*
X211375280Y-80375277D01*
X211299118Y-80475712D01*
X211242925Y-80517235D01*
X211173204Y-80521786D01*
X211112090Y-80487921D01*
X211101511Y-80475712D01*
X211025078Y-80374922D01*
X210909976Y-80287636D01*
X210775588Y-80234640D01*
X210732242Y-80229435D01*
X210691144Y-80224500D01*
X210158856Y-80224500D01*
X210120841Y-80229065D01*
X210074411Y-80234640D01*
X209940025Y-80287635D01*
X209893367Y-80323017D01*
X209874192Y-80337558D01*
X209808882Y-80362381D01*
X209740518Y-80347953D01*
X209711587Y-80326435D01*
X208313019Y-78927867D01*
X208279534Y-78866544D01*
X208276700Y-78840186D01*
X208276700Y-77470000D01*
X210994378Y-77470000D01*
X211026065Y-77560557D01*
X211026066Y-77560559D01*
X211103934Y-77666065D01*
X211209438Y-77743931D01*
X211333219Y-77787244D01*
X211349999Y-77788817D01*
X211350000Y-77788816D01*
X211350000Y-77470000D01*
X210994378Y-77470000D01*
X208276700Y-77470000D01*
X208276700Y-74437618D01*
X208296385Y-74370579D01*
X208349189Y-74324824D01*
X208418347Y-74314880D01*
X208469591Y-74334516D01*
X208551052Y-74388947D01*
X208551065Y-74388954D01*
X208679999Y-74442360D01*
X208680000Y-74442360D01*
X208680000Y-73846988D01*
X208689940Y-73864205D01*
X208745795Y-73920060D01*
X208814204Y-73959556D01*
X208890504Y-73980000D01*
X208969496Y-73980000D01*
X209045796Y-73959556D01*
X209114205Y-73920060D01*
X209170060Y-73864205D01*
X209180000Y-73846988D01*
X209180000Y-74442359D01*
X209228547Y-74422251D01*
X209298017Y-74414782D01*
X209360496Y-74446057D01*
X209396148Y-74506146D01*
X209400000Y-74536812D01*
X209400000Y-74814785D01*
X209400002Y-74814808D01*
X209402908Y-74839869D01*
X209402909Y-74839873D01*
X209448211Y-74942474D01*
X209448214Y-74942479D01*
X209527520Y-75021785D01*
X209527525Y-75021788D01*
X209630123Y-75067089D01*
X209655206Y-75069999D01*
X209750000Y-75069998D01*
X209750000Y-74295000D01*
X209394000Y-74295000D01*
X209326961Y-74275315D01*
X209281206Y-74222511D01*
X209270000Y-74171000D01*
X209270000Y-73919000D01*
X209289685Y-73851961D01*
X209342489Y-73806206D01*
X209394000Y-73795000D01*
X209876000Y-73795000D01*
X209943039Y-73814685D01*
G37*
%TD.AperFunction*%
%TA.AperFunction,Conductor*%
G36*
X225191312Y-70857170D02*
G01*
X225356198Y-70910744D01*
X225356200Y-70910744D01*
X225360591Y-70912171D01*
X225522519Y-70937817D01*
X225522803Y-70937864D01*
X225553988Y-70952811D01*
X225585414Y-70967709D01*
X225585561Y-70967945D01*
X225585809Y-70968064D01*
X225603947Y-70997473D01*
X225622345Y-71027021D01*
X225622341Y-71027297D01*
X225622486Y-71027533D01*
X225621842Y-71062176D01*
X225621347Y-71096883D01*
X225621194Y-71097113D01*
X225621189Y-71097390D01*
X225601908Y-71126200D01*
X225582737Y-71155116D01*
X225582479Y-71155233D01*
X225582330Y-71155457D01*
X225575355Y-71158486D01*
X225522279Y-71182726D01*
X225360706Y-71208317D01*
X225188555Y-71264251D01*
X225188547Y-71264254D01*
X225027269Y-71346432D01*
X225011466Y-71357912D01*
X225011466Y-71357913D01*
X225500590Y-71847037D01*
X225437007Y-71864075D01*
X225322993Y-71929901D01*
X225229901Y-72022993D01*
X225164075Y-72137007D01*
X225147037Y-72200590D01*
X224657912Y-71711466D01*
X224646432Y-71727269D01*
X224564254Y-71888547D01*
X224564251Y-71888555D01*
X224508317Y-72060706D01*
X224480000Y-72239493D01*
X224480000Y-72420506D01*
X224508317Y-72599293D01*
X224564251Y-72771444D01*
X224564252Y-72771447D01*
X224646431Y-72932730D01*
X224657913Y-72948532D01*
X224657913Y-72948533D01*
X225147037Y-72459409D01*
X225164075Y-72522993D01*
X225229901Y-72637007D01*
X225322993Y-72730099D01*
X225437007Y-72795925D01*
X225500589Y-72812962D01*
X225011466Y-73302085D01*
X225011466Y-73302086D01*
X225027267Y-73313566D01*
X225027275Y-73313571D01*
X225188552Y-73395747D01*
X225188555Y-73395748D01*
X225360706Y-73451682D01*
X225522279Y-73477273D01*
X225585413Y-73507202D01*
X225622345Y-73566513D01*
X225621347Y-73636376D01*
X225582738Y-73694609D01*
X225522280Y-73722219D01*
X225360589Y-73747829D01*
X225188363Y-73803787D01*
X225188360Y-73803788D01*
X225027002Y-73886006D01*
X224880505Y-73992441D01*
X224880500Y-73992445D01*
X224752445Y-74120500D01*
X224752441Y-74120505D01*
X224646006Y-74267002D01*
X224563788Y-74428360D01*
X224563787Y-74428363D01*
X224507829Y-74600589D01*
X224479500Y-74779448D01*
X224479500Y-74960551D01*
X224507829Y-75139410D01*
X224562829Y-75308685D01*
X224564824Y-75378527D01*
X224532579Y-75434684D01*
X222788381Y-77178883D01*
X222727058Y-77212368D01*
X222657366Y-77207384D01*
X222601433Y-77165512D01*
X222577016Y-77100048D01*
X222576700Y-77091202D01*
X222576700Y-73427396D01*
X222596385Y-73360357D01*
X222613019Y-73339715D01*
X223805794Y-72146940D01*
X224422141Y-71530593D01*
X225065315Y-70887418D01*
X225126636Y-70853935D01*
X225191312Y-70857170D01*
G37*
%TD.AperFunction*%
%TA.AperFunction,Conductor*%
G36*
X217820000Y-74442360D02*
G01*
X217828283Y-74447895D01*
X217868515Y-74443569D01*
X217930995Y-74474843D01*
X217966648Y-74534931D01*
X217970500Y-74565599D01*
X217970500Y-75357055D01*
X217950815Y-75424094D01*
X217898011Y-75469849D01*
X217828853Y-75479793D01*
X217765297Y-75450768D01*
X217736869Y-75414995D01*
X217733933Y-75409441D01*
X217656065Y-75303934D01*
X217550559Y-75226066D01*
X217550557Y-75226065D01*
X217460000Y-75194378D01*
X217460000Y-75676000D01*
X217440315Y-75743039D01*
X217387511Y-75788794D01*
X217336000Y-75800000D01*
X217084000Y-75800000D01*
X217016961Y-75780315D01*
X216971206Y-75727511D01*
X216960000Y-75676000D01*
X216960000Y-75179823D01*
X216942818Y-75158052D01*
X216936058Y-75088510D01*
X216967968Y-75026353D01*
X216970176Y-75024087D01*
X217051788Y-74942475D01*
X217051788Y-74942474D01*
X217097089Y-74839877D01*
X217097089Y-74839875D01*
X217099999Y-74814794D01*
X217099999Y-74536812D01*
X217119683Y-74469773D01*
X217172487Y-74424018D01*
X217241646Y-74414074D01*
X217271451Y-74422251D01*
X217319999Y-74442360D01*
X217320000Y-74442360D01*
X217320000Y-73846988D01*
X217329940Y-73864205D01*
X217385795Y-73920060D01*
X217454204Y-73959556D01*
X217530504Y-73980000D01*
X217609496Y-73980000D01*
X217685796Y-73959556D01*
X217754205Y-73920060D01*
X217810060Y-73864205D01*
X217820000Y-73846988D01*
X217820000Y-74442360D01*
G37*
%TD.AperFunction*%
%TA.AperFunction,Conductor*%
G36*
X216640749Y-74045880D02*
G01*
X216666336Y-74056844D01*
X216693039Y-74064685D01*
X216698002Y-74070412D01*
X216704971Y-74073399D01*
X216720569Y-74096456D01*
X216738794Y-74117489D01*
X216739872Y-74124991D01*
X216744121Y-74131271D01*
X216750000Y-74169000D01*
X216750000Y-75069999D01*
X216769090Y-75089089D01*
X216771114Y-75089684D01*
X216780389Y-75100388D01*
X216786319Y-75106318D01*
X216785894Y-75106742D01*
X216816869Y-75142488D01*
X216826813Y-75211646D01*
X216797788Y-75275202D01*
X216777695Y-75293779D01*
X216774041Y-75296475D01*
X216708409Y-75320437D01*
X216640241Y-75305112D01*
X216626788Y-75296465D01*
X216530794Y-75225619D01*
X216406880Y-75182258D01*
X216377461Y-75179500D01*
X216374000Y-75179500D01*
X216365314Y-75176949D01*
X216356353Y-75178238D01*
X216332312Y-75167259D01*
X216306961Y-75159815D01*
X216301033Y-75152974D01*
X216292797Y-75149213D01*
X216278507Y-75126978D01*
X216261206Y-75107011D01*
X216258918Y-75096496D01*
X216255023Y-75090435D01*
X216250000Y-75055500D01*
X216250000Y-74973917D01*
X216260565Y-74923832D01*
X216297585Y-74839991D01*
X216300500Y-74814865D01*
X216300499Y-74144859D01*
X216305118Y-74129129D01*
X216304732Y-74112740D01*
X216314757Y-74096300D01*
X216320183Y-74077822D01*
X216332574Y-74067085D01*
X216341110Y-74053088D01*
X216358433Y-74044677D01*
X216372987Y-74032067D01*
X216389214Y-74029733D01*
X216403964Y-74022573D01*
X216439248Y-74021741D01*
X216640749Y-74045880D01*
G37*
%TD.AperFunction*%
%TD*%
M02*
